<?xml version="1.0" standalone="no"?>
<!DOCTYPE svg PUBLIC "-//W3C//DTD SVG 1.1//EN" "http://www.w3.org/Graphics/SVG/1.1/DTD/svg11.dtd" >
<svg>
<metadata>
Created by FontForge 20090914 at Thu Jan 12 05:51:25 2017
 By www-data
Copyright (c) 2009 by Dino dos Santos _DSType. Exclusive design for Electronic Arts. All rights reserved.
</metadata>
<defs>
<font id="EASansCurves-Regular" horiz-adv-x="520" >
  <font-face 
    font-family="EA Sans Curves Regular"
    font-weight="400"
    font-stretch="normal"
    units-per-em="1000"
    panose-1="2 0 5 3 0 0 0 2 0 4"
    ascent="750"
    descent="-250"
    x-height="699.998"
    cap-height="700"
    bbox="-75 -250 1030 970.001"
    underline-thickness="50"
    underline-position="-50"
    unicode-range="U+000D-U+FB02"
  />
<missing-glyph horiz-adv-x="418" 
d="M82 249c0 22.667 3.33203 43.6699 9.99902 63.0029s16 36.333 28 51l-63 90l6 8l65 -90c11.333 11.333 23.833 20.166 37.5 26.499s28.5 9.5 44.5 9.5c15.333 0 29.666 -3.16699 42.999 -9.5s25.666 -15.166 36.999 -26.499l64 90l7 -8l-63 -89
c12.667 -14.667 22.5 -31.834 29.5 -51.501s10.5 -40.834 10.5 -63.501s-3.5 -43.834 -10.5 -63.501s-16.5 -36.5 -28.5 -50.5l62 -86l-8 -9l-63 87c-11.333 -11.333 -23.666 -20 -36.999 -26s-27.666 -9 -42.999 -9c-31.333 0 -58.666 11.667 -81.999 35l-62 -87l-7 9
l61 86c-12 14.667 -21.333 31.667 -28 51s-10 40.333 -10 63zM91.999 249.003c0 -20 3.16699 -38.667 9.5 -56s14.833 -32.666 25.5 -45.999s23.167 -23.833 37.5 -31.5s29.5 -11.5 45.5 -11.5s31.167 3.83301 45.5 11.5s26.833 18.167 37.5 31.5s19.167 28.666 25.5 45.999
s9.5 36 9.5 56s-3.16699 38.833 -9.5 56.5s-14.833 33.167 -25.5 46.5s-23.167 23.833 -37.5 31.5s-29.5 11.5 -45.5 11.5s-31.167 -3.83301 -45.5 -11.5s-26.833 -18.167 -37.5 -31.5s-19.167 -28.833 -25.5 -46.5s-9.5 -36.5 -9.5 -56.5z" />
    <glyph glyph-name="fi" unicode="fi" horiz-adv-x="700" 
d="M30 0v545c0 22 3.83301 42.5 11.5 61.5s18.5 35.5 32.5 49.5s30.5 24.833 49.5 32.5s39.5 11.5 61.5 11.5h275v-140h-220c-14 0 -24.167 -4.33301 -30.5 -13s-9.5 -17.667 -9.5 -27v-100h190v-140h-190v-280h-170zM670 700v-700h-170v700h170z" />
    <glyph glyph-name="fl" unicode="fl" horiz-adv-x="940" 
d="M30 0v545c0 22 3.83301 42.5 11.5 61.5s18.5 35.5 32.5 49.5s30.5 24.833 49.5 32.5s39.5 11.5 61.5 11.5h275v-140h-220c-14 0 -24.167 -4.33301 -30.5 -13s-9.5 -17.667 -9.5 -27v-100h190v-140h-190v-280h-170zM670 700v-520c0 -9.33301 3.16699 -18.333 9.5 -27
s16.5 -13 30.5 -13h220v-140h-275c-22 -0 -42.5 3.83301 -61.5 11.5s-35.5 18.5 -49.5 32.5s-24.833 30.5 -32.5 49.5s-11.5 39.5 -11.5 61.5v545h170z" />
    <glyph glyph-name=".notdef" horiz-adv-x="418" 
d="M82 249c0 22.667 3.33203 43.6699 9.99902 63.0029s16 36.333 28 51l-63 90l6 8l65 -90c11.333 11.333 23.833 20.166 37.5 26.499s28.5 9.5 44.5 9.5c15.333 0 29.666 -3.16699 42.999 -9.5s25.666 -15.166 36.999 -26.499l64 90l7 -8l-63 -89
c12.667 -14.667 22.5 -31.834 29.5 -51.501s10.5 -40.834 10.5 -63.501s-3.5 -43.834 -10.5 -63.501s-16.5 -36.5 -28.5 -50.5l62 -86l-8 -9l-63 87c-11.333 -11.333 -23.666 -20 -36.999 -26s-27.666 -9 -42.999 -9c-31.333 0 -58.666 11.667 -81.999 35l-62 -87l-7 9
l61 86c-12 14.667 -21.333 31.667 -28 51s-10 40.333 -10 63zM91.999 249.003c0 -20 3.16699 -38.667 9.5 -56s14.833 -32.666 25.5 -45.999s23.167 -23.833 37.5 -31.5s29.5 -11.5 45.5 -11.5s31.167 3.83301 45.5 11.5s26.833 18.167 37.5 31.5s19.167 28.666 25.5 45.999
s9.5 36 9.5 56s-3.16699 38.833 -9.5 56.5s-14.833 33.167 -25.5 46.5s-23.167 23.833 -37.5 31.5s-29.5 11.5 -45.5 11.5s-31.167 -3.83301 -45.5 -11.5s-26.833 -18.167 -37.5 -31.5s-19.167 -28.833 -25.5 -46.5s-9.5 -36.5 -9.5 -56.5z" />
    <glyph glyph-name=".null" horiz-adv-x="0" 
 />
    <glyph glyph-name=".null" horiz-adv-x="0" 
 />
    <glyph glyph-name="nonmarkingreturn" unicode="&#xd;" horiz-adv-x="250" 
 />
    <glyph glyph-name="space" unicode=" " horiz-adv-x="180" 
 />
    <glyph glyph-name="exclam" unicode="!" horiz-adv-x="230" 
d="M200 700v-530h-170v530h170zM200 140v-140h-170v140h170z" />
    <glyph glyph-name="quotedbl" unicode="&#x22;" horiz-adv-x="430" 
d="M200 575c0 -22 -3.83301 -42.5 -11.5 -61.5s-18.5 -35.5 -32.5 -49.5s-30.5 -24.833 -49.5 -32.5s-39.5 -11.5 -61.5 -11.5h-15v280h170v-125zM400 575c0 -22 -3.83301 -42.5 -11.5 -61.5s-18.5 -35.5 -32.5 -49.5s-30.5 -24.833 -49.5 -32.5s-39.5 -11.5 -61.5 -11.5
h-15v280h170v-125z" />
    <glyph glyph-name="numbersign" unicode="#" horiz-adv-x="490" 
d="M30 515h50v50h130v-50h70v50h130v-50h50v-130h-50v-70h50v-130h-50v-50h-130v50h-70v-50h-130v50h-50v130h50v70h-50v130zM210 315h70v70h-70v-70z" />
    <glyph glyph-name="dollar" unicode="$" horiz-adv-x="500" 
d="M145 -50l8 50h-123v140h148l26 148l-49 12c-16.667 4 -32.5 9.66699 -47.5 17s-28.333 16 -40 26s-20.834 21.833 -27.501 35.5s-10 29.167 -10 46.5v120c0 22 3.83301 42.5 11.5 61.5s18.5 35.5 32.5 49.5s30.5 24.833 49.5 32.5s39.5 11.5 61.5 11.5h91l9 50h70l-9 -50
h109v-140h-134l-22 -130l46 -10c16.667 -4 32.5 -9.66699 47.5 -17s28.333 -16 40 -26s20.834 -21.833 27.501 -35.5s10 -29.167 10 -46.5v-140c0 -22 -3.83301 -42.5 -11.5 -61.5s-18.5 -35.5 -32.5 -49.5s-30.5 -24.833 -49.5 -32.5s-39.5 -11.5 -61.5 -11.5h-92l-8 -50
h-70zM300 240c0 17.333 -8.33301 28 -25 32l-4 1l-23 -133h12c14 0 24.167 4.33301 30.5 13s9.5 17.667 9.5 27v60zM200 480c0 -9.33301 2 -16.168 6 -20.501s10.333 -8.16602 19 -11.499l6 -2l20 114h-11c-14 0 -24.167 -4.33301 -30.5 -13s-9.5 -17.667 -9.5 -27v-40z" />
    <glyph glyph-name="percent" unicode="%" horiz-adv-x="700" 
d="M180 0v140c0 10 1.66699 24.833 5 44.5s15 43.167 35 70.5l198 257c4 5.33301 7 11.666 9 18.999s3 13 3 17v152h90v-140c0 -10 -2.5 -24.833 -7.5 -44.5s-17.5 -43.167 -37.5 -70.5l-193 -257c-4 -5.33301 -7 -11.666 -9 -18.999s-3 -13 -3 -17v-152h-90zM107 347
c-22 0 -40.333 7.33301 -55 22s-22 33.334 -22 56.001v200c0 22 7.33301 40.333 22 55s33 22 55 22h75c22.667 0 41.334 -7.33301 56.001 -22s22 -33 22 -55v-200c0 -22.667 -7.33301 -41.334 -22 -56.001s-33.334 -22 -56.001 -22h-75zM155 417
c7.33301 0 12.5 2.16699 15.5 6.5s4.5 8.83301 4.5 13.5v175c0 4.66699 -1.5 9.16699 -4.5 13.5s-8.16699 6.5 -15.5 6.5h-20c-7.33301 0 -12.5 -2.16699 -15.5 -6.5s-4.5 -8.83301 -4.5 -13.5v-175c0 -4.66699 1.5 -9.16699 4.5 -13.5s8.16699 -6.5 15.5 -6.5h20zM517 -3
c-22 0 -40.333 7.33301 -55 22s-22 33.334 -22 56.001v200c0 22 7.33301 40.333 22 55s33 22 55 22h75c22.667 0 41.334 -7.33301 56.001 -22s22 -33 22 -55v-200c0 -22.667 -7.33301 -41.334 -22 -56.001s-33.334 -22 -56.001 -22h-75zM565 67
c7.33301 0 12.5 2.16699 15.5 6.5s4.5 8.83301 4.5 13.5v175c0 4.66699 -1.5 9.16699 -4.5 13.5s-8.16699 6.5 -15.5 6.5h-20c-7.33301 0 -12.5 -2.16699 -15.5 -6.5s-4.5 -8.83301 -4.5 -13.5v-175c0 -4.66699 1.5 -9.16699 4.5 -13.5s8.16699 -6.5 15.5 -6.5h20z" />
    <glyph glyph-name="ampersand" unicode="&#x26;" horiz-adv-x="635" 
d="M432 52c-11.333 -17.333 -24.8291 -31.1689 -40.4961 -41.502s-34.5 -15.5 -56.5 -15.5h-150c-22 0 -42.5 3.83301 -61.5 11.5s-35.5 18.5 -49.5 32.5s-24.833 30.5 -32.5 49.5s-11.5 39.5 -11.5 61.5v145c0 29.333 9.16699 53.5 27.5 72.5s40.833 33.5 67.5 43.5l-20 24
c-10.667 12.667 -19.167 25.334 -25.5 38.001s-10.833 24.667 -13.5 36s-4.33398 21.5 -5.00098 30.5s-1 15.833 -1 20.5v15c0 17.333 3.33301 33.5 10 48.5s15.667 28.167 27 39.5s24.5 20.333 39.5 27s31.167 10 48.5 10h295v-140h-235c-10 0 -15 -4 -15 -12
c0 -7.33301 4 -16 12 -26l126 -148c21.333 34 57 51 107 51h130v-140h-75c-16.667 0 -27.334 -8.33301 -32.001 -25l-8 -28l28 -32c6 -7.33301 12.167 -14.166 18.5 -20.499s14.166 -9.5 23.499 -9.5h45v-170h-70c-8.66699 0 -16.667 0.166992 -24 0.5s-14.833 2 -22.5 5
s-15.834 8 -24.501 15s-18.667 16.833 -30 29.5zM273.004 139.997c16.667 0 27.333 8.33301 32 25l7 27l-71 83l-16 -3c-16.667 -4 -25 -14.667 -25 -32v-60c0 -14 4.33301 -24.167 13 -30.5s17.667 -9.5 27 -9.5h33z" />
    <glyph glyph-name="quotesingle" unicode="'" horiz-adv-x="230" 
d="M200 575c0 -22 -3.83301 -42.5 -11.5 -61.5s-18.5 -35.5 -32.5 -49.5s-30.5 -24.833 -49.5 -32.5s-39.5 -11.5 -61.5 -11.5h-15v280h170v-125z" />
    <glyph glyph-name="parenleft" unicode="(" horiz-adv-x="290" 
d="M200 10c0 -9.33301 1.5 -16.5 4.5 -21.5s7.83301 -10.167 14.5 -15.5l61 -48l-90 -115l-79 58c-30 22 -51 46.167 -63 72.5s-18 52.833 -18 79.5v680c0 26.667 6 53.167 18 79.5s33 50.5 63 72.5l79 58l90 -115l-61 -48c-6.66699 -5.33301 -11.5 -10.5 -14.5 -15.5
s-4.5 -12.167 -4.5 -21.5v-700z" />
    <glyph glyph-name="parenright" unicode=")" horiz-adv-x="290" 
d="M90 710c0 9.33301 -1.5 16.5 -4.5 21.5s-7.83301 10.167 -14.5 15.5l-61 48l90 115l79 -58c30 -22 51 -46.167 63 -72.5s18 -52.833 18 -79.5v-680c0 -26.667 -6 -53.167 -18 -79.5s-33 -50.5 -63 -72.5l-79 -58l-90 115l61 48c6.66699 5.33301 11.5 10.5 14.5 15.5
s4.5 12.167 4.5 21.5v700z" />
    <glyph glyph-name="asterisk" unicode="*" horiz-adv-x="317" 
d="M50 614h54l-38 38l32 33l38 -38v53h45v-53l38 38l33 -33l-38 -38h53v-45h-53l38 -38l-33 -32l-38 38v-54h-45v54l-38 -38l-32 32l38 38h-54v45z" />
    <glyph glyph-name="plus" unicode="+" horiz-adv-x="390" 
d="M30 415h100v100h130v-100h100v-130h-100v-100h-130v100h-100v130z" />
    <glyph glyph-name="comma" unicode="," horiz-adv-x="230" 
d="M200 25c0 -22 -3.83301 -42.5 -11.5 -61.5s-18.5 -35.5 -32.5 -49.5s-30.5 -24.833 -49.5 -32.5s-39.5 -11.5 -61.5 -11.5h-15v270h170v-115z" />
    <glyph glyph-name="hyphen" unicode="-" horiz-adv-x="390" 
d="M30 415h330v-130h-330v130z" />
    <glyph glyph-name="period" unicode="." horiz-adv-x="230" 
d="M200 140v-140h-170v140h170z" />
    <glyph glyph-name="slash" unicode="/" horiz-adv-x="480" 
d="M30 0v140.001c0 5.33301 0.166992 12.166 0.5 20.499s1.83301 18 4.5 29s6.66699 23 12 36s13 26.167 23 39.5l188 257c8 10 12 18.667 12 26v152h180v-140c0 -10 -2.5 -26.5 -7.5 -49.5s-17.5 -48.167 -37.5 -75.5l-193 -257c-8 -10 -12 -18.667 -12 -26v-152h-170z" />
    <glyph glyph-name="zero" unicode="0" 
d="M185 -5c-22 0 -42.5 3.83301 -61.5 11.5s-35.5 18.5 -49.5 32.5s-24.833 30.5 -32.5 49.5s-11.5 39.5 -11.5 61.5v400c0 22 3.83301 42.5 11.5 61.5s18.5 35.5 32.5 49.5s30.5 24.833 49.5 32.5s39.5 11.5 61.5 11.5h150c22 0 42.5 -3.83301 61.5 -11.5
s35.5 -18.5 49.5 -32.5s24.833 -30.5 32.5 -49.5s11.5 -39.5 11.5 -61.5v-400c0 -22 -3.83301 -42.5 -11.5 -61.5s-18.5 -35.5 -32.5 -49.5s-30.5 -24.833 -49.5 -32.5s-39.5 -11.5 -61.5 -11.5h-150zM280 135c14 0 24.167 4.33301 30.5 13s9.5 17.667 9.5 27v350
c0 9.33301 -3.16699 18.333 -9.5 27s-16.5 13 -30.5 13h-40c-14 0 -24.167 -4.33301 -30.5 -13s-9.5 -17.667 -9.5 -27v-350c0 -9.33301 3.16699 -18.333 9.5 -27s16.5 -13 30.5 -13h40z" />
    <glyph glyph-name="one" unicode="1" horiz-adv-x="305" 
d="M105 0v525c0 9.33301 -3.16699 18.333 -9.5 27s-16.5 13 -30.5 13h-65v140h120c22 0 42.5 -3.83301 61.5 -11.5s35.5 -18.5 49.5 -32.5s24.833 -30.5 32.5 -49.5s11.5 -39.5 11.5 -61.5v-550h-170z" />
    <glyph glyph-name="two" unicode="2" horiz-adv-x="470" 
d="M20 275c0 34.667 10.668 62 32.001 82s49 34.333 83 43l120 28c16.667 4 25 14.667 25 32v60c0 9.33301 -3.16699 18.333 -9.5 27s-16.5 13 -30.5 13h-220v140h275c22 0 42.5 -3.83301 61.5 -11.5s35.5 -18.5 49.5 -32.5s24.833 -30.5 32.5 -49.5s11.5 -39.5 11.5 -61.5
v-140c0 -17.333 -3.33301 -32.833 -10 -46.5s-15.834 -25.5 -27.501 -35.5s-25 -18.667 -40 -26s-30.833 -13 -47.5 -17l-110 -28c-16.667 -4 -25 -14.667 -25 -32v-80h260v-140h-430v275z" />
    <glyph glyph-name="three" unicode="3" horiz-adv-x="470" 
d="M285 700c22 0 42.5 -3.83496 61.5 -11.502s35.5 -18.5 49.5 -32.5s24.833 -30.5 32.5 -49.5s11.5 -39.5 11.5 -61.5v-60c0 -30 -6.83301 -56.667 -20.5 -80s-32.167 -41.666 -55.5 -54.999c28 -13.333 49.333 -31.666 64 -54.999s22 -50 22 -80v-60
c0 -22 -3.83301 -42.5 -11.5 -61.5s-18.5 -35.5 -32.5 -49.5s-30.5 -24.833 -49.5 -32.5s-39.5 -11.5 -61.5 -11.5h-285v140h230c14 0 24.167 4.33301 30.5 13s9.5 17.667 9.5 27v60c0 9.33301 -3.16699 18.333 -9.5 27s-16.5 13 -30.5 13h-120v140h110
c14 0 24.167 4.33301 30.5 13s9.5 17.667 9.5 27v60c0 9.33301 -3.16699 18.333 -9.5 27s-16.5 13 -30.5 13h-220v140h275z" />
    <glyph glyph-name="four" unicode="4" horiz-adv-x="500" 
d="M450 700l-258.001 -382l-8.5 -14c-2.33301 -4 -3.5 -8 -3.5 -12c0 -8 5 -12 15 -12h105v65c0 22 3.83301 42.5 11.5 61.5s18.5 35.5 32.5 49.5s30.5 24.833 49.5 32.5s39.5 11.5 61.5 11.5h15v-500h-170v140h-165c-17.333 0 -33.5 3.33301 -48.5 10
s-28.167 15.667 -39.5 27s-20.333 24.5 -27 39.5s-10 31.167 -10 48.5v15c0 10 2.83301 26.333 8.5 49s17.834 48 36.501 76l197 295h198z" />
    <glyph glyph-name="five" unicode="5" horiz-adv-x="460" 
d="M20 300v400h400v-140h-230v-120h95c22 0 42.5 -3.83301 61.5 -11.5s35.5 -18.5 49.5 -32.5s24.833 -30.5 32.5 -49.5s11.5 -39.5 11.5 -61.5v-130c0 -22 -3.83301 -42.5 -11.5 -61.5s-18.5 -35.5 -32.5 -49.5s-30.5 -24.833 -49.5 -32.5s-39.5 -11.5 -61.5 -11.5h-275
v140h220c14 0 24.167 4.33301 30.5 13s9.5 17.667 9.5 27v80c0 9.33301 -3.16699 18.333 -9.5 27s-16.5 13 -30.5 13h-210z" />
    <glyph glyph-name="six" unicode="6" horiz-adv-x="510" 
d="M320 270c0 9.33301 -3.16699 18.333 -9.5 27s-16.5 13 -30.5 13h-50v140h105c22 0 42.5 -3.83301 61.5 -11.5s35.5 -18.5 49.5 -32.5s24.833 -30.5 32.5 -49.5s11.5 -39.5 11.5 -61.5v-145c0 -22 -3.83301 -42.5 -11.5 -61.5s-18.5 -35.5 -32.5 -49.5
s-30.5 -24.833 -49.5 -32.5s-39.5 -11.5 -61.5 -11.5h-150c-22 0 -42.5 3.83301 -61.5 11.5s-35.5 18.5 -49.5 32.5s-24.833 30.5 -32.5 49.5s-11.5 39.5 -11.5 61.5v395c0 22 3.83301 42.5 11.5 61.5s18.5 35.5 32.5 49.5s30.5 24.833 49.5 32.5s39.5 11.5 61.5 11.5h285
v-140h-230c-14 0 -24.167 -4.33301 -30.5 -13s-9.5 -17.667 -9.5 -27v-345c0 -9.33301 3.16699 -18.333 9.5 -27s16.5 -13 30.5 -13h40c14 0 24.167 4.33301 30.5 13s9.5 17.667 9.5 27v95z" />
    <glyph glyph-name="seven" unicode="7" horiz-adv-x="450" 
d="M20 0v140.001c0 5.33301 0.166992 12.166 0.5 20.499s1.83301 18 4.5 29s6.66699 23 12 36s13 26.167 23 39.5l188 257c8 10 12 18.667 12 26c0 8 -5 12 -15 12h-235v140h305c17.333 0 33.5 -3.33301 48.5 -10s28.167 -15.667 39.5 -27s20.333 -24.5 27 -39.5
s10 -31.167 10 -48.5v-15c0 -10 -2.5 -26.5 -7.5 -49.5s-17.5 -48.167 -37.5 -75.5l-193 -257c-8 -10 -12 -18.667 -12 -26v-152h-170z" />
    <glyph glyph-name="eight" unicode="8" 
d="M175 -5c-22 0 -42.5 3.83301 -61.5 11.5s-35.5 18.5 -49.5 32.5s-24.833 30.5 -32.5 49.5s-11.5 39.5 -11.5 61.5v65c0 30 7.33301 56.667 22 80s36 41.666 64 54.999c-23.333 13.333 -41.833 31.666 -55.5 54.999s-20.5 50 -20.5 80v65c0 22 3.83301 42.5 11.5 61.5
s18.5 35.5 32.5 49.5s30.5 24.833 49.5 32.5s39.5 11.5 61.5 11.5h150c22 0 42.5 -3.83301 61.5 -11.5s35.5 -18.5 49.5 -32.5s24.833 -30.5 32.5 -49.5s11.5 -39.5 11.5 -61.5v-65c0 -30 -6.83301 -56.667 -20.5 -80s-32.167 -41.666 -55.5 -54.999
c28 -13.333 49.333 -31.666 64 -54.999s22 -50 22 -80v-65c0 -22 -3.83301 -42.5 -11.5 -61.5s-18.5 -35.5 -32.5 -49.5s-30.5 -24.833 -49.5 -32.5s-39.5 -11.5 -61.5 -11.5h-170zM230 280c-14 0 -24.167 -4.33301 -30.5 -13s-9.5 -17.667 -9.5 -27v-65
c0 -9.33301 3.16699 -18.333 9.5 -27s16.5 -13 30.5 -13h60c14 0 24.167 4.33301 30.5 13s9.5 17.667 9.5 27v65c0 9.33301 -3.16699 18.333 -9.5 27s-16.5 13 -30.5 13h-60zM240 565c-14 0 -24.167 -4.33301 -30.5 -13s-9.5 -17.667 -9.5 -27v-65
c0 -9.33301 3.16699 -18.333 9.5 -27s16.5 -13 30.5 -13h40c14 0 24.167 4.33301 30.5 13s9.5 17.667 9.5 27v65c0 9.33301 -3.16699 18.333 -9.5 27s-16.5 13 -30.5 13h-40z" />
    <glyph glyph-name="nine" unicode="9" horiz-adv-x="510" 
d="M190 430c0 -9.33301 3.16699 -18.333 9.5 -27s16.5 -13 30.5 -13h50v-140h-105c-22 0 -42.5 3.83301 -61.5 11.5s-35.5 18.5 -49.5 32.5s-24.833 30.5 -32.5 49.5s-11.5 39.5 -11.5 61.5v145c0 22 3.83301 42.5 11.5 61.5s18.5 35.5 32.5 49.5s30.5 24.833 49.5 32.5
s39.5 11.5 61.5 11.5h150c22 0 42.5 -3.83301 61.5 -11.5s35.5 -18.5 49.5 -32.5s24.833 -30.5 32.5 -49.5s11.5 -39.5 11.5 -61.5v-395c0 -22 -3.83301 -42.5 -11.5 -61.5s-18.5 -35.5 -32.5 -49.5s-30.5 -24.833 -49.5 -32.5s-39.5 -11.5 -61.5 -11.5h-285v140h230
c14 0 24.167 4.33301 30.5 13s9.5 17.667 9.5 27v345c0 9.33301 -3.16699 18.333 -9.5 27s-16.5 13 -30.5 13h-40c-14 0 -24.167 -4.33301 -30.5 -13s-9.5 -17.667 -9.5 -27v-95z" />
    <glyph glyph-name="colon" unicode=":" horiz-adv-x="230" 
d="M200 265v-140h-170v140h170zM200 575v-140h-170v140h170z" />
    <glyph glyph-name="semicolon" unicode=";" horiz-adv-x="230" 
d="M200 575v-140h-170v140h170zM200 25c0 -22 -3.83301 -42.5 -11.5 -61.5s-18.5 -35.5 -32.5 -49.5s-30.5 -24.833 -49.5 -32.5s-39.5 -11.5 -61.5 -11.5h-15v270h170v-115z" />
    <glyph glyph-name="less" unicode="&#x3c;" horiz-adv-x="265" 
d="M30 424c0 8 1.66699 14 5 18s7.66602 7.33301 12.999 10l187 90v-135l-114 -55l114 -55v-135l-187 90c-5.33301 2.66699 -9.66602 6 -12.999 10s-5 10 -5 18v144z" />
    <glyph glyph-name="equal" unicode="=" horiz-adv-x="390" 
d="M30 515h330v-130h-330v130zM30 315h330v-130h-330v130z" />
    <glyph glyph-name="greater" unicode="&#x3e;" horiz-adv-x="265" 
d="M235 280c0 -8 -1.66699 -14 -5 -18s-7.66602 -7.33301 -12.999 -10l-187 -90v135l114 55l-114 55v135l187 -90c5.33301 -2.66699 9.66602 -6 12.999 -10s5 -10 5 -18v-144z" />
    <glyph glyph-name="question" unicode="?" horiz-adv-x="470" 
d="M20 275c0 34.667 10.668 62 32.001 82s49 34.333 83 43l120 28c16.667 4 25 14.667 25 32v60c0 9.33301 -3.16699 18.333 -9.5 27s-16.5 13 -30.5 13h-220v140h275c22 0 42.5 -3.83301 61.5 -11.5s35.5 -18.5 49.5 -32.5s24.833 -30.5 32.5 -49.5s11.5 -39.5 11.5 -61.5
v-140c0 -17.333 -3.33301 -32.833 -10 -46.5s-15.834 -25.5 -27.501 -35.5s-25 -18.667 -40 -26s-30.833 -13 -47.5 -17l-110 -28c-16.667 -4 -25 -14.667 -25 -32v-50h-170v105zM190.001 140v-140h-170v140h170z" />
    <glyph glyph-name="at" unicode="@" horiz-adv-x="850" 
d="M385 0c-22 0 -42.5 3.83301 -61.5 11.5s-35.5 18.5 -49.5 32.5s-24.833 30.5 -32.5 49.5s-11.5 39.5 -11.5 61.5v200c0 22 3.83301 42.5 11.5 61.5s18.5 35.5 32.5 49.5s30.5 24.833 49.5 32.5s39.5 11.5 61.5 11.5h225v-400h40c14 0 24.167 4.33301 30.5 13
s9.5 17.667 9.5 27v405c0 9.33301 -3.16699 18.333 -9.5 27s-16.5 13 -30.5 13h-450c-14 0 -24.167 -4.33301 -30.5 -13s-9.5 -17.667 -9.5 -27v-555h-130v550c0 22 3.83301 42.5 11.5 61.5s18.5 35.5 32.5 49.5s30.5 24.833 49.5 32.5s39.5 11.5 61.5 11.5h480
c22 0 42.5 -3.83301 61.5 -11.5s35.5 -18.5 49.5 -32.5s24.833 -30.5 32.5 -49.5s11.5 -39.5 11.5 -61.5v-395c0 -22 -3.83301 -42.5 -11.5 -61.5s-18.5 -35.5 -32.5 -49.5s-30.5 -24.833 -49.5 -32.5s-39.5 -11.5 -61.5 -11.5h-280zM480 120v270h-80
c-14 0 -24.167 -4.33301 -30.5 -13s-9.5 -17.667 -9.5 -27v-190c0 -9.33301 3.16699 -18.333 9.5 -27s16.5 -13 30.5 -13h80z" />
    <glyph glyph-name="A" unicode="A" 
d="M230 380h90v145c0 11.333 -3.16699 20.833 -9.5 28.5s-16.5 11.5 -30.5 11.5h-40c-14 0 -24.167 -4.33301 -30.5 -13s-9.5 -17.667 -9.5 -27v-525h-170v550c0 22 3.83301 42.5 11.5 61.5s18.5 35.5 32.5 49.5s30.5 24.833 49.5 32.5s39.5 11.5 61.5 11.5h150
c22 0 42.5 -3.83301 61.5 -11.5s35.5 -18.5 49.5 -32.5s24.833 -30.5 32.5 -49.5s11.5 -39.5 11.5 -61.5v-550h-170v240h-90v140z" />
    <glyph glyph-name="B" unicode="B" 
d="M200 140h80c14 0 24.167 4.33301 30.5 13s9.5 17.667 9.5 27v60c0 9.33301 -3.16699 18.333 -9.5 27s-16.5 13 -30.5 13h-50v140h40c14 0 24.167 4.33301 30.5 13s9.5 17.667 9.5 27v60c0 9.33301 -3.16699 18.333 -9.5 27s-16.5 13 -30.5 13h-70v-420zM490 155
c0 -22 -3.83301 -42.502 -11.5 -61.502s-18.5 -35.5 -32.5 -49.5s-30.5 -24.833 -49.5 -32.5s-39.5 -11.5 -61.5 -11.5h-305v700h295c22 0 42.5 -3.83301 61.5 -11.5s35.5 -18.5 49.5 -32.5s24.833 -30.5 32.5 -49.5s11.5 -39.5 11.5 -61.5v-60
c0 -30 -6.83301 -56.667 -20.5 -80s-32.167 -41.666 -55.5 -54.999c28 -13.333 49.333 -31.666 64 -54.999s22 -50 22 -80v-60z" />
    <glyph glyph-name="C" unicode="C" horiz-adv-x="480" 
d="M460 140v-140h-275c-22 -0 -42.5 3.83301 -61.5 11.5s-35.5 18.5 -49.5 32.5s-24.833 30.5 -32.5 49.5s-11.5 39.5 -11.5 61.5v390c0 22 3.83301 42.5 11.5 61.5s18.5 35.5 32.5 49.5s30.5 24.833 49.5 32.5s39.5 11.5 61.5 11.5h275v-140h-220
c-14 0 -24.167 -4.33301 -30.5 -13s-9.5 -17.667 -9.5 -27v-340c0 -9.33301 3.16699 -18.333 9.5 -27s16.5 -13 30.5 -13h220z" />
    <glyph glyph-name="D" unicode="D" 
d="M30 0v700h305c22 0 42.5 -3.83301 61.5 -11.5s35.5 -18.5 49.5 -32.5s24.833 -30.5 32.5 -49.5s11.5 -39.5 11.5 -61.5v-390c0 -22 -3.83301 -42.5 -11.5 -61.5s-18.5 -35.5 -32.5 -49.5s-30.5 -24.833 -49.5 -32.5s-39.5 -11.5 -61.5 -11.5h-305zM200 560v-420h80
c14 0 24.167 4.33301 30.5 13s9.5 17.667 9.5 27v340c0 9.33301 -3.16699 18.333 -9.5 27s-16.5 13 -30.5 13h-80z" />
    <glyph glyph-name="E" unicode="E" horiz-adv-x="480" 
d="M460 140v-140h-275c-22 -0 -42.5 3.83301 -61.5 11.5s-35.5 18.5 -49.5 32.5s-24.833 30.5 -32.5 49.5s-11.5 39.5 -11.5 61.5v390c0 22 3.83301 42.5 11.5 61.5s18.5 35.5 32.5 49.5s30.5 24.833 49.5 32.5s39.5 11.5 61.5 11.5h275v-140h-220
c-14 0 -24.167 -4.33301 -30.5 -13s-9.5 -17.667 -9.5 -27v-100h190v-140h-190v-100c0 -9.33301 3.16699 -18.333 9.5 -27s16.5 -13 30.5 -13h220z" />
    <glyph glyph-name="F" unicode="F" horiz-adv-x="470" 
d="M30 0v545c0 22 3.83301 42.5 11.5 61.5s18.5 35.5 32.5 49.5s30.5 24.833 49.5 32.5s39.5 11.5 61.5 11.5h275v-140h-220c-14 0 -24.167 -4.33301 -30.5 -13s-9.5 -17.667 -9.5 -27v-100h190v-140h-190v-280h-170z" />
    <glyph glyph-name="G" unicode="G" horiz-adv-x="510" 
d="M310 360h170v-210c0 -22 -3.83301 -42.5 -11.5 -61.5s-18.5 -35.5 -32.5 -49.5s-30.5 -24.833 -49.5 -32.5s-39.5 -11.5 -61.5 -11.5h-140c-22 0 -42.5 3.83301 -61.5 11.5s-35.5 18.5 -49.5 32.5s-24.833 30.5 -32.5 49.5s-11.5 39.5 -11.5 61.5v395
c0 22 3.83301 42.5 11.5 61.5s18.5 35.5 32.5 49.5s30.5 24.833 49.5 32.5s39.5 11.5 61.5 11.5h275v-140h-220c-14 0 -24.167 -4.33301 -30.5 -13s-9.5 -17.667 -9.5 -27v-345c0 -9.33301 3.16699 -18.333 9.5 -27s16.5 -13 30.5 -13h30c14 0 24.167 4.33301 30.5 13
s9.5 17.667 9.5 27v185z" />
    <glyph glyph-name="H" unicode="H" 
d="M200 700v-280h120v280h170v-700h-170v280h-120v-280h-170v700h170z" />
    <glyph glyph-name="I" unicode="I" horiz-adv-x="230" 
d="M200 700v-700h-170v700h170z" />
    <glyph glyph-name="J" unicode="J" horiz-adv-x="230" 
d="M30 700h170v-680c0 -26.667 -6 -53.167 -18 -79.5s-33 -50.5 -63 -72.5l-79 -58l-90 115l61 48c6.66699 5.33301 11.5 10.5 14.5 15.5s4.5 12.167 4.5 21.5v690z" />
    <glyph glyph-name="K" unicode="K" 
d="M30 0v699.998h170v-280h80c14 0 24.167 4.33301 30.5 13s9.5 17.667 9.5 27v240h170v-215c0 -30 -6.83301 -56.667 -20.5 -80s-32.167 -41.666 -55.5 -54.999c23.333 -13.333 41.833 -31.666 55.5 -54.999s20.5 -50 20.5 -80v-215h-170v240
c0 9.33301 -3.16699 18.333 -9.5 27s-16.5 13 -30.5 13h-80v-280h-170z" />
    <glyph glyph-name="L" unicode="L" horiz-adv-x="470" 
d="M200 700v-520c0 -9.33301 3.16699 -18.333 9.5 -27s16.5 -13 30.5 -13h220v-140h-275c-22 -0 -42.5 3.83301 -61.5 11.5s-35.5 18.5 -49.5 32.5s-24.833 30.5 -32.5 49.5s-11.5 39.5 -11.5 61.5v545h170z" />
    <glyph glyph-name="M" unicode="M" horiz-adv-x="810" 
d="M610 0v525c0 9.33301 -3.16699 18.333 -9.5 27s-16.5 13 -30.5 13h-40c-14 0 -24.167 -3.83301 -30.5 -11.5s-9.5 -17.167 -9.5 -28.5v-525h-170v525c0 11.333 -3.16699 20.833 -9.5 28.5s-16.5 11.5 -30.5 11.5h-40c-14 0 -24.167 -4.33301 -30.5 -13
s-9.5 -17.667 -9.5 -27v-525h-170v550c0 22 3.83301 42.5 11.5 61.5s18.5 35.5 32.5 49.5s30.5 24.833 49.5 32.5s39.5 11.5 61.5 11.5h80c32 0 60.167 -7.83301 84.5 -23.5s42.833 -36.5 55.5 -62.5c12 26 30.333 46.833 55 62.5s53 23.5 85 23.5h80
c22 0 42.5 -3.83301 61.5 -11.5s35.5 -18.5 49.5 -32.5s24.833 -30.5 32.5 -49.5s11.5 -39.5 11.5 -61.5v-550h-170z" />
    <glyph glyph-name="N" unicode="N" 
d="M30 0v550c0 22 3.83301 42.5 11.5 61.5s18.5 35.5 32.5 49.5s30.5 24.833 49.5 32.5s39.5 11.5 61.5 11.5h150c22 0 42.5 -3.83301 61.5 -11.5s35.5 -18.5 49.5 -32.5s24.833 -30.5 32.5 -49.5s11.5 -39.5 11.5 -61.5v-550h-170v525c0 11.333 -3.16699 20.833 -9.5 28.5
s-16.5 11.5 -30.5 11.5h-40c-14 0 -24.167 -4.33301 -30.5 -13s-9.5 -17.667 -9.5 -27v-525h-170z" />
    <glyph glyph-name="O" unicode="O" 
d="M185 -5c-22 0 -42.5 3.83301 -61.5 11.5s-35.5 18.5 -49.5 32.5s-24.833 30.5 -32.5 49.5s-11.5 39.5 -11.5 61.5v400c0 22 3.83301 42.5 11.5 61.5s18.5 35.5 32.5 49.5s30.5 24.833 49.5 32.5s39.5 11.5 61.5 11.5h150c22 0 42.5 -3.83301 61.5 -11.5
s35.5 -18.5 49.5 -32.5s24.833 -30.5 32.5 -49.5s11.5 -39.5 11.5 -61.5v-400c0 -22 -3.83301 -42.5 -11.5 -61.5s-18.5 -35.5 -32.5 -49.5s-30.5 -24.833 -49.5 -32.5s-39.5 -11.5 -61.5 -11.5h-150zM280 135c14 0 24.167 4.33301 30.5 13s9.5 17.667 9.5 27v350
c0 9.33301 -3.16699 18.333 -9.5 27s-16.5 13 -30.5 13h-40c-14 0 -24.167 -4.33301 -30.5 -13s-9.5 -17.667 -9.5 -27v-350c0 -9.33301 3.16699 -18.333 9.5 -27s16.5 -13 30.5 -13h40z" />
    <glyph glyph-name="P" unicode="P" 
d="M230 380h50c14 0 24.167 4.33301 30.5 13s9.5 17.667 9.5 27v100c0 9.33301 -3.16699 18.333 -9.5 27s-16.5 13 -30.5 13h-80v-560h-170v700h305c22 0 42.5 -3.83301 61.5 -11.5s35.5 -18.5 49.5 -32.5s24.833 -30.5 32.5 -49.5s11.5 -39.5 11.5 -61.5v-150
c0 -22 -3.83301 -42.5 -11.5 -61.5s-18.5 -35.5 -32.5 -49.5s-30.5 -24.833 -49.5 -32.5s-39.5 -11.5 -61.5 -11.5h-105v140z" />
    <glyph glyph-name="Q" unicode="Q" 
d="M30 550c0 22 3.83301 42.4932 11.5 61.4932s18.5 35.5 32.5 49.5s30.5 24.833 49.5 32.5s39.5 11.5 61.5 11.5h150c22 0 42.5 -3.83301 61.5 -11.5s35.5 -18.5 49.5 -32.5s24.833 -30.5 32.5 -49.5s11.5 -39.5 11.5 -61.5v-400c0 -21.333 -3.66699 -41.166 -11 -59.499
s-17.333 -34.166 -30 -47.499s-27.834 -24.166 -45.501 -32.499s-36.834 -13.166 -57.501 -14.499c2.66699 -8 8.66699 -15.667 18 -23l61 -48l-90 -115l-79 58c-25.333 18.667 -44.166 38.834 -56.499 60.501s-20.166 43.834 -23.499 66.501
c-20.667 0.666992 -40 5.16699 -58 13.5s-33.5 19.333 -46.5 33s-23.167 29.834 -30.5 48.501s-11 38.667 -11 60v400zM280 134.993c14 0 24.167 4.33301 30.5 13s9.5 17.667 9.5 27v350c0 9.33301 -3.16699 18.333 -9.5 27s-16.5 13 -30.5 13h-40
c-14 0 -24.167 -4.33301 -30.5 -13s-9.5 -17.667 -9.5 -27v-350c0 -9.33301 3.16699 -18.333 9.5 -27s16.5 -13 30.5 -13h40z" />
    <glyph glyph-name="R" unicode="R" 
d="M30 700l305 -0.00195312c22 0 42.5 -3.83301 61.5 -11.5s35.5 -18.5 49.5 -32.5s24.833 -30.5 32.5 -49.5s11.5 -39.5 11.5 -61.5v-80c0 -30 -6.83301 -56.667 -20.5 -80s-32.167 -41.666 -55.5 -54.999c23.333 -13.333 41.833 -31.666 55.5 -54.999s20.5 -50 20.5 -80
v-195h-170v220c0 9.33301 -3.16699 18.333 -9.5 27s-16.5 13 -30.5 13h-50v140h50c14 0 24.167 4.33301 30.5 13s9.5 17.667 9.5 27v80c0 9.33301 -3.16699 18.333 -9.5 27s-16.5 13 -30.5 13h-80v-560h-170v700z" />
    <glyph glyph-name="S" unicode="S" horiz-adv-x="490" 
d="M295 240c0 17.333 -8.33301 28 -25 32l-120 28c-16.667 4 -32.5 9.66699 -47.5 17s-28.333 16 -40 26s-20.834 21.833 -27.501 35.5s-10 29.167 -10 46.5v120c0 22 3.83301 42.5 11.5 61.5s18.5 35.5 32.5 49.5s30.5 24.833 49.5 32.5s39.5 11.5 61.5 11.5h270v-140h-215
c-14 0 -24.167 -4.33301 -30.5 -13s-9.5 -17.667 -9.5 -27v-40c0 -17.333 8.33301 -28 25 -32l120 -28c16.667 -4 32.5 -9.66699 47.5 -17s28.333 -16 40 -26s20.834 -21.833 27.501 -35.5s10 -29.167 10 -46.5v-140c0 -22 -3.83301 -42.5 -11.5 -61.5
s-18.5 -35.5 -32.5 -49.5s-30.5 -24.833 -49.5 -32.5s-39.5 -11.5 -61.5 -11.5h-285v140h230c14 0 24.167 4.33301 30.5 13s9.5 17.667 9.5 27v60z" />
    <glyph glyph-name="T" unicode="T" horiz-adv-x="480" 
d="M10 560v140h460v-140h-145v-560h-170v560h-145z" />
    <glyph glyph-name="U" unicode="U" 
d="M200 700v-525c0 -9.33301 3.16699 -18.333 9.5 -27s16.5 -13 30.5 -13h40c14 0 24.167 4.33301 30.5 13s9.5 17.667 9.5 27v525h170v-550c0 -22 -3.83301 -42.5 -11.5 -61.5s-18.5 -35.5 -32.5 -49.5s-30.5 -24.833 -49.5 -32.5s-39.5 -11.5 -61.5 -11.5h-150
c-22 0 -42.5 3.83301 -61.5 11.5s-35.5 18.5 -49.5 32.5s-24.833 30.5 -32.5 49.5s-11.5 39.5 -11.5 61.5v550h170z" />
    <glyph glyph-name="V" unicode="V" horiz-adv-x="530" 
d="M269 135c8.66699 0 13.333 4 14 12l62 553h175l-70 -585c-4 -34.667 -15.5 -63.334 -34.5 -86.001s-45.833 -34 -80.5 -34h-140c-34.667 0 -61.5 11.333 -80.5 34s-30.5 51.334 -34.5 86.001l-70 585h175l62 -553c1.33301 -8 6 -12 14 -12h8z" />
    <glyph glyph-name="W" unicode="W" horiz-adv-x="810" 
d="M780 700v-550c0 -22 -3.83301 -42.5 -11.5 -61.5s-18.5 -35.5 -32.5 -49.5s-30.5 -24.833 -49.5 -32.5s-39.5 -11.5 -61.5 -11.5h-80c-32 0 -60.333 7.66699 -85 23s-43 36 -55 62c-12.667 -26 -31.167 -46.667 -55.5 -62s-52.5 -23 -84.5 -23h-80
c-22 0 -42.5 3.83301 -61.5 11.5s-35.5 18.5 -49.5 32.5s-24.833 30.5 -32.5 49.5s-11.5 39.5 -11.5 61.5v550h170v-525c0 -9.33301 3.16699 -18.333 9.5 -27s16.5 -13 30.5 -13h40c14 0 24.167 3.83301 30.5 11.5s9.5 17.167 9.5 28.5v525h170v-525
c0 -11.333 3.16699 -20.833 9.5 -28.5s16.5 -11.5 30.5 -11.5h40c14 0 24.167 4.33301 30.5 13s9.5 17.667 9.5 27v525h170z" />
    <glyph glyph-name="X" unicode="X" 
d="M30 0v215c0 34 8.83301 63.833 26.5 89.5s41.167 44.167 70.5 55.5c-29.333 10.667 -52.833 28.834 -70.5 54.501s-26.5 55.834 -26.5 90.501v195h170v-240c0 -9.33301 3.16699 -18.333 9.5 -27s16.5 -13 30.5 -13h40c14 0 24.167 4.33301 30.5 13s9.5 17.667 9.5 27v240
h170v-195c0 -34.667 -8.83301 -64.834 -26.5 -90.501s-41.5 -43.834 -71.5 -54.501c30 -11.333 53.833 -29.833 71.5 -55.5s26.5 -55.5 26.5 -89.5v-215h-170v240c0 9.33301 -3.16699 18.333 -9.5 27s-16.5 13 -30.5 13h-40c-14 0 -24.167 -4.33301 -30.5 -13
s-9.5 -17.667 -9.5 -27v-240h-170z" />
    <glyph glyph-name="Y" unicode="Y" 
d="M175 0l0.000976562 240c-20.667 1.33301 -40 6.16602 -58 14.499s-33.333 19.333 -46 33s-22.667 29.667 -30 48s-11 38.166 -11 59.499v305h170v-280c0 -9.33301 3.16699 -18.333 9.5 -27s16.5 -13 30.5 -13h40c14 0 24.167 4.33301 30.5 13s9.5 17.667 9.5 27v280h170
v-305c0 -21.333 -3.66699 -41.166 -11 -59.499s-17.333 -34.333 -30 -48s-27.834 -24.667 -45.501 -33s-37.167 -13.166 -58.5 -14.499v-240h-170z" />
    <glyph glyph-name="Z" unicode="Z" horiz-adv-x="480" 
d="M283 522c8 10 11.999 18.667 11.999 26c0 8 -5 12 -15 12h-235v140h295c17.333 0 33.5 -3.33301 48.5 -10s28.167 -15.667 39.5 -27s20.333 -24.5 27 -39.5s10 -31.167 10 -48.5v-15c0 -4.66699 -0.333008 -11.5 -1 -20.5s-2.33398 -19.167 -5.00098 -30.5
s-7 -23.333 -13 -36s-14.667 -25.334 -26 -38.001l-223 -257c-8 -10 -12 -18.667 -12 -26c0 -8 5 -12 15 -12h270v-140h-330c-17.333 0 -33.5 3.33301 -48.5 10s-28.167 15.667 -39.5 27s-20.333 24.5 -27 39.5s-10 31.167 -10 48.5v15c0 5.33301 0.5 12.333 1.5 21
s3.33301 18.667 7 30s8.83398 23.333 15.501 36s15.334 25.334 26.001 38.001z" />
    <glyph glyph-name="bracketleft" unicode="[" horiz-adv-x="270" 
d="M260 -50v-140h-75c-22 0 -42.5 3.83301 -61.5 11.5s-35.5 18.5 -49.5 32.5s-24.833 30.5 -32.5 49.5s-11.5 39.5 -11.5 61.5v790c0 22 3.83301 42.5 11.5 61.5s18.5 35.5 32.5 49.5s30.5 24.833 49.5 32.5s39.5 11.5 61.5 11.5h75v-140h-20
c-14 0 -24.167 -4.33301 -30.5 -13s-9.5 -17.667 -9.5 -27v-740c0 -9.33301 3.16699 -18.333 9.5 -27s16.5 -13 30.5 -13h20z" />
    <glyph glyph-name="backslash" unicode="\" horiz-adv-x="480" 
d="M280 0v151.999c0 7.33301 -4 16 -12 26l-193 257c-20 27.333 -32.5 52.5 -37.5 75.5s-7.5 39.5 -7.5 49.5v140h180v-152c0 -7.33301 4 -16 12 -26l188 -257c10 -13.333 17.667 -26.5 23 -39.5s9.33301 -25 12 -36s4.16699 -20.667 4.5 -29s0.5 -15.166 0.5 -20.499v-140
h-170z" />
    <glyph glyph-name="bracketright" unicode="]" horiz-adv-x="270" 
d="M30 -50c14 0 24.167 4.33301 30.5 13s9.5 17.667 9.5 27v740c0 9.33301 -3.16699 18.333 -9.5 27s-16.5 13 -30.5 13h-20v140h75c22 0 42.5 -3.83301 61.5 -11.5s35.5 -18.5 49.5 -32.5s24.833 -30.5 32.5 -49.5s11.5 -39.5 11.5 -61.5v-790
c0 -22 -3.83301 -42.5 -11.5 -61.5s-18.5 -35.5 -32.5 -49.5s-30.5 -24.833 -49.5 -32.5s-39.5 -11.5 -61.5 -11.5h-75v140h20z" />
    <glyph glyph-name="asciicircum" unicode="^" horiz-adv-x="480" 
d="M312 424c8 0 13.833 -1.66699 17.5 -5s7.16699 -7.66602 10.5 -12.999l90 -146h-135l-55 73l-55 -73h-135l90 146c3.33301 5.33301 6.83301 9.66602 10.5 12.999s9.5 5 17.5 5h144z" />
    <glyph glyph-name="underscore" unicode="_" horiz-adv-x="540" 
d="M30 -50h480v-130h-480v130z" />
    <glyph glyph-name="grave" unicode="`" horiz-adv-x="332" 
d="M56 873c-7.33301 9.33301 -8.66699 16.167 -4 20.5s8.66699 6.5 12 6.5h118c3.33301 0 7 -0.666992 11 -2s7.33301 -4.33301 10 -9l79 -139h-135z" />
    <glyph glyph-name="a" unicode="a" 
d="M230 380h90v145c0 11.333 -3.16699 20.833 -9.5 28.5s-16.5 11.5 -30.5 11.5h-40c-14 0 -24.167 -4.33301 -30.5 -13s-9.5 -17.667 -9.5 -27v-525h-170v550c0 22 3.83301 42.5 11.5 61.5s18.5 35.5 32.5 49.5s30.5 24.833 49.5 32.5s39.5 11.5 61.5 11.5h150
c22 0 42.5 -3.83301 61.5 -11.5s35.5 -18.5 49.5 -32.5s24.833 -30.5 32.5 -49.5s11.5 -39.5 11.5 -61.5v-550h-170v240h-90v140z" />
    <glyph glyph-name="b" unicode="b" 
d="M200 140h80c14 0 24.167 4.33301 30.5 13s9.5 17.667 9.5 27v60c0 9.33301 -3.16699 18.333 -9.5 27s-16.5 13 -30.5 13h-50v140h40c14 0 24.167 4.33301 30.5 13s9.5 17.667 9.5 27v60c0 9.33301 -3.16699 18.333 -9.5 27s-16.5 13 -30.5 13h-70v-420zM490 155
c0 -22 -3.83301 -42.502 -11.5 -61.502s-18.5 -35.5 -32.5 -49.5s-30.5 -24.833 -49.5 -32.5s-39.5 -11.5 -61.5 -11.5h-305v700h295c22 0 42.5 -3.83301 61.5 -11.5s35.5 -18.5 49.5 -32.5s24.833 -30.5 32.5 -49.5s11.5 -39.5 11.5 -61.5v-60
c0 -30 -6.83301 -56.667 -20.5 -80s-32.167 -41.666 -55.5 -54.999c28 -13.333 49.333 -31.666 64 -54.999s22 -50 22 -80v-60z" />
    <glyph glyph-name="c" unicode="c" horiz-adv-x="480" 
d="M460 140v-140h-275c-22 -0 -42.5 3.83301 -61.5 11.5s-35.5 18.5 -49.5 32.5s-24.833 30.5 -32.5 49.5s-11.5 39.5 -11.5 61.5v390c0 22 3.83301 42.5 11.5 61.5s18.5 35.5 32.5 49.5s30.5 24.833 49.5 32.5s39.5 11.5 61.5 11.5h275v-140h-220
c-14 0 -24.167 -4.33301 -30.5 -13s-9.5 -17.667 -9.5 -27v-340c0 -9.33301 3.16699 -18.333 9.5 -27s16.5 -13 30.5 -13h220z" />
    <glyph glyph-name="d" unicode="d" 
d="M30 0v700h305c22 0 42.5 -3.83301 61.5 -11.5s35.5 -18.5 49.5 -32.5s24.833 -30.5 32.5 -49.5s11.5 -39.5 11.5 -61.5v-390c0 -22 -3.83301 -42.5 -11.5 -61.5s-18.5 -35.5 -32.5 -49.5s-30.5 -24.833 -49.5 -32.5s-39.5 -11.5 -61.5 -11.5h-305zM200 560v-420h80
c14 0 24.167 4.33301 30.5 13s9.5 17.667 9.5 27v340c0 9.33301 -3.16699 18.333 -9.5 27s-16.5 13 -30.5 13h-80z" />
    <glyph glyph-name="e" unicode="e" horiz-adv-x="480" 
d="M460 140v-140h-275c-22 -0 -42.5 3.83301 -61.5 11.5s-35.5 18.5 -49.5 32.5s-24.833 30.5 -32.5 49.5s-11.5 39.5 -11.5 61.5v390c0 22 3.83301 42.5 11.5 61.5s18.5 35.5 32.5 49.5s30.5 24.833 49.5 32.5s39.5 11.5 61.5 11.5h275v-140h-220
c-14 0 -24.167 -4.33301 -30.5 -13s-9.5 -17.667 -9.5 -27v-100h190v-140h-190v-100c0 -9.33301 3.16699 -18.333 9.5 -27s16.5 -13 30.5 -13h220z" />
    <glyph glyph-name="f" unicode="f" horiz-adv-x="470" 
d="M30 0v545c0 22 3.83301 42.5 11.5 61.5s18.5 35.5 32.5 49.5s30.5 24.833 49.5 32.5s39.5 11.5 61.5 11.5h275v-140h-220c-14 0 -24.167 -4.33301 -30.5 -13s-9.5 -17.667 -9.5 -27v-100h190v-140h-190v-280h-170z" />
    <glyph glyph-name="g" unicode="g" horiz-adv-x="510" 
d="M310 360h170v-210c0 -22 -3.83301 -42.5 -11.5 -61.5s-18.5 -35.5 -32.5 -49.5s-30.5 -24.833 -49.5 -32.5s-39.5 -11.5 -61.5 -11.5h-140c-22 0 -42.5 3.83301 -61.5 11.5s-35.5 18.5 -49.5 32.5s-24.833 30.5 -32.5 49.5s-11.5 39.5 -11.5 61.5v395
c0 22 3.83301 42.5 11.5 61.5s18.5 35.5 32.5 49.5s30.5 24.833 49.5 32.5s39.5 11.5 61.5 11.5h275v-140h-220c-14 0 -24.167 -4.33301 -30.5 -13s-9.5 -17.667 -9.5 -27v-345c0 -9.33301 3.16699 -18.333 9.5 -27s16.5 -13 30.5 -13h30c14 0 24.167 4.33301 30.5 13
s9.5 17.667 9.5 27v185z" />
    <glyph glyph-name="h" unicode="h" 
d="M200 700v-280h120v280h170v-700h-170v280h-120v-280h-170v700h170z" />
    <glyph glyph-name="i" unicode="i" horiz-adv-x="230" 
d="M200 700v-700h-170v700h170z" />
    <glyph glyph-name="j" unicode="j" horiz-adv-x="230" 
d="M30 700h170v-680c0 -26.667 -6 -53.167 -18 -79.5s-33 -50.5 -63 -72.5l-79 -58l-90 115l61 48c6.66699 5.33301 11.5 10.5 14.5 15.5s4.5 12.167 4.5 21.5v690z" />
    <glyph glyph-name="k" unicode="k" 
d="M30 0v699.998h170v-280h80c14 0 24.167 4.33301 30.5 13s9.5 17.667 9.5 27v240h170v-215c0 -30 -6.83301 -56.667 -20.5 -80s-32.167 -41.666 -55.5 -54.999c23.333 -13.333 41.833 -31.666 55.5 -54.999s20.5 -50 20.5 -80v-215h-170v240
c0 9.33301 -3.16699 18.333 -9.5 27s-16.5 13 -30.5 13h-80v-280h-170z" />
    <glyph glyph-name="l" unicode="l" horiz-adv-x="470" 
d="M200 700v-520c0 -9.33301 3.16699 -18.333 9.5 -27s16.5 -13 30.5 -13h220v-140h-275c-22 -0 -42.5 3.83301 -61.5 11.5s-35.5 18.5 -49.5 32.5s-24.833 30.5 -32.5 49.5s-11.5 39.5 -11.5 61.5v545h170z" />
    <glyph glyph-name="m" unicode="m" horiz-adv-x="810" 
d="M610 0v525c0 9.33301 -3.16699 18.333 -9.5 27s-16.5 13 -30.5 13h-40c-14 0 -24.167 -3.83301 -30.5 -11.5s-9.5 -17.167 -9.5 -28.5v-525h-170v525c0 11.333 -3.16699 20.833 -9.5 28.5s-16.5 11.5 -30.5 11.5h-40c-14 0 -24.167 -4.33301 -30.5 -13
s-9.5 -17.667 -9.5 -27v-525h-170v550c0 22 3.83301 42.5 11.5 61.5s18.5 35.5 32.5 49.5s30.5 24.833 49.5 32.5s39.5 11.5 61.5 11.5h80c32 0 60.167 -7.83301 84.5 -23.5s42.833 -36.5 55.5 -62.5c12 26 30.333 46.833 55 62.5s53 23.5 85 23.5h80
c22 0 42.5 -3.83301 61.5 -11.5s35.5 -18.5 49.5 -32.5s24.833 -30.5 32.5 -49.5s11.5 -39.5 11.5 -61.5v-550h-170z" />
    <glyph glyph-name="n" unicode="n" 
d="M30 0v550c0 22 3.83301 42.5 11.5 61.5s18.5 35.5 32.5 49.5s30.5 24.833 49.5 32.5s39.5 11.5 61.5 11.5h150c22 0 42.5 -3.83301 61.5 -11.5s35.5 -18.5 49.5 -32.5s24.833 -30.5 32.5 -49.5s11.5 -39.5 11.5 -61.5v-550h-170v525c0 11.333 -3.16699 20.833 -9.5 28.5
s-16.5 11.5 -30.5 11.5h-40c-14 0 -24.167 -4.33301 -30.5 -13s-9.5 -17.667 -9.5 -27v-525h-170z" />
    <glyph glyph-name="o" unicode="o" 
d="M185 -5c-22 0 -42.5 3.83301 -61.5 11.5s-35.5 18.5 -49.5 32.5s-24.833 30.5 -32.5 49.5s-11.5 39.5 -11.5 61.5v400c0 22 3.83301 42.5 11.5 61.5s18.5 35.5 32.5 49.5s30.5 24.833 49.5 32.5s39.5 11.5 61.5 11.5h150c22 0 42.5 -3.83301 61.5 -11.5
s35.5 -18.5 49.5 -32.5s24.833 -30.5 32.5 -49.5s11.5 -39.5 11.5 -61.5v-400c0 -22 -3.83301 -42.5 -11.5 -61.5s-18.5 -35.5 -32.5 -49.5s-30.5 -24.833 -49.5 -32.5s-39.5 -11.5 -61.5 -11.5h-150zM280 135c14 0 24.167 4.33301 30.5 13s9.5 17.667 9.5 27v350
c0 9.33301 -3.16699 18.333 -9.5 27s-16.5 13 -30.5 13h-40c-14 0 -24.167 -4.33301 -30.5 -13s-9.5 -17.667 -9.5 -27v-350c0 -9.33301 3.16699 -18.333 9.5 -27s16.5 -13 30.5 -13h40z" />
    <glyph glyph-name="p" unicode="p" 
d="M230 380h50c14 0 24.167 4.33301 30.5 13s9.5 17.667 9.5 27v100c0 9.33301 -3.16699 18.333 -9.5 27s-16.5 13 -30.5 13h-80v-560h-170v700h305c22 0 42.5 -3.83301 61.5 -11.5s35.5 -18.5 49.5 -32.5s24.833 -30.5 32.5 -49.5s11.5 -39.5 11.5 -61.5v-150
c0 -22 -3.83301 -42.5 -11.5 -61.5s-18.5 -35.5 -32.5 -49.5s-30.5 -24.833 -49.5 -32.5s-39.5 -11.5 -61.5 -11.5h-105v140z" />
    <glyph glyph-name="q" unicode="q" 
d="M30 550c0 22 3.83301 42.4932 11.5 61.4932s18.5 35.5 32.5 49.5s30.5 24.833 49.5 32.5s39.5 11.5 61.5 11.5h150c22 0 42.5 -3.83301 61.5 -11.5s35.5 -18.5 49.5 -32.5s24.833 -30.5 32.5 -49.5s11.5 -39.5 11.5 -61.5v-400c0 -21.333 -3.66699 -41.166 -11 -59.499
s-17.333 -34.166 -30 -47.499s-27.834 -24.166 -45.501 -32.499s-36.834 -13.166 -57.501 -14.499c2.66699 -8 8.66699 -15.667 18 -23l61 -48l-90 -115l-79 58c-25.333 18.667 -44.166 38.834 -56.499 60.501s-20.166 43.834 -23.499 66.501
c-20.667 0.666992 -40 5.16699 -58 13.5s-33.5 19.333 -46.5 33s-23.167 29.834 -30.5 48.501s-11 38.667 -11 60v400zM280 134.993c14 0 24.167 4.33301 30.5 13s9.5 17.667 9.5 27v350c0 9.33301 -3.16699 18.333 -9.5 27s-16.5 13 -30.5 13h-40
c-14 0 -24.167 -4.33301 -30.5 -13s-9.5 -17.667 -9.5 -27v-350c0 -9.33301 3.16699 -18.333 9.5 -27s16.5 -13 30.5 -13h40z" />
    <glyph glyph-name="r" unicode="r" 
d="M30 700l305 -0.00195312c22 0 42.5 -3.83301 61.5 -11.5s35.5 -18.5 49.5 -32.5s24.833 -30.5 32.5 -49.5s11.5 -39.5 11.5 -61.5v-80c0 -30 -6.83301 -56.667 -20.5 -80s-32.167 -41.666 -55.5 -54.999c23.333 -13.333 41.833 -31.666 55.5 -54.999s20.5 -50 20.5 -80
v-195h-170v220c0 9.33301 -3.16699 18.333 -9.5 27s-16.5 13 -30.5 13h-50v140h50c14 0 24.167 4.33301 30.5 13s9.5 17.667 9.5 27v80c0 9.33301 -3.16699 18.333 -9.5 27s-16.5 13 -30.5 13h-80v-560h-170v700z" />
    <glyph glyph-name="s" unicode="s" horiz-adv-x="490" 
d="M295 240c0 17.333 -8.33301 28 -25 32l-120 28c-16.667 4 -32.5 9.66699 -47.5 17s-28.333 16 -40 26s-20.834 21.833 -27.501 35.5s-10 29.167 -10 46.5v120c0 22 3.83301 42.5 11.5 61.5s18.5 35.5 32.5 49.5s30.5 24.833 49.5 32.5s39.5 11.5 61.5 11.5h270v-140h-215
c-14 0 -24.167 -4.33301 -30.5 -13s-9.5 -17.667 -9.5 -27v-40c0 -17.333 8.33301 -28 25 -32l120 -28c16.667 -4 32.5 -9.66699 47.5 -17s28.333 -16 40 -26s20.834 -21.833 27.501 -35.5s10 -29.167 10 -46.5v-140c0 -22 -3.83301 -42.5 -11.5 -61.5
s-18.5 -35.5 -32.5 -49.5s-30.5 -24.833 -49.5 -32.5s-39.5 -11.5 -61.5 -11.5h-285v140h230c14 0 24.167 4.33301 30.5 13s9.5 17.667 9.5 27v60z" />
    <glyph glyph-name="t" unicode="t" horiz-adv-x="480" 
d="M10 560v140h460v-140h-145v-560h-170v560h-145z" />
    <glyph glyph-name="u" unicode="u" 
d="M200 700v-525c0 -9.33301 3.16699 -18.333 9.5 -27s16.5 -13 30.5 -13h40c14 0 24.167 4.33301 30.5 13s9.5 17.667 9.5 27v525h170v-550c0 -22 -3.83301 -42.5 -11.5 -61.5s-18.5 -35.5 -32.5 -49.5s-30.5 -24.833 -49.5 -32.5s-39.5 -11.5 -61.5 -11.5h-150
c-22 0 -42.5 3.83301 -61.5 11.5s-35.5 18.5 -49.5 32.5s-24.833 30.5 -32.5 49.5s-11.5 39.5 -11.5 61.5v550h170z" />
    <glyph glyph-name="v" unicode="v" horiz-adv-x="530" 
d="M269 135c8.66699 0 13.333 4 14 12l62 553h175l-70 -585c-4 -34.667 -15.5 -63.334 -34.5 -86.001s-45.833 -34 -80.5 -34h-140c-34.667 0 -61.5 11.333 -80.5 34s-30.5 51.334 -34.5 86.001l-70 585h175l62 -553c1.33301 -8 6 -12 14 -12h8z" />
    <glyph glyph-name="w" unicode="w" horiz-adv-x="810" 
d="M780 700v-550c0 -22 -3.83301 -42.5 -11.5 -61.5s-18.5 -35.5 -32.5 -49.5s-30.5 -24.833 -49.5 -32.5s-39.5 -11.5 -61.5 -11.5h-80c-32 0 -60.333 7.66699 -85 23s-43 36 -55 62c-12.667 -26 -31.167 -46.667 -55.5 -62s-52.5 -23 -84.5 -23h-80
c-22 0 -42.5 3.83301 -61.5 11.5s-35.5 18.5 -49.5 32.5s-24.833 30.5 -32.5 49.5s-11.5 39.5 -11.5 61.5v550h170v-525c0 -9.33301 3.16699 -18.333 9.5 -27s16.5 -13 30.5 -13h40c14 0 24.167 3.83301 30.5 11.5s9.5 17.167 9.5 28.5v525h170v-525
c0 -11.333 3.16699 -20.833 9.5 -28.5s16.5 -11.5 30.5 -11.5h40c14 0 24.167 4.33301 30.5 13s9.5 17.667 9.5 27v525h170z" />
    <glyph glyph-name="x" unicode="x" 
d="M30 0v215c0 34 8.83301 63.833 26.5 89.5s41.167 44.167 70.5 55.5c-29.333 10.667 -52.833 28.834 -70.5 54.501s-26.5 55.834 -26.5 90.501v195h170v-240c0 -9.33301 3.16699 -18.333 9.5 -27s16.5 -13 30.5 -13h40c14 0 24.167 4.33301 30.5 13s9.5 17.667 9.5 27v240
h170v-195c0 -34.667 -8.83301 -64.834 -26.5 -90.501s-41.5 -43.834 -71.5 -54.501c30 -11.333 53.833 -29.833 71.5 -55.5s26.5 -55.5 26.5 -89.5v-215h-170v240c0 9.33301 -3.16699 18.333 -9.5 27s-16.5 13 -30.5 13h-40c-14 0 -24.167 -4.33301 -30.5 -13
s-9.5 -17.667 -9.5 -27v-240h-170z" />
    <glyph glyph-name="y" unicode="y" 
d="M175 0l0.000976562 240c-20.667 1.33301 -40 6.16602 -58 14.499s-33.333 19.333 -46 33s-22.667 29.667 -30 48s-11 38.166 -11 59.499v305h170v-280c0 -9.33301 3.16699 -18.333 9.5 -27s16.5 -13 30.5 -13h40c14 0 24.167 4.33301 30.5 13s9.5 17.667 9.5 27v280h170
v-305c0 -21.333 -3.66699 -41.166 -11 -59.499s-17.333 -34.333 -30 -48s-27.834 -24.667 -45.501 -33s-37.167 -13.166 -58.5 -14.499v-240h-170z" />
    <glyph glyph-name="z" unicode="z" horiz-adv-x="480" 
d="M283 522c8 10 11.999 18.667 11.999 26c0 8 -5 12 -15 12h-235v140h295c17.333 0 33.5 -3.33301 48.5 -10s28.167 -15.667 39.5 -27s20.333 -24.5 27 -39.5s10 -31.167 10 -48.5v-15c0 -4.66699 -0.333008 -11.5 -1 -20.5s-2.33398 -19.167 -5.00098 -30.5
s-7 -23.333 -13 -36s-14.667 -25.334 -26 -38.001l-223 -257c-8 -10 -12 -18.667 -12 -26c0 -8 5 -12 15 -12h270v-140h-330c-17.333 0 -33.5 3.33301 -48.5 10s-28.167 15.667 -39.5 27s-20.333 24.5 -27 39.5s-10 31.167 -10 48.5v15c0 5.33301 0.5 12.333 1.5 21
s3.33301 18.667 7 30s8.83398 23.333 15.501 36s15.334 25.334 26.001 38.001z" />
    <glyph glyph-name="braceleft" unicode="{" horiz-adv-x="350" 
d="M90 700c0 26.667 6 53.167 18 79.5s33 50.5 63 72.5l79 58l90 -115l-61 -48c-6.66699 -5.33301 -11.5 -10.5 -14.5 -15.5s-4.5 -12.167 -4.5 -21.5v-190c0 -26.667 -6 -53.167 -18 -79.5s-33 -50.5 -63 -72.5l-11 -8l11 -8c30 -22 51 -46.167 63 -72.5
s18 -52.833 18 -79.5v-190c0 -9.33301 1.5 -16.5 4.5 -21.5s7.83301 -10.167 14.5 -15.5l61 -48l-90 -115l-79 58c-30 22 -51 46.167 -63 72.5s-18 52.833 -18 79.5v190c0 9.33301 -1.5 16.5 -4.5 21.5s-7.83301 10.167 -14.5 15.5l-61 48v130l61 48
c6.66699 5.33301 11.5 10.5 14.5 15.5s4.5 12.167 4.5 21.5v190z" />
    <glyph glyph-name="bar" unicode="|" horiz-adv-x="230" 
d="M200 700v-700h-170v700h170z" />
    <glyph glyph-name="braceright" unicode="}" horiz-adv-x="350" 
d="M260 510c0 -9.33301 1.5 -16.5 4.5 -21.5s7.83301 -10.167 14.5 -15.5l61 -48v-130l-61 -48c-6.66699 -5.33301 -11.5 -10.5 -14.5 -15.5s-4.5 -12.167 -4.5 -21.5v-190c0 -26.667 -6 -53.167 -18 -79.5s-33 -50.5 -63 -72.5l-79 -58l-90 115l61 48
c6.66699 5.33301 11.5 10.5 14.5 15.5s4.5 12.167 4.5 21.5v190c0 26.667 6 53.167 18 79.5s33 50.5 63 72.5l11 8l-11 8c-30 22 -51 46.167 -63 72.5s-18 52.833 -18 79.5v190c0 9.33301 -1.5 16.5 -4.5 21.5s-7.83301 10.167 -14.5 15.5l-61 48l90 115l79 -58
c30 -22 51 -46.167 63 -72.5s18 -52.833 18 -79.5v-190z" />
    <glyph glyph-name="asciitilde" unicode="~" horiz-adv-x="455" 
d="M50 290c8 44.667 21.9971 76.667 41.9971 96s41 29 63 29c10 0 20.333 -1.33301 31 -4s21.334 -5.5 32.001 -8.5l31.5 -8.5c10.333 -2.66699 20.5 -4 30.5 -4c11.333 0 20.5 2.16699 27.5 6.5s13.167 10.833 18.5 19.5l79 -26c-8 -46 -21 -79.167 -39 -99.5
s-36.667 -30.5 -56 -30.5c-10.667 0 -21.667 1.33301 -33 4s-22.666 5.5 -33.999 8.5l-33 8.5c-10.667 2.66699 -20.667 4 -30 4c-15.333 0 -26.166 -2.33301 -32.499 -7s-12.5 -11 -18.5 -19z" />
    <glyph glyph-name="exclamdown" unicode="&#xa1;" horiz-adv-x="230" 
d="M30 0v530h170v-530h-170zM30 560v140h170v-140h-170z" />
    <glyph glyph-name="cent" unicode="&#xa2;" horiz-adv-x="490" 
d="M280 -50v50h-95c-22 -0 -42.5 3.83301 -61.5 11.5s-35.5 18.5 -49.5 32.5s-24.833 30.5 -32.5 49.5s-11.5 39.5 -11.5 61.5v390c0 22 3.83301 42.5 11.5 61.5s18.5 35.5 32.5 49.5s30.5 24.833 49.5 32.5s39.5 11.5 61.5 11.5h95v50h70v-50h110v-140h-110v-420h110v-140
h-110v-50h-70zM200 180c0 -9.33301 3.16699 -18.333 9.5 -27s16.5 -13 30.5 -13h40v420h-40c-14 0 -24.167 -4.33301 -30.5 -13s-9.5 -17.667 -9.5 -27v-340z" />
    <glyph glyph-name="sterling" unicode="&#xa3;" horiz-adv-x="540" 
d="M30 130h50v415c0 22 3.83301 42.5 11.5 61.5s18.5 35.5 32.5 49.5s30.5 24.833 49.5 32.5s39.5 11.5 61.5 11.5h275v-140h-220c-14 0 -24.167 -4.33301 -30.5 -13s-9.5 -17.667 -9.5 -27v-100h190v-140h-190v-150h260v-130h-480v130z" />
    <glyph glyph-name="currency" unicode="&#xa4;" horiz-adv-x="418" 
d="M82 249c0 22.667 3.33203 43.6699 9.99902 63.0029s16 36.333 28 51l-63 90l6 8l65 -90c11.333 11.333 23.833 20.166 37.5 26.499s28.5 9.5 44.5 9.5c15.333 0 29.666 -3.16699 42.999 -9.5s25.666 -15.166 36.999 -26.499l64 90l7 -8l-63 -89
c12.667 -14.667 22.5 -31.834 29.5 -51.501s10.5 -40.834 10.5 -63.501s-3.5 -43.834 -10.5 -63.501s-16.5 -36.5 -28.5 -50.5l62 -86l-8 -9l-63 87c-11.333 -11.333 -23.666 -20 -36.999 -26s-27.666 -9 -42.999 -9c-31.333 0 -58.666 11.667 -81.999 35l-62 -87l-7 9
l61 86c-12 14.667 -21.333 31.667 -28 51s-10 40.333 -10 63zM91.999 249.003c0 -20 3.16699 -38.667 9.5 -56s14.833 -32.666 25.5 -45.999s23.167 -23.833 37.5 -31.5s29.5 -11.5 45.5 -11.5s31.167 3.83301 45.5 11.5s26.833 18.167 37.5 31.5s19.167 28.666 25.5 45.999
s9.5 36 9.5 56s-3.16699 38.833 -9.5 56.5s-14.833 33.167 -25.5 46.5s-23.167 23.833 -37.5 31.5s-29.5 11.5 -45.5 11.5s-31.167 -3.83301 -45.5 -11.5s-26.833 -18.167 -37.5 -31.5s-19.167 -28.833 -25.5 -46.5s-9.5 -36.5 -9.5 -56.5z" />
    <glyph glyph-name="yen" unicode="&#xa5;" 
d="M175 0l0.000976562 115h-100v70h100v55c-20.667 1.33301 -40 6.16602 -58 14.499s-33.333 19.333 -46 33s-22.667 29.667 -30 48s-11 38.166 -11 59.499v305h170v-280c0 -9.33301 3.16699 -18.333 9.5 -27s16.5 -13 30.5 -13h40c14 0 24.167 4.33301 30.5 13
s9.5 17.667 9.5 27v280h170v-305c0 -21.333 -3.66699 -41.166 -11 -59.499s-17.333 -34.333 -30 -48s-27.834 -24.667 -45.501 -33s-37.167 -13.166 -58.5 -14.499v-55h100v-70h-100v-115h-170z" />
    <glyph glyph-name="brokenbar" unicode="&#xa6;" horiz-adv-x="230" 
d="M200 700v-300h-170v300h170zM200 300v-300h-170v300h170z" />
    <glyph glyph-name="section" unicode="&#xa7;" horiz-adv-x="500" 
d="M470 25c0 -22 -3.83301 -42.5 -11.5 -61.5s-18.5 -35.5 -32.5 -49.5s-30.5 -24.833 -49.5 -32.5s-39.5 -11.5 -61.5 -11.5h-270v140h215c14 0 24.167 4.33301 30.5 13s9.5 17.667 9.5 27v40c0 17.333 -8.33301 28 -25 32l-120 28c-16.667 4 -32.5 9.66699 -47.5 17
s-28.333 16 -40 26s-20.834 21.833 -27.501 35.5s-10 29.167 -10 46.5v275v5v120c0 22 3.83301 42.5 11.5 61.5s18.5 35.5 32.5 49.5s30.5 24.833 49.5 32.5s39.5 11.5 61.5 11.5h270v-140h-215c-14 0 -24.167 -4.33301 -30.5 -13s-9.5 -17.667 -9.5 -27v-40
c0 -17.333 8.33301 -28 25 -32l120 -28c16.667 -4 32.5 -9.66699 47.5 -17s28.333 -16 40 -26s20.834 -21.833 27.501 -35.5s10 -29.167 10 -46.5v-400zM200 419v-89c0 -17.333 8.33301 -28 25 -32l75 -18v90c0 17.333 -8.33301 28 -25 32z" />
    <glyph glyph-name="dieresis" unicode="&#xa8;" horiz-adv-x="480" 
d="M210 900v-150h-160v150h160zM430 900v-150h-160v150h160z" />
    <glyph glyph-name="copyright" unicode="&#xa9;" horiz-adv-x="570" 
d="M175 200c-44.667 0 -80 13 -106 39s-39 61.333 -39 106v210c0 44.667 13 80 39 106s61.333 39 106 39h220c44.667 0 80 -13 106 -39s39 -61.333 39 -106v-210c0 -44.667 -13 -80 -39 -106s-61.333 -39 -106 -39h-220zM395 224c36 0 65 10.167 87 30.5s33 50.5 33 90.5
v210c0 40 -11 70 -33 90s-51 30 -87 30h-220c-36 0 -65 -10 -87 -30s-33 -50 -33 -90v-210c0 -40 11 -70.167 33 -90.5s51 -30.5 87 -30.5h220zM385 345v-70.001h-137c-22.667 0 -41.334 7.33301 -56.001 22s-22 33 -22 55v195c0 22.667 7.33301 41.334 22 56.001
s33.334 22 56.001 22h137v-70h-110c-7.33301 0 -12.5 -2.16699 -15.5 -6.5s-4.5 -8.83301 -4.5 -13.5v-170c0 -4.66699 1.5 -9.16699 4.5 -13.5s8.16699 -6.5 15.5 -6.5h110z" />
    <glyph glyph-name="ordfeminine" unicode="&#xaa;" horiz-adv-x="290" 
d="M130 540h44.999v72c0 13.333 -6.66699 20 -20 20h-20c-7.33301 0 -12.5 -2.16699 -15.5 -6.5s-4.5 -8.83301 -4.5 -13.5v-262h-85v275c0 22 7.33301 40.333 22 55s33 22 55 22h75c22.667 0 41.334 -7.33301 56.001 -22s22 -33 22 -55v-275h-85v120h-45v70zM29.999 325
h230v-40h-230v40z" />
    <glyph glyph-name="guillemotleft" unicode="&#xab;" horiz-adv-x="495" 
d="M30 424c0 8 1.66699 14 5 18s7.66602 7.33301 12.999 10l187 90v-135l-114 -55l114 -55v-135l-187 90c-5.33301 2.66699 -9.66602 6 -12.999 10s-5 10 -5 18v144zM260 424c0 8 1.66699 14 5 18s7.66602 7.33301 12.999 10l187 90v-135l-114 -55l114 -55v-135l-187 90
c-5.33301 2.66699 -9.66602 6 -12.999 10s-5 10 -5 18v144z" />
    <glyph glyph-name="logicalnot" unicode="&#xac;" horiz-adv-x="540" 
d="M30 415h480v-330h-130v200h-350v130z" />
    <glyph glyph-name="uni00AD" unicode="&#xad;" horiz-adv-x="430" 
d="M50 895h330v-130h-330v130z" />
    <glyph glyph-name="registered" unicode="&#xae;" horiz-adv-x="570" 
d="M175 625l151.999 0.000976562c22.667 0 41.334 -7.33301 56.001 -22s22 -33.334 22 -56.001v-40c0 -15.333 -3.5 -28.666 -10.5 -39.999s-16.167 -20.333 -27.5 -27c11.333 -6.66699 20.5 -15.834 27.5 -27.501s10.5 -25.167 10.5 -40.5v-97h-85v110
c0 4.66699 -1.5 9.16699 -4.5 13.5s-8.16699 6.5 -15.5 6.5h-25v70h25c7.33301 0 12.5 2.16699 15.5 6.5s4.5 8.83301 4.5 13.5v40c0 4.66699 -1.5 9.16699 -4.5 13.5s-8.16699 6.5 -15.5 6.5h-40v-280h-85v350zM174.999 200.001c-44.667 0 -80 13 -106 39
s-39 61.333 -39 106v210c0 44.667 13 80 39 106s61.333 39 106 39h220c44.667 0 80 -13 106 -39s39 -61.333 39 -106v-210c0 -44.667 -13 -80 -39 -106s-61.333 -39 -106 -39h-220zM394.999 224.001c36 0 65 10.167 87 30.5s33 50.5 33 90.5v210c0 40 -11 70 -33 90
s-51 30 -87 30h-220c-36 0 -65 -10 -87 -30s-33 -50 -33 -90v-210c0 -40 11 -70.167 33 -90.5s51 -30.5 87 -30.5h220z" />
    <glyph glyph-name="macron" unicode="&#xaf;" horiz-adv-x="430" 
d="M50 895h330v-130h-330v130z" />
    <glyph glyph-name="degree" unicode="&#xb0;" horiz-adv-x="303" 
d="M111 483c-23.333 0 -42.666 7.83301 -57.999 23.5s-23 35.5 -23 59.5v52c0 24 7.66699 43.667 23 59s34.666 23 57.999 23h81c23.333 0 42.666 -7.66699 57.999 -23s23 -35 23 -59v-52c0 -24 -7.66699 -43.833 -23 -59.5s-34.666 -23.5 -57.999 -23.5h-81zM163 557
c7.33301 0 12.666 2.33301 15.999 7s5 9.33398 5 14.001v27c0 5.33301 -1.66699 10.166 -5 14.499s-8.66602 6.5 -15.999 6.5h-22c-7.33301 0 -12.666 -2.16699 -15.999 -6.5s-5 -9.16602 -5 -14.499v-27c0 -4.66699 1.66699 -9.33398 5 -14.001s8.66602 -7 15.999 -7h22z
" />
    <glyph glyph-name="plusminus" unicode="&#xb1;" horiz-adv-x="390" 
d="M30 415h100v100h130v-100h100v-130h-100v-100h-130v100h-100v130zM30 165h330v-130h-330v130z" />
    <glyph glyph-name="twosuperior" unicode="&#xb2;" horiz-adv-x="275" 
d="M30 487c0 17.333 5.33008 31.001 15.9971 41.001s24.334 17.333 41.001 22l60 14c8.66699 2 13 7.33301 13 16v30c0 4.66699 -1.5 9.16699 -4.5 13.5s-8.16699 6.5 -15.5 6.5h-110v70h137c22.667 0 41.334 -7.33301 56.001 -22s22 -33.334 22 -56.001v-70
c0 -17.333 -6.16699 -31 -18.5 -41s-27.166 -17 -44.499 -21l-55 -14c-8 -2 -12 -7.33301 -12 -16v-40h130v-70h-215v137z" />
    <glyph glyph-name="threesuperior" unicode="&#xb3;" horiz-adv-x="280" 
d="M167 700c22.667 0 41.334 -7.33203 56.001 -21.999s22 -33.334 22 -56.001v-30c0 -15.333 -3.5 -28.666 -10.5 -39.999s-16.167 -20.333 -27.5 -27c14 -6.66699 24.667 -15.834 32 -27.501s11 -25.167 11 -40.5v-30c0 -22 -7.33301 -40.333 -22 -55
s-33.334 -22 -56.001 -22h-142v70h115c7.33301 0 12.5 2.16699 15.5 6.5s4.5 8.83301 4.5 13.5v30c0 4.66699 -1.5 9.16699 -4.5 13.5s-8.16699 6.5 -15.5 6.5h-60v70h55c7.33301 0 12.5 2.16699 15.5 6.5s4.5 8.83301 4.5 13.5v30c0 4.66699 -1.5 9.16699 -4.5 13.5
s-8.16699 6.5 -15.5 6.5h-110v70h137z" />
    <glyph glyph-name="acute" unicode="&#xb4;" horiz-adv-x="332" 
d="M185 750l-135.001 -0.000976562l79 139c2.66699 4.66699 6 7.66699 10 9s7.66699 2 11 2h118c3.33301 0 7.33301 -2.16699 12 -6.5s3.33398 -11.166 -3.99902 -20.499z" />
    <glyph glyph-name="mu" unicode="&#xb5;" 
d="M200 700l0.000976562 -528.997c0.666992 -8.66699 4.16699 -16.834 10.5 -24.501s16.166 -11.5 29.499 -11.5h40c14 0 24.167 4.33301 30.5 13s9.5 17.667 9.5 27v525h170v-550c0 -22 -3.83301 -42.5 -11.5 -61.5s-18.5 -35.5 -32.5 -49.5s-30.5 -24.833 -49.5 -32.5
s-39.5 -11.5 -61.5 -11.5h-137c-3.33301 -22.667 -11 -44.834 -23 -66.501s-30.667 -41.834 -56 -60.501l-79 -58l-90 115l61 48c6.66699 5.33301 11.5 10.5 14.5 15.5s4.5 12.167 4.5 21.5v690h170z" />
    <glyph glyph-name="paragraph" unicode="&#xb6;" horiz-adv-x="470" 
d="M30 545c0 22 3.83301 42.5 11.5 61.5s18.5 35.5 32.5 49.5s30.5 24.833 49.5 32.5s39.5 11.5 61.5 11.5h145v-700h-70v240h-75c-22 0 -42.5 3.83301 -61.5 11.5s-35.5 18.5 -49.5 32.5s-24.833 30.5 -32.5 49.5s-11.5 39.5 -11.5 61.5v150zM440 700v-700h-70v700h70z" />
    <glyph glyph-name="periodcentered" unicode="&#xb7;" horiz-adv-x="250" 
d="M200 340v-140h-150v140h150z" />
    <glyph glyph-name="cedilla" unicode="&#xb8;" horiz-adv-x="294" 
d="M153 -124c0 8 -4.33301 13.332 -13 15.999l-30 9c-18 5.33301 -28.667 13.333 -32 24s-5 25 -5 43v42h80v-34c0 -6.66699 4.33301 -12 13 -16l41 -17c9.33301 -4 17.833 -9.83301 25.5 -17.5s11.5 -18.167 11.5 -31.5v-38c0 -23.333 -7.33301 -40.166 -22 -50.499
s-34 -15.5 -58 -15.5h-114v64h86c7.33301 0 12 1.66699 14 5s3 7.33301 3 12v5z" />
    <glyph glyph-name="onesuperior" unicode="&#xb9;" horiz-adv-x="197" 
d="M82 350v262c0 4.66699 -1.5 9.16699 -4.5 13.5s-8.16699 6.5 -15.5 6.5h-32v70h60c22 0 40.333 -7.33301 55 -22s22 -33 22 -55v-275h-85z" />
    <glyph glyph-name="ordmasculine" unicode="&#xba;" horiz-adv-x="290" 
d="M107 347c-22 0 -40.333 7.33301 -55 22s-22 33.334 -22 56.001v200c0 22 7.33301 40.333 22 55s33 22 55 22h75c22.667 0 41.334 -7.33301 56.001 -22s22 -33 22 -55v-200c0 -22.667 -7.33301 -41.334 -22 -56.001s-33.334 -22 -56.001 -22h-75zM155 417
c7.33301 0 12.5 2.16699 15.5 6.5s4.5 8.83301 4.5 13.5v175c0 4.66699 -1.5 9.16699 -4.5 13.5s-8.16699 6.5 -15.5 6.5h-20c-7.33301 0 -12.5 -2.16699 -15.5 -6.5s-4.5 -8.83301 -4.5 -13.5v-175c0 -4.66699 1.5 -9.16699 4.5 -13.5s8.16699 -6.5 15.5 -6.5h20zM30 325
h230v-40h-230v40z" />
    <glyph glyph-name="guillemotright" unicode="&#xbb;" horiz-adv-x="495" 
d="M235 280c0 -8 -1.66699 -14 -5 -18s-7.66602 -7.33301 -12.999 -10l-187 -90v135l114 55l-114 55v135l187 -90c5.33301 -2.66699 9.66602 -6 12.999 -10s5 -10 5 -18v-144zM465 280c0 -8 -1.66699 -14 -5 -18s-7.66602 -7.33301 -12.999 -10l-187 -90v135l114 55l-114 55
v135l187 -90c5.33301 -2.66699 9.66602 -6 12.999 -10s5 -10 5 -18v-144z" />
    <glyph glyph-name="onequarter" unicode="&#xbc;" horiz-adv-x="735" 
d="M82 350v262c0 4.66699 -1.5 9.16699 -4.5 13.5s-8.16699 6.5 -15.5 6.5h-32v70h60c22 0 40.333 -7.33301 55 -22s22 -33 22 -55v-275h-85zM149 0v78.0029c0 5.33301 1 13.666 3 24.999s7.66699 23.666 17 36.999l329 465c4 5.33301 6 9.66602 6 12.999v82h90v-76
c0 -5.33301 -1.33301 -13.833 -4 -25.5s-9 -24.167 -19 -37.5l-331 -464c-4 -4.66699 -6 -9 -6 -13v-84h-85zM695 350.003l-129 -191.001c-4 -6 -6 -10.333 -6 -13c0 -4 2.33301 -6 7 -6h53v32c0 22.667 7.33301 41.334 22 56.001s33 22 55 22h8v-250h-85v70h-83
c-17.333 0 -32 6 -44 18s-18 26.667 -18 44v8c0 5.33301 1.33301 13.5 4 24.5s8.66699 23.5 18 37.5l99 148h99z" />
    <glyph glyph-name="onehalf" unicode="&#xbd;" horiz-adv-x="735" 
d="M82 350v262c0 4.66699 -1.5 9.16699 -4.5 13.5s-8.16699 6.5 -15.5 6.5h-32v70h60c22 0 40.333 -7.33301 55 -22s22 -33 22 -55v-275h-85zM119 0v78.0029c0 5.33301 1 13.666 3 24.999s7.66699 23.666 17 36.999l329 465c4 5.33301 6 9.66602 6 12.999v82h90v-76
c0 -5.33301 -1.33301 -13.833 -4 -25.5s-9 -24.167 -19 -37.5l-331 -464c-4 -4.66699 -6 -9 -6 -13v-84h-85zM490 137.003c0 17.333 5.33008 31.001 15.9971 41.001s24.334 17.333 41.001 22l60 14c8.66699 2 13 7.33301 13 16v30c0 4.66699 -1.5 9.16699 -4.5 13.5
s-8.16699 6.5 -15.5 6.5h-110v70h137c22.667 0 41.334 -7.33301 56.001 -22s22 -33.334 22 -56.001v-70c0 -17.333 -6.16699 -31 -18.5 -41s-27.166 -17 -44.499 -21l-55 -14c-8 -2 -12 -7.33301 -12 -16v-40h130v-70h-215v137z" />
    <glyph glyph-name="threequarters" unicode="&#xbe;" horiz-adv-x="735" 
d="M179 0v78.0029c0 5.33301 1 13.666 3 24.999s7.66699 23.666 17 36.999l329 465c4 5.33301 6 9.66602 6 12.999v82h90v-76c0 -5.33301 -1.33301 -13.833 -4 -25.5s-9 -24.167 -19 -37.5l-331 -464c-4 -4.66699 -6 -9 -6 -13v-84h-85zM167 700.003
c22.667 0 41.334 -7.33203 56.001 -21.999s22 -33.334 22 -56.001v-30c0 -15.333 -3.5 -28.666 -10.5 -39.999s-16.167 -20.333 -27.5 -27c14 -6.66699 24.667 -15.834 32 -27.501s11 -25.167 11 -40.5v-30c0 -22 -7.33301 -40.333 -22 -55s-33.334 -22 -56.001 -22h-142v70
h115c7.33301 0 12.5 2.16699 15.5 6.5s4.5 8.83301 4.5 13.5v30c0 4.66699 -1.5 9.16699 -4.5 13.5s-8.16699 6.5 -15.5 6.5h-60v70h55c7.33301 0 12.5 2.16699 15.5 6.5s4.5 8.83301 4.5 13.5v30c0 4.66699 -1.5 9.16699 -4.5 13.5s-8.16699 6.5 -15.5 6.5h-110v70h137z
M695 350.004l-129 -191.001c-4 -6 -6 -10.333 -6 -13c0 -4 2.33301 -6 7 -6h53v32c0 22.667 7.33301 41.334 22 56.001s33 22 55 22h8v-250h-85v70h-83c-17.333 0 -32 6 -44 18s-18 26.667 -18 44v8c0 5.33301 1.33301 13.5 4 24.5s8.66699 23.5 18 37.5l99 148h99z" />
    <glyph glyph-name="questiondown" unicode="&#xbf;" horiz-adv-x="470" 
d="M450 425c0 -34.667 -10.668 -62 -32.001 -82s-49 -34.333 -83 -43l-120 -28c-16.667 -4 -25 -14.667 -25 -32v-60c0 -9.33301 3.16699 -18.333 9.5 -27s16.5 -13 30.5 -13h220v-140h-275c-22 -0 -42.5 3.83301 -61.5 11.5s-35.5 18.5 -49.5 32.5s-24.833 30.5 -32.5 49.5
s-11.5 39.5 -11.5 61.5v140c0 17.333 3.33301 32.833 10 46.5s15.834 25.5 27.501 35.5s25 18.667 40 26s30.833 13 47.5 17l110 28c16.667 4 25 14.667 25 32v50h170v-105zM279.999 560v140h170v-140h-170z" />
    <glyph glyph-name="Agrave" unicode="&#xc0;" 
d="M230 380h90v145c0 11.333 -3.16699 20.833 -9.5 28.5s-16.5 11.5 -30.5 11.5h-40c-14 0 -24.167 -4.33301 -30.5 -13s-9.5 -17.667 -9.5 -27v-525h-170v550c0 22 3.83301 42.5 11.5 61.5s18.5 35.5 32.5 49.5s30.5 24.833 49.5 32.5s39.5 11.5 61.5 11.5h150
c22 0 42.5 -3.83301 61.5 -11.5s35.5 -18.5 49.5 -32.5s24.833 -30.5 32.5 -49.5s11.5 -39.5 11.5 -61.5v-550h-170v240h-90v140zM100 873c-7.33301 9.33301 -8.66699 16.167 -4 20.5s8.66699 6.5 12 6.5h118c3.33301 0 7 -0.666992 11 -2s7.33301 -4.33301 10 -9l79 -139
h-135z" />
    <glyph glyph-name="Aacute" unicode="&#xc1;" 
d="M230 380h90v145c0 11.333 -3.16699 20.833 -9.5 28.5s-16.5 11.5 -30.5 11.5h-40c-14 0 -24.167 -4.33301 -30.5 -13s-9.5 -17.667 -9.5 -27v-525h-170v550c0 22 3.83301 42.5 11.5 61.5s18.5 35.5 32.5 49.5s30.5 24.833 49.5 32.5s39.5 11.5 61.5 11.5h150
c22 0 42.5 -3.83301 61.5 -11.5s35.5 -18.5 49.5 -32.5s24.833 -30.5 32.5 -49.5s11.5 -39.5 11.5 -61.5v-550h-170v240h-90v140zM329 750l-135.001 -0.000976562l79 139c2.66699 4.66699 6 7.66699 10 9s7.66699 2 11 2h118c3.33301 0 7.33301 -2.16699 12 -6.5
s3.33398 -11.166 -3.99902 -20.499z" />
    <glyph glyph-name="Acircumflex" unicode="&#xc2;" 
d="M230 380h90v145c0 11.333 -3.16699 20.833 -9.5 28.5s-16.5 11.5 -30.5 11.5h-40c-14 0 -24.167 -4.33301 -30.5 -13s-9.5 -17.667 -9.5 -27v-525h-170v550c0 22 3.83301 42.5 11.5 61.5s18.5 35.5 32.5 49.5s30.5 24.833 49.5 32.5s39.5 11.5 61.5 11.5h150
c22 0 42.5 -3.83301 61.5 -11.5s35.5 -18.5 49.5 -32.5s24.833 -30.5 32.5 -49.5s11.5 -39.5 11.5 -61.5v-550h-170v240h-90v140zM332 914c8 0 13.833 -1.66699 17.5 -5s7.16699 -7.66602 10.5 -12.999l90 -146h-135l-55 73l-55 -73h-135l90 146
c3.33301 5.33301 6.83301 9.66602 10.5 12.999s9.5 5 17.5 5h144z" />
    <glyph glyph-name="Atilde" unicode="&#xc3;" 
d="M230 380h90v145c0 11.333 -3.16699 20.833 -9.5 28.5s-16.5 11.5 -30.5 11.5h-40c-14 0 -24.167 -4.33301 -30.5 -13s-9.5 -17.667 -9.5 -27v-525h-170v550c0 22 3.83301 42.5 11.5 61.5s18.5 35.5 32.5 49.5s30.5 24.833 49.5 32.5s39.5 11.5 61.5 11.5h150
c22 0 42.5 -3.83301 61.5 -11.5s35.5 -18.5 49.5 -32.5s24.833 -30.5 32.5 -49.5s11.5 -39.5 11.5 -61.5v-550h-170v240h-90v140zM83 780c8 44.667 21.9971 76.667 41.9971 96s41 29 63 29c10 0 20.333 -1.33301 31 -4s21.334 -5.5 32.001 -8.5l31.5 -8.5
c10.333 -2.66699 20.5 -4 30.5 -4c11.333 0 20.5 2.16699 27.5 6.5s13.167 10.833 18.5 19.5l79 -26c-8 -46 -21 -79.167 -39 -99.5s-36.667 -30.5 -56 -30.5c-10.667 0 -21.667 1.33301 -33 4s-22.666 5.5 -33.999 8.5l-33 8.5c-10.667 2.66699 -20.667 4 -30 4
c-15.333 0 -26.166 -2.33301 -32.499 -7s-12.5 -11 -18.5 -19z" />
    <glyph glyph-name="Adieresis" unicode="&#xc4;" 
d="M230 380h90v145c0 11.333 -3.16699 20.833 -9.5 28.5s-16.5 11.5 -30.5 11.5h-40c-14 0 -24.167 -4.33301 -30.5 -13s-9.5 -17.667 -9.5 -27v-525h-170v550c0 22 3.83301 42.5 11.5 61.5s18.5 35.5 32.5 49.5s30.5 24.833 49.5 32.5s39.5 11.5 61.5 11.5h150
c22 0 42.5 -3.83301 61.5 -11.5s35.5 -18.5 49.5 -32.5s24.833 -30.5 32.5 -49.5s11.5 -39.5 11.5 -61.5v-550h-170v240h-90v140zM230 900v-150h-160v150h160zM450 900v-150h-160v150h160z" />
    <glyph glyph-name="Aring" unicode="&#xc5;" 
d="M230 380h90v145c0 11.333 -3.16699 20.833 -9.5 28.5s-16.5 11.5 -30.5 11.5h-40c-14 0 -24.167 -4.33301 -30.5 -13s-9.5 -17.667 -9.5 -27v-525h-170v550c0 22 3.83301 42.5 11.5 61.5s18.5 35.5 32.5 49.5s30.5 24.833 49.5 32.5s39.5 11.5 61.5 11.5h150
c22 0 42.5 -3.83301 61.5 -11.5s35.5 -18.5 49.5 -32.5s24.833 -30.5 32.5 -49.5s11.5 -39.5 11.5 -61.5v-550h-170v240h-90v140zM220 750c-23.333 0 -42.666 7.83301 -57.999 23.5s-23 35.5 -23 59.5v52c0 24 7.66699 43.667 23 59s34.666 23 57.999 23h81
c23.333 0 42.666 -7.66699 57.999 -23s23 -35 23 -59v-52c0 -24 -7.66699 -43.833 -23 -59.5s-34.666 -23.5 -57.999 -23.5h-81zM272 824c7.33301 0 12.666 2.33301 15.999 7s5 9.33398 5 14.001v27c0 5.33301 -1.66699 10.166 -5 14.499s-8.66602 6.5 -15.999 6.5h-22
c-7.33301 0 -12.666 -2.16699 -15.999 -6.5s-5 -9.16602 -5 -14.499v-27c0 -4.66699 1.66699 -9.33398 5 -14.001s8.66602 -7 15.999 -7h22z" />
    <glyph glyph-name="AE" unicode="&#xc6;" horiz-adv-x="770" 
d="M750 140v-140h-275c-22 -0 -42.5 3.83301 -61.5 11.5s-35.5 18.5 -49.5 32.5s-24.833 30.5 -32.5 49.5s-11.5 39.5 -11.5 61.5v115h-90v140h90v110c0 11.333 -3.16699 20.833 -9.5 28.5s-16.5 11.5 -30.5 11.5h-40c-14 0 -24.167 -4.33301 -30.5 -13
s-9.5 -17.667 -9.5 -27v-520h-170v545c0 22 3.83301 42.5 11.5 61.5s18.5 35.5 32.5 49.5s30.5 24.833 49.5 32.5s39.5 11.5 61.5 11.5h100c24.667 0 47.334 -4.83301 68.001 -14.5s38 -22.834 52 -39.501c14 16.667 31.167 29.834 51.5 39.501s43.166 14.5 68.499 14.5h225
v-140h-220c-14 0 -24.167 -4.33301 -30.5 -13s-9.5 -17.667 -9.5 -27v-110h190v-140h-190v-90c0 -9.33301 3.16699 -18.333 9.5 -27s16.5 -13 30.5 -13h220z" />
    <glyph glyph-name="Ccedilla" unicode="&#xc7;" horiz-adv-x="480" 
d="M273 -124c0 8 -4.33301 13.332 -13 15.999l-30 9c-18 5.33301 -28.667 13.333 -32 24s-5 25 -5 43v32h-8c-22 0 -42.5 3.83301 -61.5 11.5s-35.5 18.5 -49.5 32.5s-24.833 30.5 -32.5 49.5s-11.5 39.5 -11.5 61.5v390c0 22 3.83301 42.5 11.5 61.5s18.5 35.5 32.5 49.5
s30.5 24.833 49.5 32.5s39.5 11.5 61.5 11.5h275v-140h-220c-14 0 -24.167 -4.33301 -30.5 -13s-9.5 -17.667 -9.5 -27v-340c0 -9.33301 3.16699 -18.333 9.5 -27s16.5 -13 30.5 -13h220v-140h-187v-24c0 -6.66699 4.33301 -12 13 -16l41 -17
c9.33301 -4 17.833 -9.83301 25.5 -17.5s11.5 -18.167 11.5 -31.5v-38c0 -23.333 -7.33301 -40.166 -22 -50.499s-34 -15.5 -58 -15.5h-114v64h86c7.33301 0 12 1.66699 14 5s3 7.33301 3 12v5z" />
    <glyph glyph-name="Egrave" unicode="&#xc8;" horiz-adv-x="480" 
d="M460 140v-140h-275c-22 -0 -42.5 3.83301 -61.5 11.5s-35.5 18.5 -49.5 32.5s-24.833 30.5 -32.5 49.5s-11.5 39.5 -11.5 61.5v390c0 22 3.83301 42.5 11.5 61.5s18.5 35.5 32.5 49.5s30.5 24.833 49.5 32.5s39.5 11.5 61.5 11.5h275v-140h-220
c-14 0 -24.167 -4.33301 -30.5 -13s-9.5 -17.667 -9.5 -27v-100h190v-140h-190v-100c0 -9.33301 3.16699 -18.333 9.5 -27s16.5 -13 30.5 -13h220zM120 873c-7.33301 9.33301 -8.66699 16.167 -4 20.5s8.66699 6.5 12 6.5h118c3.33301 0 7 -0.666992 11 -2
s7.33301 -4.33301 10 -9l79 -139h-135z" />
    <glyph glyph-name="Eacute" unicode="&#xc9;" horiz-adv-x="480" 
d="M460 140v-140h-275c-22 -0 -42.5 3.83301 -61.5 11.5s-35.5 18.5 -49.5 32.5s-24.833 30.5 -32.5 49.5s-11.5 39.5 -11.5 61.5v390c0 22 3.83301 42.5 11.5 61.5s18.5 35.5 32.5 49.5s30.5 24.833 49.5 32.5s39.5 11.5 61.5 11.5h275v-140h-220
c-14 0 -24.167 -4.33301 -30.5 -13s-9.5 -17.667 -9.5 -27v-100h190v-140h-190v-100c0 -9.33301 3.16699 -18.333 9.5 -27s16.5 -13 30.5 -13h220zM329 750l-135.001 -0.000976562l79 139c2.66699 4.66699 6 7.66699 10 9s7.66699 2 11 2h118
c3.33301 0 7.33301 -2.16699 12 -6.5s3.33398 -11.166 -3.99902 -20.499z" />
    <glyph glyph-name="Ecircumflex" unicode="&#xca;" horiz-adv-x="480" 
d="M460 140v-140h-275c-22 -0 -42.5 3.83301 -61.5 11.5s-35.5 18.5 -49.5 32.5s-24.833 30.5 -32.5 49.5s-11.5 39.5 -11.5 61.5v390c0 22 3.83301 42.5 11.5 61.5s18.5 35.5 32.5 49.5s30.5 24.833 49.5 32.5s39.5 11.5 61.5 11.5h275v-140h-220
c-14 0 -24.167 -4.33301 -30.5 -13s-9.5 -17.667 -9.5 -27v-100h190v-140h-190v-100c0 -9.33301 3.16699 -18.333 9.5 -27s16.5 -13 30.5 -13h220zM332 914c8 0 13.833 -1.66699 17.5 -5s7.16699 -7.66602 10.5 -12.999l90 -146h-135l-55 73l-55 -73h-135l90 146
c3.33301 5.33301 6.83301 9.66602 10.5 12.999s9.5 5 17.5 5h144z" />
    <glyph glyph-name="Edieresis" unicode="&#xcb;" horiz-adv-x="480" 
d="M460 140v-140h-275c-22 -0 -42.5 3.83301 -61.5 11.5s-35.5 18.5 -49.5 32.5s-24.833 30.5 -32.5 49.5s-11.5 39.5 -11.5 61.5v390c0 22 3.83301 42.5 11.5 61.5s18.5 35.5 32.5 49.5s30.5 24.833 49.5 32.5s39.5 11.5 61.5 11.5h275v-140h-220
c-14 0 -24.167 -4.33301 -30.5 -13s-9.5 -17.667 -9.5 -27v-100h190v-140h-190v-100c0 -9.33301 3.16699 -18.333 9.5 -27s16.5 -13 30.5 -13h220zM230 900v-150h-160v150h160zM450 900v-150h-160v150h160z" />
    <glyph glyph-name="Igrave" unicode="&#xcc;" horiz-adv-x="230" 
d="M200 700v-700h-170v700h170zM-45 873c-7.33301 9.33301 -8.66699 16.167 -4 20.5s8.66699 6.5 12 6.5h118c3.33301 0 7 -0.666992 11 -2s7.33301 -4.33301 10 -9l79 -139h-135z" />
    <glyph glyph-name="Iacute" unicode="&#xcd;" horiz-adv-x="230" 
d="M200 700v-700h-170v700h170zM184 750l-135.001 -0.000976562l79 139c2.66699 4.66699 6 7.66699 10 9s7.66699 2 11 2h118c3.33301 0 7.33301 -2.16699 12 -6.5s3.33398 -11.166 -3.99902 -20.499z" />
    <glyph glyph-name="Icircumflex" unicode="&#xce;" horiz-adv-x="230" 
d="M200 700v-700h-170v700h170zM187 914c8 0 13.833 -1.66699 17.5 -5s7.16699 -7.66602 10.5 -12.999l90 -146h-135l-55 73l-55 -73h-135l90 146c3.33301 5.33301 6.83301 9.66602 10.5 12.999s9.5 5 17.5 5h144z" />
    <glyph glyph-name="Idieresis" unicode="&#xcf;" horiz-adv-x="230" 
d="M200 700v-700h-170v700h170zM85 900v-150h-160v150h160zM305 900v-150h-160v150h160z" />
    <glyph glyph-name="Eth" unicode="&#xd0;" 
d="M30 0v280h-30v140h30v280h305c22 0 42.5 -3.83301 61.5 -11.5s35.5 -18.5 49.5 -32.5s24.833 -30.5 32.5 -49.5s11.5 -39.5 11.5 -61.5v-390c0 -22 -3.83301 -42.5 -11.5 -61.5s-18.5 -35.5 -32.5 -49.5s-30.5 -24.833 -49.5 -32.5s-39.5 -11.5 -61.5 -11.5h-305z
M200 560v-140h60v-140h-60v-140h80c14 0 24.167 4.33301 30.5 13s9.5 17.667 9.5 27v340c0 9.33301 -3.16699 18.333 -9.5 27s-16.5 13 -30.5 13h-80z" />
    <glyph glyph-name="Ntilde" unicode="&#xd1;" 
d="M30 0v550c0 22 3.83301 42.5 11.5 61.5s18.5 35.5 32.5 49.5s30.5 24.833 49.5 32.5s39.5 11.5 61.5 11.5h150c22 0 42.5 -3.83301 61.5 -11.5s35.5 -18.5 49.5 -32.5s24.833 -30.5 32.5 -49.5s11.5 -39.5 11.5 -61.5v-550h-170v525c0 11.333 -3.16699 20.833 -9.5 28.5
s-16.5 11.5 -30.5 11.5h-40c-14 0 -24.167 -4.33301 -30.5 -13s-9.5 -17.667 -9.5 -27v-525h-170zM83 780c8 44.667 21.9971 76.667 41.9971 96s41 29 63 29c10 0 20.333 -1.33301 31 -4s21.334 -5.5 32.001 -8.5l31.5 -8.5c10.333 -2.66699 20.5 -4 30.5 -4
c11.333 0 20.5 2.16699 27.5 6.5s13.167 10.833 18.5 19.5l79 -26c-8 -46 -21 -79.167 -39 -99.5s-36.667 -30.5 -56 -30.5c-10.667 0 -21.667 1.33301 -33 4s-22.666 5.5 -33.999 8.5l-33 8.5c-10.667 2.66699 -20.667 4 -30 4c-15.333 0 -26.166 -2.33301 -32.499 -7
s-12.5 -11 -18.5 -19z" />
    <glyph glyph-name="Ograve" unicode="&#xd2;" 
d="M185 -5c-22 0 -42.5 3.83301 -61.5 11.5s-35.5 18.5 -49.5 32.5s-24.833 30.5 -32.5 49.5s-11.5 39.5 -11.5 61.5v400c0 22 3.83301 42.5 11.5 61.5s18.5 35.5 32.5 49.5s30.5 24.833 49.5 32.5s39.5 11.5 61.5 11.5h150c22 0 42.5 -3.83301 61.5 -11.5
s35.5 -18.5 49.5 -32.5s24.833 -30.5 32.5 -49.5s11.5 -39.5 11.5 -61.5v-400c0 -22 -3.83301 -42.5 -11.5 -61.5s-18.5 -35.5 -32.5 -49.5s-30.5 -24.833 -49.5 -32.5s-39.5 -11.5 -61.5 -11.5h-150zM280 135c14 0 24.167 4.33301 30.5 13s9.5 17.667 9.5 27v350
c0 9.33301 -3.16699 18.333 -9.5 27s-16.5 13 -30.5 13h-40c-14 0 -24.167 -4.33301 -30.5 -13s-9.5 -17.667 -9.5 -27v-350c0 -9.33301 3.16699 -18.333 9.5 -27s16.5 -13 30.5 -13h40zM100 873c-7.33301 9.33301 -8.66699 16.167 -4 20.5s8.66699 6.5 12 6.5h118
c3.33301 0 7 -0.666992 11 -2s7.33301 -4.33301 10 -9l79 -139h-135z" />
    <glyph glyph-name="Oacute" unicode="&#xd3;" 
d="M185 -5c-22 0 -42.5 3.83301 -61.5 11.5s-35.5 18.5 -49.5 32.5s-24.833 30.5 -32.5 49.5s-11.5 39.5 -11.5 61.5v400c0 22 3.83301 42.5 11.5 61.5s18.5 35.5 32.5 49.5s30.5 24.833 49.5 32.5s39.5 11.5 61.5 11.5h150c22 0 42.5 -3.83301 61.5 -11.5
s35.5 -18.5 49.5 -32.5s24.833 -30.5 32.5 -49.5s11.5 -39.5 11.5 -61.5v-400c0 -22 -3.83301 -42.5 -11.5 -61.5s-18.5 -35.5 -32.5 -49.5s-30.5 -24.833 -49.5 -32.5s-39.5 -11.5 -61.5 -11.5h-150zM280 135c14 0 24.167 4.33301 30.5 13s9.5 17.667 9.5 27v350
c0 9.33301 -3.16699 18.333 -9.5 27s-16.5 13 -30.5 13h-40c-14 0 -24.167 -4.33301 -30.5 -13s-9.5 -17.667 -9.5 -27v-350c0 -9.33301 3.16699 -18.333 9.5 -27s16.5 -13 30.5 -13h40zM329 750l-135.001 -0.000976562l79 139c2.66699 4.66699 6 7.66699 10 9
s7.66699 2 11 2h118c3.33301 0 7.33301 -2.16699 12 -6.5s3.33398 -11.166 -3.99902 -20.499z" />
    <glyph glyph-name="Ocircumflex" unicode="&#xd4;" 
d="M185 -5c-22 0 -42.5 3.83301 -61.5 11.5s-35.5 18.5 -49.5 32.5s-24.833 30.5 -32.5 49.5s-11.5 39.5 -11.5 61.5v400c0 22 3.83301 42.5 11.5 61.5s18.5 35.5 32.5 49.5s30.5 24.833 49.5 32.5s39.5 11.5 61.5 11.5h150c22 0 42.5 -3.83301 61.5 -11.5
s35.5 -18.5 49.5 -32.5s24.833 -30.5 32.5 -49.5s11.5 -39.5 11.5 -61.5v-400c0 -22 -3.83301 -42.5 -11.5 -61.5s-18.5 -35.5 -32.5 -49.5s-30.5 -24.833 -49.5 -32.5s-39.5 -11.5 -61.5 -11.5h-150zM280 135c14 0 24.167 4.33301 30.5 13s9.5 17.667 9.5 27v350
c0 9.33301 -3.16699 18.333 -9.5 27s-16.5 13 -30.5 13h-40c-14 0 -24.167 -4.33301 -30.5 -13s-9.5 -17.667 -9.5 -27v-350c0 -9.33301 3.16699 -18.333 9.5 -27s16.5 -13 30.5 -13h40zM332 914c8 0 13.833 -1.66699 17.5 -5s7.16699 -7.66602 10.5 -12.999l90 -146h-135
l-55 73l-55 -73h-135l90 146c3.33301 5.33301 6.83301 9.66602 10.5 12.999s9.5 5 17.5 5h144z" />
    <glyph glyph-name="Otilde" unicode="&#xd5;" 
d="M185 -5c-22 0 -42.5 3.83301 -61.5 11.5s-35.5 18.5 -49.5 32.5s-24.833 30.5 -32.5 49.5s-11.5 39.5 -11.5 61.5v400c0 22 3.83301 42.5 11.5 61.5s18.5 35.5 32.5 49.5s30.5 24.833 49.5 32.5s39.5 11.5 61.5 11.5h150c22 0 42.5 -3.83301 61.5 -11.5
s35.5 -18.5 49.5 -32.5s24.833 -30.5 32.5 -49.5s11.5 -39.5 11.5 -61.5v-400c0 -22 -3.83301 -42.5 -11.5 -61.5s-18.5 -35.5 -32.5 -49.5s-30.5 -24.833 -49.5 -32.5s-39.5 -11.5 -61.5 -11.5h-150zM280 135c14 0 24.167 4.33301 30.5 13s9.5 17.667 9.5 27v350
c0 9.33301 -3.16699 18.333 -9.5 27s-16.5 13 -30.5 13h-40c-14 0 -24.167 -4.33301 -30.5 -13s-9.5 -17.667 -9.5 -27v-350c0 -9.33301 3.16699 -18.333 9.5 -27s16.5 -13 30.5 -13h40zM83 780c8 44.667 21.9971 76.667 41.9971 96s41 29 63 29c10 0 20.333 -1.33301 31 -4
s21.334 -5.5 32.001 -8.5l31.5 -8.5c10.333 -2.66699 20.5 -4 30.5 -4c11.333 0 20.5 2.16699 27.5 6.5s13.167 10.833 18.5 19.5l79 -26c-8 -46 -21 -79.167 -39 -99.5s-36.667 -30.5 -56 -30.5c-10.667 0 -21.667 1.33301 -33 4s-22.666 5.5 -33.999 8.5l-33 8.5
c-10.667 2.66699 -20.667 4 -30 4c-15.333 0 -26.166 -2.33301 -32.499 -7s-12.5 -11 -18.5 -19z" />
    <glyph glyph-name="Odieresis" unicode="&#xd6;" 
d="M185 -5c-22 0 -42.5 3.83301 -61.5 11.5s-35.5 18.5 -49.5 32.5s-24.833 30.5 -32.5 49.5s-11.5 39.5 -11.5 61.5v400c0 22 3.83301 42.5 11.5 61.5s18.5 35.5 32.5 49.5s30.5 24.833 49.5 32.5s39.5 11.5 61.5 11.5h150c22 0 42.5 -3.83301 61.5 -11.5
s35.5 -18.5 49.5 -32.5s24.833 -30.5 32.5 -49.5s11.5 -39.5 11.5 -61.5v-400c0 -22 -3.83301 -42.5 -11.5 -61.5s-18.5 -35.5 -32.5 -49.5s-30.5 -24.833 -49.5 -32.5s-39.5 -11.5 -61.5 -11.5h-150zM280 135c14 0 24.167 4.33301 30.5 13s9.5 17.667 9.5 27v350
c0 9.33301 -3.16699 18.333 -9.5 27s-16.5 13 -30.5 13h-40c-14 0 -24.167 -4.33301 -30.5 -13s-9.5 -17.667 -9.5 -27v-350c0 -9.33301 3.16699 -18.333 9.5 -27s16.5 -13 30.5 -13h40zM230 900v-150h-160v150h160zM450 900v-150h-160v150h160z" />
    <glyph glyph-name="multiply" unicode="&#xd7;" horiz-adv-x="416" 
d="M30 264l86 86l-86 86l92 92l86 -86l86 86l92 -92l-86 -86l86 -86l-92 -92l-86 86l-86 -86z" />
    <glyph glyph-name="Oslash" unicode="&#xd8;" 
d="M170 -50h-70l18 58c-26.667 12 -48 30.5 -64 55.5s-24 53.833 -24 86.5v400c0 22 3.83301 42.5 11.5 61.5s18.5 35.5 32.5 49.5s30.5 24.833 49.5 32.5s39.5 11.5 61.5 11.5h150h1l14 45h70l-19 -59c27.333 -11.333 49 -29.5 65 -54.5s24 -53.833 24 -86.5v-400
c0 -22 -3.83301 -42.5 -11.5 -61.5s-18.5 -35.5 -32.5 -49.5s-30.5 -24.833 -49.5 -32.5s-39.5 -11.5 -61.5 -11.5h-150h-1zM240 565c-14 0 -24.167 -4.33301 -30.5 -13s-9.5 -17.667 -9.5 -27v-256l92 294c-5.33301 1.33301 -9.33301 2 -12 2h-40zM280 135
c14 0 24.167 4.33301 30.5 13s9.5 17.667 9.5 27v255l-92 -294c2 -0.666992 6 -1 12 -1h40z" />
    <glyph glyph-name="Ugrave" unicode="&#xd9;" 
d="M200 700v-525c0 -9.33301 3.16699 -18.333 9.5 -27s16.5 -13 30.5 -13h40c14 0 24.167 4.33301 30.5 13s9.5 17.667 9.5 27v525h170v-550c0 -22 -3.83301 -42.5 -11.5 -61.5s-18.5 -35.5 -32.5 -49.5s-30.5 -24.833 -49.5 -32.5s-39.5 -11.5 -61.5 -11.5h-150
c-22 0 -42.5 3.83301 -61.5 11.5s-35.5 18.5 -49.5 32.5s-24.833 30.5 -32.5 49.5s-11.5 39.5 -11.5 61.5v550h170zM100 873c-7.33301 9.33301 -8.66699 16.167 -4 20.5s8.66699 6.5 12 6.5h118c3.33301 0 7 -0.666992 11 -2s7.33301 -4.33301 10 -9l79 -139h-135z" />
    <glyph glyph-name="Uacute" unicode="&#xda;" 
d="M200 700v-525c0 -9.33301 3.16699 -18.333 9.5 -27s16.5 -13 30.5 -13h40c14 0 24.167 4.33301 30.5 13s9.5 17.667 9.5 27v525h170v-550c0 -22 -3.83301 -42.5 -11.5 -61.5s-18.5 -35.5 -32.5 -49.5s-30.5 -24.833 -49.5 -32.5s-39.5 -11.5 -61.5 -11.5h-150
c-22 0 -42.5 3.83301 -61.5 11.5s-35.5 18.5 -49.5 32.5s-24.833 30.5 -32.5 49.5s-11.5 39.5 -11.5 61.5v550h170zM329 750l-135.001 -0.000976562l79 139c2.66699 4.66699 6 7.66699 10 9s7.66699 2 11 2h118c3.33301 0 7.33301 -2.16699 12 -6.5
s3.33398 -11.166 -3.99902 -20.499z" />
    <glyph glyph-name="Ucircumflex" unicode="&#xdb;" 
d="M200 700v-525c0 -9.33301 3.16699 -18.333 9.5 -27s16.5 -13 30.5 -13h40c14 0 24.167 4.33301 30.5 13s9.5 17.667 9.5 27v525h170v-550c0 -22 -3.83301 -42.5 -11.5 -61.5s-18.5 -35.5 -32.5 -49.5s-30.5 -24.833 -49.5 -32.5s-39.5 -11.5 -61.5 -11.5h-150
c-22 0 -42.5 3.83301 -61.5 11.5s-35.5 18.5 -49.5 32.5s-24.833 30.5 -32.5 49.5s-11.5 39.5 -11.5 61.5v550h170zM332 914c8 0 13.833 -1.66699 17.5 -5s7.16699 -7.66602 10.5 -12.999l90 -146h-135l-55 73l-55 -73h-135l90 146
c3.33301 5.33301 6.83301 9.66602 10.5 12.999s9.5 5 17.5 5h144z" />
    <glyph glyph-name="Udieresis" unicode="&#xdc;" 
d="M200 700v-525c0 -9.33301 3.16699 -18.333 9.5 -27s16.5 -13 30.5 -13h40c14 0 24.167 4.33301 30.5 13s9.5 17.667 9.5 27v525h170v-550c0 -22 -3.83301 -42.5 -11.5 -61.5s-18.5 -35.5 -32.5 -49.5s-30.5 -24.833 -49.5 -32.5s-39.5 -11.5 -61.5 -11.5h-150
c-22 0 -42.5 3.83301 -61.5 11.5s-35.5 18.5 -49.5 32.5s-24.833 30.5 -32.5 49.5s-11.5 39.5 -11.5 61.5v550h170zM230 900v-150h-160v150h160zM450 900v-150h-160v150h160z" />
    <glyph glyph-name="Yacute" unicode="&#xdd;" 
d="M175 0l0.000976562 240c-20.667 1.33301 -40 6.16602 -58 14.499s-33.333 19.333 -46 33s-22.667 29.667 -30 48s-11 38.166 -11 59.499v305h170v-280c0 -9.33301 3.16699 -18.333 9.5 -27s16.5 -13 30.5 -13h40c14 0 24.167 4.33301 30.5 13s9.5 17.667 9.5 27v280h170
v-305c0 -21.333 -3.66699 -41.166 -11 -59.499s-17.333 -34.333 -30 -48s-27.834 -24.667 -45.501 -33s-37.167 -13.166 -58.5 -14.499v-240h-170zM329.001 750l-135.001 -0.000976562l79 139c2.66699 4.66699 6 7.66699 10 9s7.66699 2 11 2h118
c3.33301 0 7.33301 -2.16699 12 -6.5s3.33398 -11.166 -3.99902 -20.499z" />
    <glyph glyph-name="Thorn" unicode="&#xde;" 
d="M230 260h50c14 0 24.167 4.33301 30.5 13s9.5 17.667 9.5 27v100c0 9.33301 -3.16699 18.333 -9.5 27s-16.5 13 -30.5 13h-80v-440h-170v700h170v-120h135c22 0 42.5 -3.83301 61.5 -11.5s35.5 -18.5 49.5 -32.5s24.833 -30.5 32.5 -49.5s11.5 -39.5 11.5 -61.5v-150
c0 -22 -3.83301 -42.5 -11.5 -61.5s-18.5 -35.5 -32.5 -49.5s-30.5 -24.833 -49.5 -32.5s-39.5 -11.5 -61.5 -11.5h-105v140z" />
    <glyph glyph-name="germandbls" unicode="&#xdf;" 
d="M30 545c0 22 3.83301 42.498 11.5 61.498s18.5 35.5 32.5 49.5s30.5 24.833 49.5 32.5s39.5 11.5 61.5 11.5h140c22 0 42.5 -3.83301 61.5 -11.5s35.5 -18.5 49.5 -32.5s24.833 -30.5 32.5 -49.5s11.5 -39.5 11.5 -61.5v-60c0 -30 -6.83301 -56.667 -20.5 -80
s-32.167 -41.666 -55.5 -54.999c28 -13.333 49.333 -31.666 64 -54.999s22 -50 22 -80v-60c0 -22 -3.83301 -42.5 -11.5 -61.5s-18.5 -35.5 -32.5 -49.5s-30.5 -24.833 -49.5 -32.5s-39.5 -11.5 -61.5 -11.5h-105v140h50c14 0 24.167 4.33301 30.5 13s9.5 17.667 9.5 27v60
c0 9.33301 -3.16699 18.333 -9.5 27s-16.5 13 -30.5 13h-50v140h40c14 0 24.167 4.33301 30.5 13s9.5 17.667 9.5 27v60c0 9.33301 -3.16699 18.333 -9.5 27s-16.5 13 -30.5 13h-30c-14 0 -24.167 -4.33301 -30.5 -13s-9.5 -17.667 -9.5 -27v-720h-170v745z" />
    <glyph glyph-name="agrave" unicode="&#xe0;" 
d="M230 380h90v145c0 11.333 -3.16699 20.833 -9.5 28.5s-16.5 11.5 -30.5 11.5h-40c-14 0 -24.167 -4.33301 -30.5 -13s-9.5 -17.667 -9.5 -27v-525h-170v550c0 22 3.83301 42.5 11.5 61.5s18.5 35.5 32.5 49.5s30.5 24.833 49.5 32.5s39.5 11.5 61.5 11.5h150
c22 0 42.5 -3.83301 61.5 -11.5s35.5 -18.5 49.5 -32.5s24.833 -30.5 32.5 -49.5s11.5 -39.5 11.5 -61.5v-550h-170v240h-90v140zM100 873c-7.33301 9.33301 -8.66699 16.167 -4 20.5s8.66699 6.5 12 6.5h118c3.33301 0 7 -0.666992 11 -2s7.33301 -4.33301 10 -9l79 -139
h-135z" />
    <glyph glyph-name="aacute" unicode="&#xe1;" 
d="M230 380h90v145c0 11.333 -3.16699 20.833 -9.5 28.5s-16.5 11.5 -30.5 11.5h-40c-14 0 -24.167 -4.33301 -30.5 -13s-9.5 -17.667 -9.5 -27v-525h-170v550c0 22 3.83301 42.5 11.5 61.5s18.5 35.5 32.5 49.5s30.5 24.833 49.5 32.5s39.5 11.5 61.5 11.5h150
c22 0 42.5 -3.83301 61.5 -11.5s35.5 -18.5 49.5 -32.5s24.833 -30.5 32.5 -49.5s11.5 -39.5 11.5 -61.5v-550h-170v240h-90v140zM329 750l-135.001 -0.000976562l79 139c2.66699 4.66699 6 7.66699 10 9s7.66699 2 11 2h118c3.33301 0 7.33301 -2.16699 12 -6.5
s3.33398 -11.166 -3.99902 -20.499z" />
    <glyph glyph-name="acircumflex" unicode="&#xe2;" 
d="M230 380h90v145c0 11.333 -3.16699 20.833 -9.5 28.5s-16.5 11.5 -30.5 11.5h-40c-14 0 -24.167 -4.33301 -30.5 -13s-9.5 -17.667 -9.5 -27v-525h-170v550c0 22 3.83301 42.5 11.5 61.5s18.5 35.5 32.5 49.5s30.5 24.833 49.5 32.5s39.5 11.5 61.5 11.5h150
c22 0 42.5 -3.83301 61.5 -11.5s35.5 -18.5 49.5 -32.5s24.833 -30.5 32.5 -49.5s11.5 -39.5 11.5 -61.5v-550h-170v240h-90v140zM332 914c8 0 13.833 -1.66699 17.5 -5s7.16699 -7.66602 10.5 -12.999l90 -146h-135l-55 73l-55 -73h-135l90 146
c3.33301 5.33301 6.83301 9.66602 10.5 12.999s9.5 5 17.5 5h144z" />
    <glyph glyph-name="atilde" unicode="&#xe3;" 
d="M230 380h90v145c0 11.333 -3.16699 20.833 -9.5 28.5s-16.5 11.5 -30.5 11.5h-40c-14 0 -24.167 -4.33301 -30.5 -13s-9.5 -17.667 -9.5 -27v-525h-170v550c0 22 3.83301 42.5 11.5 61.5s18.5 35.5 32.5 49.5s30.5 24.833 49.5 32.5s39.5 11.5 61.5 11.5h150
c22 0 42.5 -3.83301 61.5 -11.5s35.5 -18.5 49.5 -32.5s24.833 -30.5 32.5 -49.5s11.5 -39.5 11.5 -61.5v-550h-170v240h-90v140zM83 780c8 44.667 21.9971 76.667 41.9971 96s41 29 63 29c10 0 20.333 -1.33301 31 -4s21.334 -5.5 32.001 -8.5l31.5 -8.5
c10.333 -2.66699 20.5 -4 30.5 -4c11.333 0 20.5 2.16699 27.5 6.5s13.167 10.833 18.5 19.5l79 -26c-8 -46 -21 -79.167 -39 -99.5s-36.667 -30.5 -56 -30.5c-10.667 0 -21.667 1.33301 -33 4s-22.666 5.5 -33.999 8.5l-33 8.5c-10.667 2.66699 -20.667 4 -30 4
c-15.333 0 -26.166 -2.33301 -32.499 -7s-12.5 -11 -18.5 -19z" />
    <glyph glyph-name="adieresis" unicode="&#xe4;" 
d="M230 380h90v145c0 11.333 -3.16699 20.833 -9.5 28.5s-16.5 11.5 -30.5 11.5h-40c-14 0 -24.167 -4.33301 -30.5 -13s-9.5 -17.667 -9.5 -27v-525h-170v550c0 22 3.83301 42.5 11.5 61.5s18.5 35.5 32.5 49.5s30.5 24.833 49.5 32.5s39.5 11.5 61.5 11.5h150
c22 0 42.5 -3.83301 61.5 -11.5s35.5 -18.5 49.5 -32.5s24.833 -30.5 32.5 -49.5s11.5 -39.5 11.5 -61.5v-550h-170v240h-90v140zM230 900v-150h-160v150h160zM450 900v-150h-160v150h160z" />
    <glyph glyph-name="aring" unicode="&#xe5;" 
d="M230 380h90v145c0 11.333 -3.16699 20.833 -9.5 28.5s-16.5 11.5 -30.5 11.5h-40c-14 0 -24.167 -4.33301 -30.5 -13s-9.5 -17.667 -9.5 -27v-525h-170v550c0 22 3.83301 42.5 11.5 61.5s18.5 35.5 32.5 49.5s30.5 24.833 49.5 32.5s39.5 11.5 61.5 11.5h150
c22 0 42.5 -3.83301 61.5 -11.5s35.5 -18.5 49.5 -32.5s24.833 -30.5 32.5 -49.5s11.5 -39.5 11.5 -61.5v-550h-170v240h-90v140zM220 750c-23.333 0 -42.666 7.83301 -57.999 23.5s-23 35.5 -23 59.5v52c0 24 7.66699 43.667 23 59s34.666 23 57.999 23h81
c23.333 0 42.666 -7.66699 57.999 -23s23 -35 23 -59v-52c0 -24 -7.66699 -43.833 -23 -59.5s-34.666 -23.5 -57.999 -23.5h-81zM272 824c7.33301 0 12.666 2.33301 15.999 7s5 9.33398 5 14.001v27c0 5.33301 -1.66699 10.166 -5 14.499s-8.66602 6.5 -15.999 6.5h-22
c-7.33301 0 -12.666 -2.16699 -15.999 -6.5s-5 -9.16602 -5 -14.499v-27c0 -4.66699 1.66699 -9.33398 5 -14.001s8.66602 -7 15.999 -7h22z" />
    <glyph glyph-name="ae" unicode="&#xe6;" horiz-adv-x="770" 
d="M750 140v-140h-275c-22 -0 -42.5 3.83301 -61.5 11.5s-35.5 18.5 -49.5 32.5s-24.833 30.5 -32.5 49.5s-11.5 39.5 -11.5 61.5v115h-90v140h90v110c0 11.333 -3.16699 20.833 -9.5 28.5s-16.5 11.5 -30.5 11.5h-40c-14 0 -24.167 -4.33301 -30.5 -13
s-9.5 -17.667 -9.5 -27v-520h-170v545c0 22 3.83301 42.5 11.5 61.5s18.5 35.5 32.5 49.5s30.5 24.833 49.5 32.5s39.5 11.5 61.5 11.5h100c24.667 0 47.334 -4.83301 68.001 -14.5s38 -22.834 52 -39.501c14 16.667 31.167 29.834 51.5 39.501s43.166 14.5 68.499 14.5h225
v-140h-220c-14 0 -24.167 -4.33301 -30.5 -13s-9.5 -17.667 -9.5 -27v-110h190v-140h-190v-90c0 -9.33301 3.16699 -18.333 9.5 -27s16.5 -13 30.5 -13h220z" />
    <glyph glyph-name="ccedilla" unicode="&#xe7;" horiz-adv-x="480" 
d="M273 -124c0 8 -4.33301 13.332 -13 15.999l-30 9c-18 5.33301 -28.667 13.333 -32 24s-5 25 -5 43v32h-8c-22 0 -42.5 3.83301 -61.5 11.5s-35.5 18.5 -49.5 32.5s-24.833 30.5 -32.5 49.5s-11.5 39.5 -11.5 61.5v390c0 22 3.83301 42.5 11.5 61.5s18.5 35.5 32.5 49.5
s30.5 24.833 49.5 32.5s39.5 11.5 61.5 11.5h275v-140h-220c-14 0 -24.167 -4.33301 -30.5 -13s-9.5 -17.667 -9.5 -27v-340c0 -9.33301 3.16699 -18.333 9.5 -27s16.5 -13 30.5 -13h220v-140h-187v-24c0 -6.66699 4.33301 -12 13 -16l41 -17
c9.33301 -4 17.833 -9.83301 25.5 -17.5s11.5 -18.167 11.5 -31.5v-38c0 -23.333 -7.33301 -40.166 -22 -50.499s-34 -15.5 -58 -15.5h-114v64h86c7.33301 0 12 1.66699 14 5s3 7.33301 3 12v5z" />
    <glyph glyph-name="egrave" unicode="&#xe8;" horiz-adv-x="480" 
d="M460 140v-140h-275c-22 -0 -42.5 3.83301 -61.5 11.5s-35.5 18.5 -49.5 32.5s-24.833 30.5 -32.5 49.5s-11.5 39.5 -11.5 61.5v390c0 22 3.83301 42.5 11.5 61.5s18.5 35.5 32.5 49.5s30.5 24.833 49.5 32.5s39.5 11.5 61.5 11.5h275v-140h-220
c-14 0 -24.167 -4.33301 -30.5 -13s-9.5 -17.667 -9.5 -27v-100h190v-140h-190v-100c0 -9.33301 3.16699 -18.333 9.5 -27s16.5 -13 30.5 -13h220zM120 873c-7.33301 9.33301 -8.66699 16.167 -4 20.5s8.66699 6.5 12 6.5h118c3.33301 0 7 -0.666992 11 -2
s7.33301 -4.33301 10 -9l79 -139h-135z" />
    <glyph glyph-name="eacute" unicode="&#xe9;" horiz-adv-x="480" 
d="M460 140v-140h-275c-22 -0 -42.5 3.83301 -61.5 11.5s-35.5 18.5 -49.5 32.5s-24.833 30.5 -32.5 49.5s-11.5 39.5 -11.5 61.5v390c0 22 3.83301 42.5 11.5 61.5s18.5 35.5 32.5 49.5s30.5 24.833 49.5 32.5s39.5 11.5 61.5 11.5h275v-140h-220
c-14 0 -24.167 -4.33301 -30.5 -13s-9.5 -17.667 -9.5 -27v-100h190v-140h-190v-100c0 -9.33301 3.16699 -18.333 9.5 -27s16.5 -13 30.5 -13h220zM329 750l-135.001 -0.000976562l79 139c2.66699 4.66699 6 7.66699 10 9s7.66699 2 11 2h118
c3.33301 0 7.33301 -2.16699 12 -6.5s3.33398 -11.166 -3.99902 -20.499z" />
    <glyph glyph-name="ecircumflex" unicode="&#xea;" horiz-adv-x="480" 
d="M460 140v-140h-275c-22 -0 -42.5 3.83301 -61.5 11.5s-35.5 18.5 -49.5 32.5s-24.833 30.5 -32.5 49.5s-11.5 39.5 -11.5 61.5v390c0 22 3.83301 42.5 11.5 61.5s18.5 35.5 32.5 49.5s30.5 24.833 49.5 32.5s39.5 11.5 61.5 11.5h275v-140h-220
c-14 0 -24.167 -4.33301 -30.5 -13s-9.5 -17.667 -9.5 -27v-100h190v-140h-190v-100c0 -9.33301 3.16699 -18.333 9.5 -27s16.5 -13 30.5 -13h220zM332 914c8 0 13.833 -1.66699 17.5 -5s7.16699 -7.66602 10.5 -12.999l90 -146h-135l-55 73l-55 -73h-135l90 146
c3.33301 5.33301 6.83301 9.66602 10.5 12.999s9.5 5 17.5 5h144z" />
    <glyph glyph-name="edieresis" unicode="&#xeb;" horiz-adv-x="480" 
d="M460 140v-140h-275c-22 -0 -42.5 3.83301 -61.5 11.5s-35.5 18.5 -49.5 32.5s-24.833 30.5 -32.5 49.5s-11.5 39.5 -11.5 61.5v390c0 22 3.83301 42.5 11.5 61.5s18.5 35.5 32.5 49.5s30.5 24.833 49.5 32.5s39.5 11.5 61.5 11.5h275v-140h-220
c-14 0 -24.167 -4.33301 -30.5 -13s-9.5 -17.667 -9.5 -27v-100h190v-140h-190v-100c0 -9.33301 3.16699 -18.333 9.5 -27s16.5 -13 30.5 -13h220zM230 900v-150h-160v150h160zM450 900v-150h-160v150h160z" />
    <glyph glyph-name="igrave" unicode="&#xec;" horiz-adv-x="230" 
d="M200 700v-700h-170v700h170zM-45 873c-7.33301 9.33301 -8.66699 16.167 -4 20.5s8.66699 6.5 12 6.5h118c3.33301 0 7 -0.666992 11 -2s7.33301 -4.33301 10 -9l79 -139h-135z" />
    <glyph glyph-name="iacute" unicode="&#xed;" horiz-adv-x="230" 
d="M200 700v-700h-170v700h170zM184 750l-135.001 -0.000976562l79 139c2.66699 4.66699 6 7.66699 10 9s7.66699 2 11 2h118c3.33301 0 7.33301 -2.16699 12 -6.5s3.33398 -11.166 -3.99902 -20.499z" />
    <glyph glyph-name="icircumflex" unicode="&#xee;" horiz-adv-x="230" 
d="M200 700v-700h-170v700h170zM187 914c8 0 13.833 -1.66699 17.5 -5s7.16699 -7.66602 10.5 -12.999l90 -146h-135l-55 73l-55 -73h-135l90 146c3.33301 5.33301 6.83301 9.66602 10.5 12.999s9.5 5 17.5 5h144z" />
    <glyph glyph-name="idieresis" unicode="&#xef;" horiz-adv-x="230" 
d="M200 700v-700h-170v700h170zM85 900v-150h-160v150h160zM305 900v-150h-160v150h160z" />
    <glyph glyph-name="eth" unicode="&#xf0;" 
d="M30 0v280h-30v140h30v280h305c22 0 42.5 -3.83301 61.5 -11.5s35.5 -18.5 49.5 -32.5s24.833 -30.5 32.5 -49.5s11.5 -39.5 11.5 -61.5v-390c0 -22 -3.83301 -42.5 -11.5 -61.5s-18.5 -35.5 -32.5 -49.5s-30.5 -24.833 -49.5 -32.5s-39.5 -11.5 -61.5 -11.5h-305z
M200 560v-140h60v-140h-60v-140h80c14 0 24.167 4.33301 30.5 13s9.5 17.667 9.5 27v340c0 9.33301 -3.16699 18.333 -9.5 27s-16.5 13 -30.5 13h-80z" />
    <glyph glyph-name="ntilde" unicode="&#xf1;" 
d="M30 0v550c0 22 3.83301 42.5 11.5 61.5s18.5 35.5 32.5 49.5s30.5 24.833 49.5 32.5s39.5 11.5 61.5 11.5h150c22 0 42.5 -3.83301 61.5 -11.5s35.5 -18.5 49.5 -32.5s24.833 -30.5 32.5 -49.5s11.5 -39.5 11.5 -61.5v-550h-170v525c0 11.333 -3.16699 20.833 -9.5 28.5
s-16.5 11.5 -30.5 11.5h-40c-14 0 -24.167 -4.33301 -30.5 -13s-9.5 -17.667 -9.5 -27v-525h-170zM83 780c8 44.667 21.9971 76.667 41.9971 96s41 29 63 29c10 0 20.333 -1.33301 31 -4s21.334 -5.5 32.001 -8.5l31.5 -8.5c10.333 -2.66699 20.5 -4 30.5 -4
c11.333 0 20.5 2.16699 27.5 6.5s13.167 10.833 18.5 19.5l79 -26c-8 -46 -21 -79.167 -39 -99.5s-36.667 -30.5 -56 -30.5c-10.667 0 -21.667 1.33301 -33 4s-22.666 5.5 -33.999 8.5l-33 8.5c-10.667 2.66699 -20.667 4 -30 4c-15.333 0 -26.166 -2.33301 -32.499 -7
s-12.5 -11 -18.5 -19z" />
    <glyph glyph-name="ograve" unicode="&#xf2;" 
d="M185 -5c-22 0 -42.5 3.83301 -61.5 11.5s-35.5 18.5 -49.5 32.5s-24.833 30.5 -32.5 49.5s-11.5 39.5 -11.5 61.5v400c0 22 3.83301 42.5 11.5 61.5s18.5 35.5 32.5 49.5s30.5 24.833 49.5 32.5s39.5 11.5 61.5 11.5h150c22 0 42.5 -3.83301 61.5 -11.5
s35.5 -18.5 49.5 -32.5s24.833 -30.5 32.5 -49.5s11.5 -39.5 11.5 -61.5v-400c0 -22 -3.83301 -42.5 -11.5 -61.5s-18.5 -35.5 -32.5 -49.5s-30.5 -24.833 -49.5 -32.5s-39.5 -11.5 -61.5 -11.5h-150zM280 135c14 0 24.167 4.33301 30.5 13s9.5 17.667 9.5 27v350
c0 9.33301 -3.16699 18.333 -9.5 27s-16.5 13 -30.5 13h-40c-14 0 -24.167 -4.33301 -30.5 -13s-9.5 -17.667 -9.5 -27v-350c0 -9.33301 3.16699 -18.333 9.5 -27s16.5 -13 30.5 -13h40zM100 873c-7.33301 9.33301 -8.66699 16.167 -4 20.5s8.66699 6.5 12 6.5h118
c3.33301 0 7 -0.666992 11 -2s7.33301 -4.33301 10 -9l79 -139h-135z" />
    <glyph glyph-name="oacute" unicode="&#xf3;" 
d="M185 -5c-22 0 -42.5 3.83301 -61.5 11.5s-35.5 18.5 -49.5 32.5s-24.833 30.5 -32.5 49.5s-11.5 39.5 -11.5 61.5v400c0 22 3.83301 42.5 11.5 61.5s18.5 35.5 32.5 49.5s30.5 24.833 49.5 32.5s39.5 11.5 61.5 11.5h150c22 0 42.5 -3.83301 61.5 -11.5
s35.5 -18.5 49.5 -32.5s24.833 -30.5 32.5 -49.5s11.5 -39.5 11.5 -61.5v-400c0 -22 -3.83301 -42.5 -11.5 -61.5s-18.5 -35.5 -32.5 -49.5s-30.5 -24.833 -49.5 -32.5s-39.5 -11.5 -61.5 -11.5h-150zM280 135c14 0 24.167 4.33301 30.5 13s9.5 17.667 9.5 27v350
c0 9.33301 -3.16699 18.333 -9.5 27s-16.5 13 -30.5 13h-40c-14 0 -24.167 -4.33301 -30.5 -13s-9.5 -17.667 -9.5 -27v-350c0 -9.33301 3.16699 -18.333 9.5 -27s16.5 -13 30.5 -13h40zM329 750l-135.001 -0.000976562l79 139c2.66699 4.66699 6 7.66699 10 9
s7.66699 2 11 2h118c3.33301 0 7.33301 -2.16699 12 -6.5s3.33398 -11.166 -3.99902 -20.499z" />
    <glyph glyph-name="ocircumflex" unicode="&#xf4;" 
d="M185 -5c-22 0 -42.5 3.83301 -61.5 11.5s-35.5 18.5 -49.5 32.5s-24.833 30.5 -32.5 49.5s-11.5 39.5 -11.5 61.5v400c0 22 3.83301 42.5 11.5 61.5s18.5 35.5 32.5 49.5s30.5 24.833 49.5 32.5s39.5 11.5 61.5 11.5h150c22 0 42.5 -3.83301 61.5 -11.5
s35.5 -18.5 49.5 -32.5s24.833 -30.5 32.5 -49.5s11.5 -39.5 11.5 -61.5v-400c0 -22 -3.83301 -42.5 -11.5 -61.5s-18.5 -35.5 -32.5 -49.5s-30.5 -24.833 -49.5 -32.5s-39.5 -11.5 -61.5 -11.5h-150zM280 135c14 0 24.167 4.33301 30.5 13s9.5 17.667 9.5 27v350
c0 9.33301 -3.16699 18.333 -9.5 27s-16.5 13 -30.5 13h-40c-14 0 -24.167 -4.33301 -30.5 -13s-9.5 -17.667 -9.5 -27v-350c0 -9.33301 3.16699 -18.333 9.5 -27s16.5 -13 30.5 -13h40zM332 914c8 0 13.833 -1.66699 17.5 -5s7.16699 -7.66602 10.5 -12.999l90 -146h-135
l-55 73l-55 -73h-135l90 146c3.33301 5.33301 6.83301 9.66602 10.5 12.999s9.5 5 17.5 5h144z" />
    <glyph glyph-name="otilde" unicode="&#xf5;" 
d="M185 -5c-22 0 -42.5 3.83301 -61.5 11.5s-35.5 18.5 -49.5 32.5s-24.833 30.5 -32.5 49.5s-11.5 39.5 -11.5 61.5v400c0 22 3.83301 42.5 11.5 61.5s18.5 35.5 32.5 49.5s30.5 24.833 49.5 32.5s39.5 11.5 61.5 11.5h150c22 0 42.5 -3.83301 61.5 -11.5
s35.5 -18.5 49.5 -32.5s24.833 -30.5 32.5 -49.5s11.5 -39.5 11.5 -61.5v-400c0 -22 -3.83301 -42.5 -11.5 -61.5s-18.5 -35.5 -32.5 -49.5s-30.5 -24.833 -49.5 -32.5s-39.5 -11.5 -61.5 -11.5h-150zM280 135c14 0 24.167 4.33301 30.5 13s9.5 17.667 9.5 27v350
c0 9.33301 -3.16699 18.333 -9.5 27s-16.5 13 -30.5 13h-40c-14 0 -24.167 -4.33301 -30.5 -13s-9.5 -17.667 -9.5 -27v-350c0 -9.33301 3.16699 -18.333 9.5 -27s16.5 -13 30.5 -13h40zM83 780c8 44.667 21.9971 76.667 41.9971 96s41 29 63 29c10 0 20.333 -1.33301 31 -4
s21.334 -5.5 32.001 -8.5l31.5 -8.5c10.333 -2.66699 20.5 -4 30.5 -4c11.333 0 20.5 2.16699 27.5 6.5s13.167 10.833 18.5 19.5l79 -26c-8 -46 -21 -79.167 -39 -99.5s-36.667 -30.5 -56 -30.5c-10.667 0 -21.667 1.33301 -33 4s-22.666 5.5 -33.999 8.5l-33 8.5
c-10.667 2.66699 -20.667 4 -30 4c-15.333 0 -26.166 -2.33301 -32.499 -7s-12.5 -11 -18.5 -19z" />
    <glyph glyph-name="odieresis" unicode="&#xf6;" 
d="M185 -5c-22 0 -42.5 3.83301 -61.5 11.5s-35.5 18.5 -49.5 32.5s-24.833 30.5 -32.5 49.5s-11.5 39.5 -11.5 61.5v400c0 22 3.83301 42.5 11.5 61.5s18.5 35.5 32.5 49.5s30.5 24.833 49.5 32.5s39.5 11.5 61.5 11.5h150c22 0 42.5 -3.83301 61.5 -11.5
s35.5 -18.5 49.5 -32.5s24.833 -30.5 32.5 -49.5s11.5 -39.5 11.5 -61.5v-400c0 -22 -3.83301 -42.5 -11.5 -61.5s-18.5 -35.5 -32.5 -49.5s-30.5 -24.833 -49.5 -32.5s-39.5 -11.5 -61.5 -11.5h-150zM280 135c14 0 24.167 4.33301 30.5 13s9.5 17.667 9.5 27v350
c0 9.33301 -3.16699 18.333 -9.5 27s-16.5 13 -30.5 13h-40c-14 0 -24.167 -4.33301 -30.5 -13s-9.5 -17.667 -9.5 -27v-350c0 -9.33301 3.16699 -18.333 9.5 -27s16.5 -13 30.5 -13h40zM230 900v-150h-160v150h160zM450 900v-150h-160v150h160z" />
    <glyph glyph-name="divide" unicode="&#xf7;" horiz-adv-x="490" 
d="M30 415h430v-130h-430v130zM325 245v-140h-170v140h170zM325 595v-140h-170v140h170z" />
    <glyph glyph-name="oslash" unicode="&#xf8;" 
d="M170 -50h-70l18 58c-26.667 12 -48 30.5 -64 55.5s-24 53.833 -24 86.5v400c0 22 3.83301 42.5 11.5 61.5s18.5 35.5 32.5 49.5s30.5 24.833 49.5 32.5s39.5 11.5 61.5 11.5h150h1l14 45h70l-19 -59c27.333 -11.333 49 -29.5 65 -54.5s24 -53.833 24 -86.5v-400
c0 -22 -3.83301 -42.5 -11.5 -61.5s-18.5 -35.5 -32.5 -49.5s-30.5 -24.833 -49.5 -32.5s-39.5 -11.5 -61.5 -11.5h-150h-1zM240 565c-14 0 -24.167 -4.33301 -30.5 -13s-9.5 -17.667 -9.5 -27v-256l92 294c-5.33301 1.33301 -9.33301 2 -12 2h-40zM280 135
c14 0 24.167 4.33301 30.5 13s9.5 17.667 9.5 27v255l-92 -294c2 -0.666992 6 -1 12 -1h40z" />
    <glyph glyph-name="ugrave" unicode="&#xf9;" 
d="M200 700v-525c0 -9.33301 3.16699 -18.333 9.5 -27s16.5 -13 30.5 -13h40c14 0 24.167 4.33301 30.5 13s9.5 17.667 9.5 27v525h170v-550c0 -22 -3.83301 -42.5 -11.5 -61.5s-18.5 -35.5 -32.5 -49.5s-30.5 -24.833 -49.5 -32.5s-39.5 -11.5 -61.5 -11.5h-150
c-22 0 -42.5 3.83301 -61.5 11.5s-35.5 18.5 -49.5 32.5s-24.833 30.5 -32.5 49.5s-11.5 39.5 -11.5 61.5v550h170zM100 873c-7.33301 9.33301 -8.66699 16.167 -4 20.5s8.66699 6.5 12 6.5h118c3.33301 0 7 -0.666992 11 -2s7.33301 -4.33301 10 -9l79 -139h-135z" />
    <glyph glyph-name="uacute" unicode="&#xfa;" 
d="M200 700v-525c0 -9.33301 3.16699 -18.333 9.5 -27s16.5 -13 30.5 -13h40c14 0 24.167 4.33301 30.5 13s9.5 17.667 9.5 27v525h170v-550c0 -22 -3.83301 -42.5 -11.5 -61.5s-18.5 -35.5 -32.5 -49.5s-30.5 -24.833 -49.5 -32.5s-39.5 -11.5 -61.5 -11.5h-150
c-22 0 -42.5 3.83301 -61.5 11.5s-35.5 18.5 -49.5 32.5s-24.833 30.5 -32.5 49.5s-11.5 39.5 -11.5 61.5v550h170zM329 750l-135.001 -0.000976562l79 139c2.66699 4.66699 6 7.66699 10 9s7.66699 2 11 2h118c3.33301 0 7.33301 -2.16699 12 -6.5
s3.33398 -11.166 -3.99902 -20.499z" />
    <glyph glyph-name="ucircumflex" unicode="&#xfb;" 
d="M200 700v-525c0 -9.33301 3.16699 -18.333 9.5 -27s16.5 -13 30.5 -13h40c14 0 24.167 4.33301 30.5 13s9.5 17.667 9.5 27v525h170v-550c0 -22 -3.83301 -42.5 -11.5 -61.5s-18.5 -35.5 -32.5 -49.5s-30.5 -24.833 -49.5 -32.5s-39.5 -11.5 -61.5 -11.5h-150
c-22 0 -42.5 3.83301 -61.5 11.5s-35.5 18.5 -49.5 32.5s-24.833 30.5 -32.5 49.5s-11.5 39.5 -11.5 61.5v550h170zM332 914c8 0 13.833 -1.66699 17.5 -5s7.16699 -7.66602 10.5 -12.999l90 -146h-135l-55 73l-55 -73h-135l90 146
c3.33301 5.33301 6.83301 9.66602 10.5 12.999s9.5 5 17.5 5h144z" />
    <glyph glyph-name="udieresis" unicode="&#xfc;" 
d="M200 700v-525c0 -9.33301 3.16699 -18.333 9.5 -27s16.5 -13 30.5 -13h40c14 0 24.167 4.33301 30.5 13s9.5 17.667 9.5 27v525h170v-550c0 -22 -3.83301 -42.5 -11.5 -61.5s-18.5 -35.5 -32.5 -49.5s-30.5 -24.833 -49.5 -32.5s-39.5 -11.5 -61.5 -11.5h-150
c-22 0 -42.5 3.83301 -61.5 11.5s-35.5 18.5 -49.5 32.5s-24.833 30.5 -32.5 49.5s-11.5 39.5 -11.5 61.5v550h170zM230 900v-150h-160v150h160zM450 900v-150h-160v150h160z" />
    <glyph glyph-name="yacute" unicode="&#xfd;" 
d="M175 0l0.000976562 240c-20.667 1.33301 -40 6.16602 -58 14.499s-33.333 19.333 -46 33s-22.667 29.667 -30 48s-11 38.166 -11 59.499v305h170v-280c0 -9.33301 3.16699 -18.333 9.5 -27s16.5 -13 30.5 -13h40c14 0 24.167 4.33301 30.5 13s9.5 17.667 9.5 27v280h170
v-305c0 -21.333 -3.66699 -41.166 -11 -59.499s-17.333 -34.333 -30 -48s-27.834 -24.667 -45.501 -33s-37.167 -13.166 -58.5 -14.499v-240h-170zM329.001 750l-135.001 -0.000976562l79 139c2.66699 4.66699 6 7.66699 10 9s7.66699 2 11 2h118
c3.33301 0 7.33301 -2.16699 12 -6.5s3.33398 -11.166 -3.99902 -20.499z" />
    <glyph glyph-name="thorn" unicode="&#xfe;" 
d="M230 260h50c14 0 24.167 4.33301 30.5 13s9.5 17.667 9.5 27v100c0 9.33301 -3.16699 18.333 -9.5 27s-16.5 13 -30.5 13h-80v-440h-170v700h170v-120h135c22 0 42.5 -3.83301 61.5 -11.5s35.5 -18.5 49.5 -32.5s24.833 -30.5 32.5 -49.5s11.5 -39.5 11.5 -61.5v-150
c0 -22 -3.83301 -42.5 -11.5 -61.5s-18.5 -35.5 -32.5 -49.5s-30.5 -24.833 -49.5 -32.5s-39.5 -11.5 -61.5 -11.5h-105v140z" />
    <glyph glyph-name="ydieresis" unicode="&#xff;" 
d="M175 0l0.000976562 240c-20.667 1.33301 -40 6.16602 -58 14.499s-33.333 19.333 -46 33s-22.667 29.667 -30 48s-11 38.166 -11 59.499v305h170v-280c0 -9.33301 3.16699 -18.333 9.5 -27s16.5 -13 30.5 -13h40c14 0 24.167 4.33301 30.5 13s9.5 17.667 9.5 27v280h170
v-305c0 -21.333 -3.66699 -41.166 -11 -59.499s-17.333 -34.333 -30 -48s-27.834 -24.667 -45.501 -33s-37.167 -13.166 -58.5 -14.499v-240h-170zM230.001 900v-150h-160v150h160zM450.001 900v-150h-160v150h160z" />
    <glyph glyph-name="Amacron" unicode="&#x100;" 
d="M230 380h90v145c0 11.333 -3.16699 20.833 -9.5 28.5s-16.5 11.5 -30.5 11.5h-40c-14 0 -24.167 -4.33301 -30.5 -13s-9.5 -17.667 -9.5 -27v-525h-170v550c0 22 3.83301 42.5 11.5 61.5s18.5 35.5 32.5 49.5s30.5 24.833 49.5 32.5s39.5 11.5 61.5 11.5h150
c22 0 42.5 -3.83301 61.5 -11.5s35.5 -18.5 49.5 -32.5s24.833 -30.5 32.5 -49.5s11.5 -39.5 11.5 -61.5v-550h-170v240h-90v140zM95 895h330v-130h-330v130z" />
    <glyph glyph-name="amacron" unicode="&#x101;" 
d="M230 380h90v145c0 11.333 -3.16699 20.833 -9.5 28.5s-16.5 11.5 -30.5 11.5h-40c-14 0 -24.167 -4.33301 -30.5 -13s-9.5 -17.667 -9.5 -27v-525h-170v550c0 22 3.83301 42.5 11.5 61.5s18.5 35.5 32.5 49.5s30.5 24.833 49.5 32.5s39.5 11.5 61.5 11.5h150
c22 0 42.5 -3.83301 61.5 -11.5s35.5 -18.5 49.5 -32.5s24.833 -30.5 32.5 -49.5s11.5 -39.5 11.5 -61.5v-550h-170v240h-90v140zM95 895h330v-130h-330v130z" />
    <glyph glyph-name="Abreve" unicode="&#x102;" 
d="M230 380h90v145c0 11.333 -3.16699 20.833 -9.5 28.5s-16.5 11.5 -30.5 11.5h-40c-14 0 -24.167 -4.33301 -30.5 -13s-9.5 -17.667 -9.5 -27v-525h-170v550c0 22 3.83301 42.5 11.5 61.5s18.5 35.5 32.5 49.5s30.5 24.833 49.5 32.5s39.5 11.5 61.5 11.5h150
c22 0 42.5 -3.83301 61.5 -11.5s35.5 -18.5 49.5 -32.5s24.833 -30.5 32.5 -49.5s11.5 -39.5 11.5 -61.5v-550h-170v240h-90v140zM213 885v-21c0 -5.33301 1.83301 -11 5.5 -17s10.167 -9 19.5 -9h46c9.33301 0 16 3 20 9s6 11.667 6 17v21h97v-36
c0 -29.333 -9 -53.166 -27 -71.499s-41.667 -27.5 -71 -27.5h-97c-28.667 0 -52.167 9.16699 -70.5 27.5s-27.5 42.166 -27.5 71.499v36h99z" />
    <glyph glyph-name="abreve" unicode="&#x103;" 
d="M230 380h90v145c0 11.333 -3.16699 20.833 -9.5 28.5s-16.5 11.5 -30.5 11.5h-40c-14 0 -24.167 -4.33301 -30.5 -13s-9.5 -17.667 -9.5 -27v-525h-170v550c0 22 3.83301 42.5 11.5 61.5s18.5 35.5 32.5 49.5s30.5 24.833 49.5 32.5s39.5 11.5 61.5 11.5h150
c22 0 42.5 -3.83301 61.5 -11.5s35.5 -18.5 49.5 -32.5s24.833 -30.5 32.5 -49.5s11.5 -39.5 11.5 -61.5v-550h-170v240h-90v140zM213 885v-21c0 -5.33301 1.83301 -11 5.5 -17s10.167 -9 19.5 -9h46c9.33301 0 16 3 20 9s6 11.667 6 17v21h97v-36
c0 -29.333 -9 -53.166 -27 -71.499s-41.667 -27.5 -71 -27.5h-97c-28.667 0 -52.167 9.16699 -70.5 27.5s-27.5 42.166 -27.5 71.499v36h99z" />
    <glyph glyph-name="Aogonek" unicode="&#x104;" 
d="M408 -109c0 -5.33301 2 -9.33105 6 -11.998s7.66699 -4.66699 11 -6l54 -15l-30 -74l-55 15l-34 10c-11.333 3.33301 -21.5 7.66602 -30.5 12.999s-16.167 11.833 -21.5 19.5s-8 17.5 -8 29.5c0 11.333 3.16699 22.666 9.5 33.999s12.5 21.666 18.5 30.999l44 64h-52v240
h-90v140h90v145c0 11.333 -3.16699 20.833 -9.5 28.5s-16.5 11.5 -30.5 11.5h-40c-14 0 -24.167 -4.33301 -30.5 -13s-9.5 -17.667 -9.5 -27v-525h-170v550c0 22 3.83301 42.5 11.5 61.5s18.5 35.5 32.5 49.5s30.5 24.833 49.5 32.5s39.5 11.5 61.5 11.5h150
c22 0 42.5 -3.83301 61.5 -11.5s35.5 -18.5 49.5 -32.5s24.833 -30.5 32.5 -49.5s11.5 -39.5 11.5 -61.5v-550h-29l-29.5 -54c-7 -12.667 -12.167 -22.5 -15.5 -29.5s-5.5 -12.167 -6.5 -15.5s-1.5 -6.66602 -1.5 -9.99902z" />
    <glyph glyph-name="aogonek" unicode="&#x105;" 
d="M408 -109c0 -5.33301 2 -9.33105 6 -11.998s7.66699 -4.66699 11 -6l54 -15l-30 -74l-55 15l-34 10c-11.333 3.33301 -21.5 7.66602 -30.5 12.999s-16.167 11.833 -21.5 19.5s-8 17.5 -8 29.5c0 11.333 3.16699 22.666 9.5 33.999s12.5 21.666 18.5 30.999l44 64h-52v240
h-90v140h90v145c0 11.333 -3.16699 20.833 -9.5 28.5s-16.5 11.5 -30.5 11.5h-40c-14 0 -24.167 -4.33301 -30.5 -13s-9.5 -17.667 -9.5 -27v-525h-170v550c0 22 3.83301 42.5 11.5 61.5s18.5 35.5 32.5 49.5s30.5 24.833 49.5 32.5s39.5 11.5 61.5 11.5h150
c22 0 42.5 -3.83301 61.5 -11.5s35.5 -18.5 49.5 -32.5s24.833 -30.5 32.5 -49.5s11.5 -39.5 11.5 -61.5v-550h-29l-29.5 -54c-7 -12.667 -12.167 -22.5 -15.5 -29.5s-5.5 -12.167 -6.5 -15.5s-1.5 -6.66602 -1.5 -9.99902z" />
    <glyph glyph-name="Cacute" unicode="&#x106;" horiz-adv-x="480" 
d="M460 140v-140h-275c-22 -0 -42.5 3.83301 -61.5 11.5s-35.5 18.5 -49.5 32.5s-24.833 30.5 -32.5 49.5s-11.5 39.5 -11.5 61.5v390c0 22 3.83301 42.5 11.5 61.5s18.5 35.5 32.5 49.5s30.5 24.833 49.5 32.5s39.5 11.5 61.5 11.5h275v-140h-220
c-14 0 -24.167 -4.33301 -30.5 -13s-9.5 -17.667 -9.5 -27v-340c0 -9.33301 3.16699 -18.333 9.5 -27s16.5 -13 30.5 -13h220zM329 750l-135.001 -0.000976562l79 139c2.66699 4.66699 6 7.66699 10 9s7.66699 2 11 2h118c3.33301 0 7.33301 -2.16699 12 -6.5
s3.33398 -11.166 -3.99902 -20.499z" />
    <glyph glyph-name="cacute" unicode="&#x107;" horiz-adv-x="480" 
d="M460 140v-140h-275c-22 -0 -42.5 3.83301 -61.5 11.5s-35.5 18.5 -49.5 32.5s-24.833 30.5 -32.5 49.5s-11.5 39.5 -11.5 61.5v390c0 22 3.83301 42.5 11.5 61.5s18.5 35.5 32.5 49.5s30.5 24.833 49.5 32.5s39.5 11.5 61.5 11.5h275v-140h-220
c-14 0 -24.167 -4.33301 -30.5 -13s-9.5 -17.667 -9.5 -27v-340c0 -9.33301 3.16699 -18.333 9.5 -27s16.5 -13 30.5 -13h220zM329 750l-135.001 -0.000976562l79 139c2.66699 4.66699 6 7.66699 10 9s7.66699 2 11 2h118c3.33301 0 7.33301 -2.16699 12 -6.5
s3.33398 -11.166 -3.99902 -20.499z" />
    <glyph glyph-name="Ccircumflex" unicode="&#x108;" horiz-adv-x="480" 
d="M460 140v-140h-275c-22 -0 -42.5 3.83301 -61.5 11.5s-35.5 18.5 -49.5 32.5s-24.833 30.5 -32.5 49.5s-11.5 39.5 -11.5 61.5v390c0 22 3.83301 42.5 11.5 61.5s18.5 35.5 32.5 49.5s30.5 24.833 49.5 32.5s39.5 11.5 61.5 11.5h275v-140h-220
c-14 0 -24.167 -4.33301 -30.5 -13s-9.5 -17.667 -9.5 -27v-340c0 -9.33301 3.16699 -18.333 9.5 -27s16.5 -13 30.5 -13h220zM332 914c8 0 13.833 -1.66699 17.5 -5s7.16699 -7.66602 10.5 -12.999l90 -146h-135l-55 73l-55 -73h-135l90 146
c3.33301 5.33301 6.83301 9.66602 10.5 12.999s9.5 5 17.5 5h144z" />
    <glyph glyph-name="ccircumflex" unicode="&#x109;" horiz-adv-x="480" 
d="M460 140v-140h-275c-22 -0 -42.5 3.83301 -61.5 11.5s-35.5 18.5 -49.5 32.5s-24.833 30.5 -32.5 49.5s-11.5 39.5 -11.5 61.5v390c0 22 3.83301 42.5 11.5 61.5s18.5 35.5 32.5 49.5s30.5 24.833 49.5 32.5s39.5 11.5 61.5 11.5h275v-140h-220
c-14 0 -24.167 -4.33301 -30.5 -13s-9.5 -17.667 -9.5 -27v-340c0 -9.33301 3.16699 -18.333 9.5 -27s16.5 -13 30.5 -13h220zM332 914c8 0 13.833 -1.66699 17.5 -5s7.16699 -7.66602 10.5 -12.999l90 -146h-135l-55 73l-55 -73h-135l90 146
c3.33301 5.33301 6.83301 9.66602 10.5 12.999s9.5 5 17.5 5h144z" />
    <glyph glyph-name="Cdotaccent" unicode="&#x10a;" horiz-adv-x="480" 
d="M460 140v-140h-275c-22 -0 -42.5 3.83301 -61.5 11.5s-35.5 18.5 -49.5 32.5s-24.833 30.5 -32.5 49.5s-11.5 39.5 -11.5 61.5v390c0 22 3.83301 42.5 11.5 61.5s18.5 35.5 32.5 49.5s30.5 24.833 49.5 32.5s39.5 11.5 61.5 11.5h275v-140h-220
c-14 0 -24.167 -4.33301 -30.5 -13s-9.5 -17.667 -9.5 -27v-340c0 -9.33301 3.16699 -18.333 9.5 -27s16.5 -13 30.5 -13h220zM345 900v-150h-170v150h170z" />
    <glyph glyph-name="cdotaccent" unicode="&#x10b;" horiz-adv-x="480" 
d="M460 140v-140h-275c-22 -0 -42.5 3.83301 -61.5 11.5s-35.5 18.5 -49.5 32.5s-24.833 30.5 -32.5 49.5s-11.5 39.5 -11.5 61.5v390c0 22 3.83301 42.5 11.5 61.5s18.5 35.5 32.5 49.5s30.5 24.833 49.5 32.5s39.5 11.5 61.5 11.5h275v-140h-220
c-14 0 -24.167 -4.33301 -30.5 -13s-9.5 -17.667 -9.5 -27v-340c0 -9.33301 3.16699 -18.333 9.5 -27s16.5 -13 30.5 -13h220zM345 900v-150h-170v150h170z" />
    <glyph glyph-name="Ccaron" unicode="&#x10c;" horiz-adv-x="480" 
d="M460 140v-140h-275c-22 -0 -42.5 3.83301 -61.5 11.5s-35.5 18.5 -49.5 32.5s-24.833 30.5 -32.5 49.5s-11.5 39.5 -11.5 61.5v390c0 22 3.83301 42.5 11.5 61.5s18.5 35.5 32.5 49.5s30.5 24.833 49.5 32.5s39.5 11.5 61.5 11.5h275v-140h-220
c-14 0 -24.167 -4.33301 -30.5 -13s-9.5 -17.667 -9.5 -27v-340c0 -9.33301 3.16699 -18.333 9.5 -27s16.5 -13 30.5 -13h220zM188 750c-8 0 -13.833 1.66699 -17.5 5s-7.16699 7.66602 -10.5 12.999l-90 146h135l55 -73l55 73h135l-90 -146
c-3.33301 -5.33301 -6.83301 -9.66602 -10.5 -12.999s-9.5 -5 -17.5 -5h-144z" />
    <glyph glyph-name="ccaron" unicode="&#x10d;" horiz-adv-x="480" 
d="M460 140v-140h-275c-22 -0 -42.5 3.83301 -61.5 11.5s-35.5 18.5 -49.5 32.5s-24.833 30.5 -32.5 49.5s-11.5 39.5 -11.5 61.5v390c0 22 3.83301 42.5 11.5 61.5s18.5 35.5 32.5 49.5s30.5 24.833 49.5 32.5s39.5 11.5 61.5 11.5h275v-140h-220
c-14 0 -24.167 -4.33301 -30.5 -13s-9.5 -17.667 -9.5 -27v-340c0 -9.33301 3.16699 -18.333 9.5 -27s16.5 -13 30.5 -13h220zM188 750c-8 0 -13.833 1.66699 -17.5 5s-7.16699 7.66602 -10.5 12.999l-90 146h135l55 -73l55 73h135l-90 -146
c-3.33301 -5.33301 -6.83301 -9.66602 -10.5 -12.999s-9.5 -5 -17.5 -5h-144z" />
    <glyph glyph-name="Dcaron" unicode="&#x10e;" 
d="M30 0v700h305c22 0 42.5 -3.83301 61.5 -11.5s35.5 -18.5 49.5 -32.5s24.833 -30.5 32.5 -49.5s11.5 -39.5 11.5 -61.5v-390c0 -22 -3.83301 -42.5 -11.5 -61.5s-18.5 -35.5 -32.5 -49.5s-30.5 -24.833 -49.5 -32.5s-39.5 -11.5 -61.5 -11.5h-305zM200 560v-420h80
c14 0 24.167 4.33301 30.5 13s9.5 17.667 9.5 27v340c0 9.33301 -3.16699 18.333 -9.5 27s-16.5 13 -30.5 13h-80zM178 750c-8 0 -13.833 1.66699 -17.5 5s-7.16699 7.66602 -10.5 12.999l-90 146h135l55 -73l55 73h135l-90 -146
c-3.33301 -5.33301 -6.83301 -9.66602 -10.5 -12.999s-9.5 -5 -17.5 -5h-144z" />
    <glyph glyph-name="dcaron" unicode="&#x10f;" 
d="M30 0v700h305c22 0 42.5 -3.83301 61.5 -11.5s35.5 -18.5 49.5 -32.5s24.833 -30.5 32.5 -49.5s11.5 -39.5 11.5 -61.5v-390c0 -22 -3.83301 -42.5 -11.5 -61.5s-18.5 -35.5 -32.5 -49.5s-30.5 -24.833 -49.5 -32.5s-39.5 -11.5 -61.5 -11.5h-305zM200 560v-420h80
c14 0 24.167 4.33301 30.5 13s9.5 17.667 9.5 27v340c0 9.33301 -3.16699 18.333 -9.5 27s-16.5 13 -30.5 13h-80zM178 750c-8 0 -13.833 1.66699 -17.5 5s-7.16699 7.66602 -10.5 12.999l-90 146h135l55 -73l55 73h135l-90 -146
c-3.33301 -5.33301 -6.83301 -9.66602 -10.5 -12.999s-9.5 -5 -17.5 -5h-144z" />
    <glyph glyph-name="Dcroat" unicode="&#x110;" 
d="M30 0v280h-30v140h30v280h305c22 0 42.5 -3.83301 61.5 -11.5s35.5 -18.5 49.5 -32.5s24.833 -30.5 32.5 -49.5s11.5 -39.5 11.5 -61.5v-390c0 -22 -3.83301 -42.5 -11.5 -61.5s-18.5 -35.5 -32.5 -49.5s-30.5 -24.833 -49.5 -32.5s-39.5 -11.5 -61.5 -11.5h-305z
M200 560v-140h60v-140h-60v-140h80c14 0 24.167 4.33301 30.5 13s9.5 17.667 9.5 27v340c0 9.33301 -3.16699 18.333 -9.5 27s-16.5 13 -30.5 13h-80z" />
    <glyph glyph-name="dcroat" unicode="&#x111;" 
d="M30 0v280h-30v140h30v280h305c22 0 42.5 -3.83301 61.5 -11.5s35.5 -18.5 49.5 -32.5s24.833 -30.5 32.5 -49.5s11.5 -39.5 11.5 -61.5v-390c0 -22 -3.83301 -42.5 -11.5 -61.5s-18.5 -35.5 -32.5 -49.5s-30.5 -24.833 -49.5 -32.5s-39.5 -11.5 -61.5 -11.5h-305z
M200 560v-140h60v-140h-60v-140h80c14 0 24.167 4.33301 30.5 13s9.5 17.667 9.5 27v340c0 9.33301 -3.16699 18.333 -9.5 27s-16.5 13 -30.5 13h-80z" />
    <glyph glyph-name="Emacron" unicode="&#x112;" horiz-adv-x="480" 
d="M460 140v-140h-275c-22 -0 -42.5 3.83301 -61.5 11.5s-35.5 18.5 -49.5 32.5s-24.833 30.5 -32.5 49.5s-11.5 39.5 -11.5 61.5v390c0 22 3.83301 42.5 11.5 61.5s18.5 35.5 32.5 49.5s30.5 24.833 49.5 32.5s39.5 11.5 61.5 11.5h275v-140h-220
c-14 0 -24.167 -4.33301 -30.5 -13s-9.5 -17.667 -9.5 -27v-100h190v-140h-190v-100c0 -9.33301 3.16699 -18.333 9.5 -27s16.5 -13 30.5 -13h220zM95 895h330v-130h-330v130z" />
    <glyph glyph-name="emacron" unicode="&#x113;" horiz-adv-x="480" 
d="M460 140v-140h-275c-22 -0 -42.5 3.83301 -61.5 11.5s-35.5 18.5 -49.5 32.5s-24.833 30.5 -32.5 49.5s-11.5 39.5 -11.5 61.5v390c0 22 3.83301 42.5 11.5 61.5s18.5 35.5 32.5 49.5s30.5 24.833 49.5 32.5s39.5 11.5 61.5 11.5h275v-140h-220
c-14 0 -24.167 -4.33301 -30.5 -13s-9.5 -17.667 -9.5 -27v-100h190v-140h-190v-100c0 -9.33301 3.16699 -18.333 9.5 -27s16.5 -13 30.5 -13h220zM95 895h330v-130h-330v130z" />
    <glyph glyph-name="Ebreve" unicode="&#x114;" horiz-adv-x="480" 
d="M460 140v-140h-275c-22 -0 -42.5 3.83301 -61.5 11.5s-35.5 18.5 -49.5 32.5s-24.833 30.5 -32.5 49.5s-11.5 39.5 -11.5 61.5v390c0 22 3.83301 42.5 11.5 61.5s18.5 35.5 32.5 49.5s30.5 24.833 49.5 32.5s39.5 11.5 61.5 11.5h275v-140h-220
c-14 0 -24.167 -4.33301 -30.5 -13s-9.5 -17.667 -9.5 -27v-100h190v-140h-190v-100c0 -9.33301 3.16699 -18.333 9.5 -27s16.5 -13 30.5 -13h220zM213 885v-21c0 -5.33301 1.83301 -11 5.5 -17s10.167 -9 19.5 -9h46c9.33301 0 16 3 20 9s6 11.667 6 17v21h97v-36
c0 -29.333 -9 -53.166 -27 -71.499s-41.667 -27.5 -71 -27.5h-97c-28.667 0 -52.167 9.16699 -70.5 27.5s-27.5 42.166 -27.5 71.499v36h99z" />
    <glyph glyph-name="ebreve" unicode="&#x115;" horiz-adv-x="480" 
d="M460 140v-140h-275c-22 -0 -42.5 3.83301 -61.5 11.5s-35.5 18.5 -49.5 32.5s-24.833 30.5 -32.5 49.5s-11.5 39.5 -11.5 61.5v390c0 22 3.83301 42.5 11.5 61.5s18.5 35.5 32.5 49.5s30.5 24.833 49.5 32.5s39.5 11.5 61.5 11.5h275v-140h-220
c-14 0 -24.167 -4.33301 -30.5 -13s-9.5 -17.667 -9.5 -27v-100h190v-140h-190v-100c0 -9.33301 3.16699 -18.333 9.5 -27s16.5 -13 30.5 -13h220zM213 885v-21c0 -5.33301 1.83301 -11 5.5 -17s10.167 -9 19.5 -9h46c9.33301 0 16 3 20 9s6 11.667 6 17v21h97v-36
c0 -29.333 -9 -53.166 -27 -71.499s-41.667 -27.5 -71 -27.5h-97c-28.667 0 -52.167 9.16699 -70.5 27.5s-27.5 42.166 -27.5 71.499v36h99z" />
    <glyph glyph-name="Edotaccent" unicode="&#x116;" horiz-adv-x="480" 
d="M460 140v-140h-275c-22 -0 -42.5 3.83301 -61.5 11.5s-35.5 18.5 -49.5 32.5s-24.833 30.5 -32.5 49.5s-11.5 39.5 -11.5 61.5v390c0 22 3.83301 42.5 11.5 61.5s18.5 35.5 32.5 49.5s30.5 24.833 49.5 32.5s39.5 11.5 61.5 11.5h275v-140h-220
c-14 0 -24.167 -4.33301 -30.5 -13s-9.5 -17.667 -9.5 -27v-100h190v-140h-190v-100c0 -9.33301 3.16699 -18.333 9.5 -27s16.5 -13 30.5 -13h220zM345 900v-150h-170v150h170z" />
    <glyph glyph-name="edotaccent" unicode="&#x117;" horiz-adv-x="480" 
d="M460 140v-140h-275c-22 -0 -42.5 3.83301 -61.5 11.5s-35.5 18.5 -49.5 32.5s-24.833 30.5 -32.5 49.5s-11.5 39.5 -11.5 61.5v390c0 22 3.83301 42.5 11.5 61.5s18.5 35.5 32.5 49.5s30.5 24.833 49.5 32.5s39.5 11.5 61.5 11.5h275v-140h-220
c-14 0 -24.167 -4.33301 -30.5 -13s-9.5 -17.667 -9.5 -27v-100h190v-140h-190v-100c0 -9.33301 3.16699 -18.333 9.5 -27s16.5 -13 30.5 -13h220zM345 900v-150h-170v150h170z" />
    <glyph glyph-name="Eogonek" unicode="&#x118;" horiz-adv-x="480" 
d="M460 140v-139.998l-29.5 -54c-7 -12.667 -12.167 -22.5 -15.5 -29.5s-5.5 -12.167 -6.5 -15.5s-1.5 -6.66602 -1.5 -9.99902c0 -5.33301 2 -9.33301 6 -12s7.66699 -4.66699 11 -6l54 -15l-30 -74l-55 15l-34 10c-11.333 3.33301 -21.5 7.66602 -30.5 12.999
s-16.167 11.833 -21.5 19.5s-8 17.5 -8 29.5c0 11.333 3.16699 22.666 9.5 33.999s12.5 21.666 18.5 30.999l44 64h-186c-22 -0 -42.5 3.83301 -61.5 11.5s-35.5 18.5 -49.5 32.5s-24.833 30.5 -32.5 49.5s-11.5 39.5 -11.5 61.5v390c0 22 3.83301 42.5 11.5 61.5
s18.5 35.5 32.5 49.5s30.5 24.833 49.5 32.5s39.5 11.5 61.5 11.5h275v-140h-220c-14 0 -24.167 -4.33301 -30.5 -13s-9.5 -17.667 -9.5 -27v-100h190v-140h-190v-100c0 -9.33301 3.16699 -18.333 9.5 -27s16.5 -13 30.5 -13h220z" />
    <glyph glyph-name="eogonek" unicode="&#x119;" horiz-adv-x="480" 
d="M460 140v-139.998l-29.5 -54c-7 -12.667 -12.167 -22.5 -15.5 -29.5s-5.5 -12.167 -6.5 -15.5s-1.5 -6.66602 -1.5 -9.99902c0 -5.33301 2 -9.33301 6 -12s7.66699 -4.66699 11 -6l54 -15l-30 -74l-55 15l-34 10c-11.333 3.33301 -21.5 7.66602 -30.5 12.999
s-16.167 11.833 -21.5 19.5s-8 17.5 -8 29.5c0 11.333 3.16699 22.666 9.5 33.999s12.5 21.666 18.5 30.999l44 64h-186c-22 -0 -42.5 3.83301 -61.5 11.5s-35.5 18.5 -49.5 32.5s-24.833 30.5 -32.5 49.5s-11.5 39.5 -11.5 61.5v390c0 22 3.83301 42.5 11.5 61.5
s18.5 35.5 32.5 49.5s30.5 24.833 49.5 32.5s39.5 11.5 61.5 11.5h275v-140h-220c-14 0 -24.167 -4.33301 -30.5 -13s-9.5 -17.667 -9.5 -27v-100h190v-140h-190v-100c0 -9.33301 3.16699 -18.333 9.5 -27s16.5 -13 30.5 -13h220z" />
    <glyph glyph-name="Ecaron" unicode="&#x11a;" horiz-adv-x="480" 
d="M460 140v-140h-275c-22 -0 -42.5 3.83301 -61.5 11.5s-35.5 18.5 -49.5 32.5s-24.833 30.5 -32.5 49.5s-11.5 39.5 -11.5 61.5v390c0 22 3.83301 42.5 11.5 61.5s18.5 35.5 32.5 49.5s30.5 24.833 49.5 32.5s39.5 11.5 61.5 11.5h275v-140h-220
c-14 0 -24.167 -4.33301 -30.5 -13s-9.5 -17.667 -9.5 -27v-100h190v-140h-190v-100c0 -9.33301 3.16699 -18.333 9.5 -27s16.5 -13 30.5 -13h220zM188 750c-8 0 -13.833 1.66699 -17.5 5s-7.16699 7.66602 -10.5 12.999l-90 146h135l55 -73l55 73h135l-90 -146
c-3.33301 -5.33301 -6.83301 -9.66602 -10.5 -12.999s-9.5 -5 -17.5 -5h-144z" />
    <glyph glyph-name="ecaron" unicode="&#x11b;" horiz-adv-x="480" 
d="M460 140v-140h-275c-22 -0 -42.5 3.83301 -61.5 11.5s-35.5 18.5 -49.5 32.5s-24.833 30.5 -32.5 49.5s-11.5 39.5 -11.5 61.5v390c0 22 3.83301 42.5 11.5 61.5s18.5 35.5 32.5 49.5s30.5 24.833 49.5 32.5s39.5 11.5 61.5 11.5h275v-140h-220
c-14 0 -24.167 -4.33301 -30.5 -13s-9.5 -17.667 -9.5 -27v-100h190v-140h-190v-100c0 -9.33301 3.16699 -18.333 9.5 -27s16.5 -13 30.5 -13h220zM188 750c-8 0 -13.833 1.66699 -17.5 5s-7.16699 7.66602 -10.5 12.999l-90 146h135l55 -73l55 73h135l-90 -146
c-3.33301 -5.33301 -6.83301 -9.66602 -10.5 -12.999s-9.5 -5 -17.5 -5h-144z" />
    <glyph glyph-name="Gcircumflex" unicode="&#x11c;" horiz-adv-x="510" 
d="M310 360h170v-210c0 -22 -3.83301 -42.5 -11.5 -61.5s-18.5 -35.5 -32.5 -49.5s-30.5 -24.833 -49.5 -32.5s-39.5 -11.5 -61.5 -11.5h-140c-22 0 -42.5 3.83301 -61.5 11.5s-35.5 18.5 -49.5 32.5s-24.833 30.5 -32.5 49.5s-11.5 39.5 -11.5 61.5v395
c0 22 3.83301 42.5 11.5 61.5s18.5 35.5 32.5 49.5s30.5 24.833 49.5 32.5s39.5 11.5 61.5 11.5h275v-140h-220c-14 0 -24.167 -4.33301 -30.5 -13s-9.5 -17.667 -9.5 -27v-345c0 -9.33301 3.16699 -18.333 9.5 -27s16.5 -13 30.5 -13h30c14 0 24.167 4.33301 30.5 13
s9.5 17.667 9.5 27v185zM337 914c8 0 13.833 -1.66699 17.5 -5s7.16699 -7.66602 10.5 -12.999l90 -146h-135l-55 73l-55 -73h-135l90 146c3.33301 5.33301 6.83301 9.66602 10.5 12.999s9.5 5 17.5 5h144z" />
    <glyph glyph-name="gcircumflex" unicode="&#x11d;" horiz-adv-x="510" 
d="M310 360h170v-210c0 -22 -3.83301 -42.5 -11.5 -61.5s-18.5 -35.5 -32.5 -49.5s-30.5 -24.833 -49.5 -32.5s-39.5 -11.5 -61.5 -11.5h-140c-22 0 -42.5 3.83301 -61.5 11.5s-35.5 18.5 -49.5 32.5s-24.833 30.5 -32.5 49.5s-11.5 39.5 -11.5 61.5v395
c0 22 3.83301 42.5 11.5 61.5s18.5 35.5 32.5 49.5s30.5 24.833 49.5 32.5s39.5 11.5 61.5 11.5h275v-140h-220c-14 0 -24.167 -4.33301 -30.5 -13s-9.5 -17.667 -9.5 -27v-345c0 -9.33301 3.16699 -18.333 9.5 -27s16.5 -13 30.5 -13h30c14 0 24.167 4.33301 30.5 13
s9.5 17.667 9.5 27v185zM337 914c8 0 13.833 -1.66699 17.5 -5s7.16699 -7.66602 10.5 -12.999l90 -146h-135l-55 73l-55 -73h-135l90 146c3.33301 5.33301 6.83301 9.66602 10.5 12.999s9.5 5 17.5 5h144z" />
    <glyph glyph-name="Gbreve" unicode="&#x11e;" horiz-adv-x="510" 
d="M310 360h170v-210c0 -22 -3.83301 -42.5 -11.5 -61.5s-18.5 -35.5 -32.5 -49.5s-30.5 -24.833 -49.5 -32.5s-39.5 -11.5 -61.5 -11.5h-140c-22 0 -42.5 3.83301 -61.5 11.5s-35.5 18.5 -49.5 32.5s-24.833 30.5 -32.5 49.5s-11.5 39.5 -11.5 61.5v395
c0 22 3.83301 42.5 11.5 61.5s18.5 35.5 32.5 49.5s30.5 24.833 49.5 32.5s39.5 11.5 61.5 11.5h275v-140h-220c-14 0 -24.167 -4.33301 -30.5 -13s-9.5 -17.667 -9.5 -27v-345c0 -9.33301 3.16699 -18.333 9.5 -27s16.5 -13 30.5 -13h30c14 0 24.167 4.33301 30.5 13
s9.5 17.667 9.5 27v185zM218 885v-21c0 -5.33301 1.83301 -11 5.5 -17s10.167 -9 19.5 -9h46c9.33301 0 16 3 20 9s6 11.667 6 17v21h97v-36c0 -29.333 -9 -53.166 -27 -71.499s-41.667 -27.5 -71 -27.5h-97c-28.667 0 -52.167 9.16699 -70.5 27.5
s-27.5 42.166 -27.5 71.499v36h99z" />
    <glyph glyph-name="gbreve" unicode="&#x11f;" horiz-adv-x="510" 
d="M310 360h170v-210c0 -22 -3.83301 -42.5 -11.5 -61.5s-18.5 -35.5 -32.5 -49.5s-30.5 -24.833 -49.5 -32.5s-39.5 -11.5 -61.5 -11.5h-140c-22 0 -42.5 3.83301 -61.5 11.5s-35.5 18.5 -49.5 32.5s-24.833 30.5 -32.5 49.5s-11.5 39.5 -11.5 61.5v395
c0 22 3.83301 42.5 11.5 61.5s18.5 35.5 32.5 49.5s30.5 24.833 49.5 32.5s39.5 11.5 61.5 11.5h275v-140h-220c-14 0 -24.167 -4.33301 -30.5 -13s-9.5 -17.667 -9.5 -27v-345c0 -9.33301 3.16699 -18.333 9.5 -27s16.5 -13 30.5 -13h30c14 0 24.167 4.33301 30.5 13
s9.5 17.667 9.5 27v185zM218 885v-21c0 -5.33301 1.83301 -11 5.5 -17s10.167 -9 19.5 -9h46c9.33301 0 16 3 20 9s6 11.667 6 17v21h97v-36c0 -29.333 -9 -53.166 -27 -71.499s-41.667 -27.5 -71 -27.5h-97c-28.667 0 -52.167 9.16699 -70.5 27.5
s-27.5 42.166 -27.5 71.499v36h99z" />
    <glyph glyph-name="Gdotaccent" unicode="&#x120;" horiz-adv-x="510" 
d="M310 360h170v-210c0 -22 -3.83301 -42.5 -11.5 -61.5s-18.5 -35.5 -32.5 -49.5s-30.5 -24.833 -49.5 -32.5s-39.5 -11.5 -61.5 -11.5h-140c-22 0 -42.5 3.83301 -61.5 11.5s-35.5 18.5 -49.5 32.5s-24.833 30.5 -32.5 49.5s-11.5 39.5 -11.5 61.5v395
c0 22 3.83301 42.5 11.5 61.5s18.5 35.5 32.5 49.5s30.5 24.833 49.5 32.5s39.5 11.5 61.5 11.5h275v-140h-220c-14 0 -24.167 -4.33301 -30.5 -13s-9.5 -17.667 -9.5 -27v-345c0 -9.33301 3.16699 -18.333 9.5 -27s16.5 -13 30.5 -13h30c14 0 24.167 4.33301 30.5 13
s9.5 17.667 9.5 27v185zM350 900v-150h-170v150h170z" />
    <glyph glyph-name="gdotaccent" unicode="&#x121;" horiz-adv-x="510" 
d="M310 360h170v-210c0 -22 -3.83301 -42.5 -11.5 -61.5s-18.5 -35.5 -32.5 -49.5s-30.5 -24.833 -49.5 -32.5s-39.5 -11.5 -61.5 -11.5h-140c-22 0 -42.5 3.83301 -61.5 11.5s-35.5 18.5 -49.5 32.5s-24.833 30.5 -32.5 49.5s-11.5 39.5 -11.5 61.5v395
c0 22 3.83301 42.5 11.5 61.5s18.5 35.5 32.5 49.5s30.5 24.833 49.5 32.5s39.5 11.5 61.5 11.5h275v-140h-220c-14 0 -24.167 -4.33301 -30.5 -13s-9.5 -17.667 -9.5 -27v-345c0 -9.33301 3.16699 -18.333 9.5 -27s16.5 -13 30.5 -13h30c14 0 24.167 4.33301 30.5 13
s9.5 17.667 9.5 27v185zM350 900v-150h-170v150h170z" />
    <glyph glyph-name="Gcommaaccent" unicode="&#x122;" horiz-adv-x="510" 
d="M310 360h170v-210c0 -22 -3.83301 -42.5 -11.5 -61.5s-18.5 -35.5 -32.5 -49.5s-30.5 -24.833 -49.5 -32.5s-39.5 -11.5 -61.5 -11.5h-140c-22 0 -42.5 3.83301 -61.5 11.5s-35.5 18.5 -49.5 32.5s-24.833 30.5 -32.5 49.5s-11.5 39.5 -11.5 61.5v395
c0 22 3.83301 42.5 11.5 61.5s18.5 35.5 32.5 49.5s30.5 24.833 49.5 32.5s39.5 11.5 61.5 11.5h275v-140h-220c-14 0 -24.167 -4.33301 -30.5 -13s-9.5 -17.667 -9.5 -27v-345c0 -9.33301 3.16699 -18.333 9.5 -27s16.5 -13 30.5 -13h30c14 0 24.167 4.33301 30.5 13
s9.5 17.667 9.5 27v185zM340 -115c0 -44.667 -14.667 -78.333 -44 -101s-66.333 -34 -111 -34h-15v200h170v-65z" />
    <glyph glyph-name="gcommaaccent" unicode="&#x123;" horiz-adv-x="510" 
d="M310 360h170v-210c0 -22 -3.83301 -42.5 -11.5 -61.5s-18.5 -35.5 -32.5 -49.5s-30.5 -24.833 -49.5 -32.5s-39.5 -11.5 -61.5 -11.5h-140c-22 0 -42.5 3.83301 -61.5 11.5s-35.5 18.5 -49.5 32.5s-24.833 30.5 -32.5 49.5s-11.5 39.5 -11.5 61.5v395
c0 22 3.83301 42.5 11.5 61.5s18.5 35.5 32.5 49.5s30.5 24.833 49.5 32.5s39.5 11.5 61.5 11.5h275v-140h-220c-14 0 -24.167 -4.33301 -30.5 -13s-9.5 -17.667 -9.5 -27v-345c0 -9.33301 3.16699 -18.333 9.5 -27s16.5 -13 30.5 -13h30c14 0 24.167 4.33301 30.5 13
s9.5 17.667 9.5 27v185zM340 -115c0 -44.667 -14.667 -78.333 -44 -101s-66.333 -34 -111 -34h-15v200h170v-65z" />
    <glyph glyph-name="Hcircumflex" unicode="&#x124;" 
d="M200 700v-280h120v280h170v-700h-170v280h-120v-280h-170v700h170zM332 914c8 0 13.833 -1.66699 17.5 -5s7.16699 -7.66602 10.5 -12.999l90 -146h-135l-55 73l-55 -73h-135l90 146c3.33301 5.33301 6.83301 9.66602 10.5 12.999s9.5 5 17.5 5h144z" />
    <glyph glyph-name="hcircumflex" unicode="&#x125;" 
d="M200 700v-280h120v280h170v-700h-170v280h-120v-280h-170v700h170zM332 914c8 0 13.833 -1.66699 17.5 -5s7.16699 -7.66602 10.5 -12.999l90 -146h-135l-55 73l-55 -73h-135l90 146c3.33301 5.33301 6.83301 9.66602 10.5 12.999s9.5 5 17.5 5h144z" />
    <glyph glyph-name="Hbar" unicode="&#x126;" 
d="M0 620h30v80h170v-80h120v80h170v-80h30v-140h-30v-480h-170v280h-120v-280h-170v480h-30v140zM200 420h120v60h-120v-60z" />
    <glyph glyph-name="hbar" unicode="&#x127;" 
d="M0 620h30v80h170v-80h120v80h170v-80h30v-140h-30v-480h-170v280h-120v-280h-170v480h-30v140zM200 420h120v60h-120v-60z" />
    <glyph glyph-name="Itilde" unicode="&#x128;" horiz-adv-x="230" 
d="M202 700v-700h-170v700h170zM-62 780c8 44.667 21.9971 76.667 41.9971 96s41 29 63 29c10 0 20.333 -1.33301 31 -4s21.334 -5.5 32.001 -8.5l31.5 -8.5c10.333 -2.66699 20.5 -4 30.5 -4c11.333 0 20.5 2.16699 27.5 6.5s13.167 10.833 18.5 19.5l79 -26
c-8 -46 -21 -79.167 -39 -99.5s-36.667 -30.5 -56 -30.5c-10.667 0 -21.667 1.33301 -33 4s-22.666 5.5 -33.999 8.5l-33 8.5c-10.667 2.66699 -20.667 4 -30 4c-15.333 0 -26.166 -2.33301 -32.499 -7s-12.5 -11 -18.5 -19z" />
    <glyph glyph-name="itilde" unicode="&#x129;" horiz-adv-x="230" 
d="M202 700v-700h-170v700h170zM-62 780c8 44.667 21.9971 76.667 41.9971 96s41 29 63 29c10 0 20.333 -1.33301 31 -4s21.334 -5.5 32.001 -8.5l31.5 -8.5c10.333 -2.66699 20.5 -4 30.5 -4c11.333 0 20.5 2.16699 27.5 6.5s13.167 10.833 18.5 19.5l79 -26
c-8 -46 -21 -79.167 -39 -99.5s-36.667 -30.5 -56 -30.5c-10.667 0 -21.667 1.33301 -33 4s-22.666 5.5 -33.999 8.5l-33 8.5c-10.667 2.66699 -20.667 4 -30 4c-15.333 0 -26.166 -2.33301 -32.499 -7s-12.5 -11 -18.5 -19z" />
    <glyph glyph-name="Imacron" unicode="&#x12a;" horiz-adv-x="230" 
d="M202 700v-700h-170v700h170zM-50 895h330v-130h-330v130z" />
    <glyph glyph-name="imacron" unicode="&#x12b;" horiz-adv-x="230" 
d="M202 700v-700h-170v700h170zM-50 895h330v-130h-330v130z" />
    <glyph glyph-name="Ibreve" unicode="&#x12c;" horiz-adv-x="230" 
d="M202 700v-700h-170v700h170zM68 885v-21c0 -5.33301 1.83301 -11 5.5 -17s10.167 -9 19.5 -9h46c9.33301 0 16 3 20 9s6 11.667 6 17v21h97v-36c0 -29.333 -9 -53.166 -27 -71.499s-41.667 -27.5 -71 -27.5h-97c-28.667 0 -52.167 9.16699 -70.5 27.5
s-27.5 42.166 -27.5 71.499v36h99z" />
    <glyph glyph-name="ibreve" unicode="&#x12d;" horiz-adv-x="230" 
d="M202 700v-700h-170v700h170zM68 885v-21c0 -5.33301 1.83301 -11 5.5 -17s10.167 -9 19.5 -9h46c9.33301 0 16 3 20 9s6 11.667 6 17v21h97v-36c0 -29.333 -9 -53.166 -27 -71.499s-41.667 -27.5 -71 -27.5h-97c-28.667 0 -52.167 9.16699 -70.5 27.5
s-27.5 42.166 -27.5 71.499v36h99z" />
    <glyph glyph-name="Iogonek" unicode="&#x12e;" horiz-adv-x="230" 
d="M118 -109c0 -5.33301 2 -9.33105 6 -11.998s7.66699 -4.66699 11 -6l54 -15l-30 -74l-55 15l-34 10c-11.333 3.33301 -21.5 7.66602 -30.5 12.999s-16.167 11.833 -21.5 19.5s-8 17.5 -8 29.5c0 11.333 3.16699 22.666 9.5 33.999s12.5 21.666 18.5 30.999l44 64h-52v700
h170v-700h-29l-29.5 -54c-7 -12.667 -12.167 -22.5 -15.5 -29.5s-5.5 -12.167 -6.5 -15.5s-1.5 -6.66602 -1.5 -9.99902z" />
    <glyph glyph-name="iogonek" unicode="&#x12f;" horiz-adv-x="230" 
d="M118 -109c0 -5.33301 2 -9.33105 6 -11.998s7.66699 -4.66699 11 -6l54 -15l-30 -74l-55 15l-34 10c-11.333 3.33301 -21.5 7.66602 -30.5 12.999s-16.167 11.833 -21.5 19.5s-8 17.5 -8 29.5c0 11.333 3.16699 22.666 9.5 33.999s12.5 21.666 18.5 30.999l44 64h-52v700
h170v-700h-29l-29.5 -54c-7 -12.667 -12.167 -22.5 -15.5 -29.5s-5.5 -12.167 -6.5 -15.5s-1.5 -6.66602 -1.5 -9.99902z" />
    <glyph glyph-name="Idotaccent" unicode="&#x130;" horiz-adv-x="230" 
d="M200 700v-700h-170v700h170zM200 900v-150h-170v150h170z" />
    <glyph glyph-name="dotlessi" unicode="&#x131;" horiz-adv-x="230" 
d="M200 700v-700h-170v700h170z" />
    <glyph glyph-name="IJ" unicode="&#x132;" horiz-adv-x="460" 
d="M200 700v-700h-170v700h170zM260 700h170v-680c0 -26.667 -6 -53.167 -18 -79.5s-33 -50.5 -63 -72.5l-79 -58l-90 115l61 48c6.66699 5.33301 11.5 10.5 14.5 15.5s4.5 12.167 4.5 21.5v690z" />
    <glyph glyph-name="ij" unicode="&#x133;" horiz-adv-x="460" 
d="M200 700v-700h-170v700h170zM260 700h170v-680c0 -26.667 -6 -53.167 -18 -79.5s-33 -50.5 -63 -72.5l-79 -58l-90 115l61 48c6.66699 5.33301 11.5 10.5 14.5 15.5s4.5 12.167 4.5 21.5v690z" />
    <glyph glyph-name="Jcircumflex" unicode="&#x134;" horiz-adv-x="230" 
d="M30 700h170v-680c0 -26.667 -6 -53.167 -18 -79.5s-33 -50.5 -63 -72.5l-79 -58l-90 115l61 48c6.66699 5.33301 11.5 10.5 14.5 15.5s4.5 12.167 4.5 21.5v690zM187 914c8 0 13.833 -1.66699 17.5 -5s7.16699 -7.66602 10.5 -12.999l90 -146h-135l-55 73l-55 -73h-135
l90 146c3.33301 5.33301 6.83301 9.66602 10.5 12.999s9.5 5 17.5 5h144z" />
    <glyph glyph-name="jcircumflex" unicode="&#x135;" horiz-adv-x="230" 
d="M30 700h170v-680c0 -26.667 -6 -53.167 -18 -79.5s-33 -50.5 -63 -72.5l-79 -58l-90 115l61 48c6.66699 5.33301 11.5 10.5 14.5 15.5s4.5 12.167 4.5 21.5v690zM187 914c8 0 13.833 -1.66699 17.5 -5s7.16699 -7.66602 10.5 -12.999l90 -146h-135l-55 73l-55 -73h-135
l90 146c3.33301 5.33301 6.83301 9.66602 10.5 12.999s9.5 5 17.5 5h144z" />
    <glyph glyph-name="Kcommaaccent" unicode="&#x136;" 
d="M30 0v699.998h170v-280h80c14 0 24.167 4.33301 30.5 13s9.5 17.667 9.5 27v240h170v-215c0 -30 -6.83301 -56.667 -20.5 -80s-32.167 -41.666 -55.5 -54.999c23.333 -13.333 41.833 -31.666 55.5 -54.999s20.5 -50 20.5 -80v-215h-170v240
c0 9.33301 -3.16699 18.333 -9.5 27s-16.5 13 -30.5 13h-80v-280h-170zM345 -109.002c0 -44.667 -14.667 -78.333 -44 -101s-66.333 -34 -111 -34h-15v200h170v-65z" />
    <glyph glyph-name="kcommaaccent" unicode="&#x137;" 
d="M30 0v699.998h170v-280h80c14 0 24.167 4.33301 30.5 13s9.5 17.667 9.5 27v240h170v-215c0 -30 -6.83301 -56.667 -20.5 -80s-32.167 -41.666 -55.5 -54.999c23.333 -13.333 41.833 -31.666 55.5 -54.999s20.5 -50 20.5 -80v-215h-170v240
c0 9.33301 -3.16699 18.333 -9.5 27s-16.5 13 -30.5 13h-80v-280h-170zM345 -109.002c0 -44.667 -14.667 -78.333 -44 -101s-66.333 -34 -111 -34h-15v200h170v-65z" />
    <glyph glyph-name="kgreenlandic" unicode="&#x138;" 
d="M30 0v699.998h170v-280h80c14 0 24.167 4.33301 30.5 13s9.5 17.667 9.5 27v240h170v-215c0 -30 -6.83301 -56.667 -20.5 -80s-32.167 -41.666 -55.5 -54.999c23.333 -13.333 41.833 -31.666 55.5 -54.999s20.5 -50 20.5 -80v-215h-170v240
c0 9.33301 -3.16699 18.333 -9.5 27s-16.5 13 -30.5 13h-80v-280h-170z" />
    <glyph glyph-name="Lacute" unicode="&#x139;" horiz-adv-x="470" 
d="M200 700v-520c0 -9.33301 3.16699 -18.333 9.5 -27s16.5 -13 30.5 -13h220v-140h-275c-22 -0 -42.5 3.83301 -61.5 11.5s-35.5 18.5 -49.5 32.5s-24.833 30.5 -32.5 49.5s-11.5 39.5 -11.5 61.5v545h170zM181 750l-135.001 -0.000976562l79 139
c2.66699 4.66699 6 7.66699 10 9s7.66699 2 11 2h118c3.33301 0 7.33301 -2.16699 12 -6.5s3.33398 -11.166 -3.99902 -20.499z" />
    <glyph glyph-name="lacute" unicode="&#x13a;" horiz-adv-x="470" 
d="M200 700v-520c0 -9.33301 3.16699 -18.333 9.5 -27s16.5 -13 30.5 -13h220v-140h-275c-22 -0 -42.5 3.83301 -61.5 11.5s-35.5 18.5 -49.5 32.5s-24.833 30.5 -32.5 49.5s-11.5 39.5 -11.5 61.5v545h170zM181 750l-135.001 -0.000976562l79 139
c2.66699 4.66699 6 7.66699 10 9s7.66699 2 11 2h118c3.33301 0 7.33301 -2.16699 12 -6.5s3.33398 -11.166 -3.99902 -20.499z" />
    <glyph glyph-name="Lcommaaccent" unicode="&#x13b;" horiz-adv-x="470" 
d="M200 700v-520c0 -9.33301 3.16699 -18.333 9.5 -27s16.5 -13 30.5 -13h220v-140h-275c-22 -0 -42.5 3.83301 -61.5 11.5s-35.5 18.5 -49.5 32.5s-24.833 30.5 -32.5 49.5s-11.5 39.5 -11.5 61.5v545h170zM320 -108c0 -44.667 -14.667 -78.333 -44 -101
s-66.333 -34 -111 -34h-15v200h170v-65z" />
    <glyph glyph-name="lcommaaccent" unicode="&#x13c;" horiz-adv-x="470" 
d="M200 700v-520c0 -9.33301 3.16699 -18.333 9.5 -27s16.5 -13 30.5 -13h220v-140h-275c-22 -0 -42.5 3.83301 -61.5 11.5s-35.5 18.5 -49.5 32.5s-24.833 30.5 -32.5 49.5s-11.5 39.5 -11.5 61.5v545h170zM320 -108c0 -44.667 -14.667 -78.333 -44 -101
s-66.333 -34 -111 -34h-15v200h170v-65z" />
    <glyph glyph-name="Lcaron" unicode="&#x13d;" horiz-adv-x="470" 
d="M200 700v-520c0 -9.33301 3.16699 -18.333 9.5 -27s16.5 -13 30.5 -13h220v-140h-275c-22 -0 -42.5 3.83301 -61.5 11.5s-35.5 18.5 -49.5 32.5s-24.833 30.5 -32.5 49.5s-11.5 39.5 -11.5 61.5v545h170zM420 635c0 -44.667 -14.667 -78.333 -44 -101
s-66.333 -34 -111 -34h-15v200h170v-65z" />
    <glyph glyph-name="lcaron" unicode="&#x13e;" horiz-adv-x="470" 
d="M200 700v-520c0 -9.33301 3.16699 -18.333 9.5 -27s16.5 -13 30.5 -13h220v-140h-275c-22 -0 -42.5 3.83301 -61.5 11.5s-35.5 18.5 -49.5 32.5s-24.833 30.5 -32.5 49.5s-11.5 39.5 -11.5 61.5v545h170zM420 635c0 -44.667 -14.667 -78.333 -44 -101
s-66.333 -34 -111 -34h-15v200h170v-65z" />
    <glyph glyph-name="Ldot" unicode="&#x13f;" horiz-adv-x="470" 
d="M200 700v-520c0 -9.33301 3.16699 -18.333 9.5 -27s16.5 -13 30.5 -13h220v-140h-275c-22 -0 -42.5 3.83301 -61.5 11.5s-35.5 18.5 -49.5 32.5s-24.833 30.5 -32.5 49.5s-11.5 39.5 -11.5 61.5v545h170zM400 470v-140h-150v140h150z" />
    <glyph glyph-name="ldot" unicode="&#x140;" horiz-adv-x="470" 
d="M200 700v-520c0 -9.33301 3.16699 -18.333 9.5 -27s16.5 -13 30.5 -13h220v-140h-275c-22 -0 -42.5 3.83301 -61.5 11.5s-35.5 18.5 -49.5 32.5s-24.833 30.5 -32.5 49.5s-11.5 39.5 -11.5 61.5v545h170zM400 470v-140h-150v140h150z" />
    <glyph glyph-name="Lslash" unicode="&#x141;" horiz-adv-x="470" 
d="M0 420h30v280h170v-280h60v-140h-60v-100c0 -9.33301 3.16699 -18.333 9.5 -27s16.5 -13 30.5 -13h220v-140h-275c-22 -0 -42.5 3.83301 -61.5 11.5s-35.5 18.5 -49.5 32.5s-24.833 30.5 -32.5 49.5s-11.5 39.5 -11.5 61.5v125h-30v140z" />
    <glyph glyph-name="lslash" unicode="&#x142;" horiz-adv-x="470" 
d="M0 420h30v280h170v-280h60v-140h-60v-100c0 -9.33301 3.16699 -18.333 9.5 -27s16.5 -13 30.5 -13h220v-140h-275c-22 -0 -42.5 3.83301 -61.5 11.5s-35.5 18.5 -49.5 32.5s-24.833 30.5 -32.5 49.5s-11.5 39.5 -11.5 61.5v125h-30v140z" />
    <glyph glyph-name="Nacute" unicode="&#x143;" 
d="M30 0v550c0 22 3.83301 42.5 11.5 61.5s18.5 35.5 32.5 49.5s30.5 24.833 49.5 32.5s39.5 11.5 61.5 11.5h150c22 0 42.5 -3.83301 61.5 -11.5s35.5 -18.5 49.5 -32.5s24.833 -30.5 32.5 -49.5s11.5 -39.5 11.5 -61.5v-550h-170v525c0 11.333 -3.16699 20.833 -9.5 28.5
s-16.5 11.5 -30.5 11.5h-40c-14 0 -24.167 -4.33301 -30.5 -13s-9.5 -17.667 -9.5 -27v-525h-170zM329 750l-135.001 -0.000976562l79 139c2.66699 4.66699 6 7.66699 10 9s7.66699 2 11 2h118c3.33301 0 7.33301 -2.16699 12 -6.5s3.33398 -11.166 -3.99902 -20.499z" />
    <glyph glyph-name="nacute" unicode="&#x144;" 
d="M30 0v550c0 22 3.83301 42.5 11.5 61.5s18.5 35.5 32.5 49.5s30.5 24.833 49.5 32.5s39.5 11.5 61.5 11.5h150c22 0 42.5 -3.83301 61.5 -11.5s35.5 -18.5 49.5 -32.5s24.833 -30.5 32.5 -49.5s11.5 -39.5 11.5 -61.5v-550h-170v525c0 11.333 -3.16699 20.833 -9.5 28.5
s-16.5 11.5 -30.5 11.5h-40c-14 0 -24.167 -4.33301 -30.5 -13s-9.5 -17.667 -9.5 -27v-525h-170zM329 750l-135.001 -0.000976562l79 139c2.66699 4.66699 6 7.66699 10 9s7.66699 2 11 2h118c3.33301 0 7.33301 -2.16699 12 -6.5s3.33398 -11.166 -3.99902 -20.499z" />
    <glyph glyph-name="Ncommaaccent" unicode="&#x145;" 
d="M30 0v550c0 22 3.83301 42.5 11.5 61.5s18.5 35.5 32.5 49.5s30.5 24.833 49.5 32.5s39.5 11.5 61.5 11.5h150c22 0 42.5 -3.83301 61.5 -11.5s35.5 -18.5 49.5 -32.5s24.833 -30.5 32.5 -49.5s11.5 -39.5 11.5 -61.5v-550h-170v525c0 11.333 -3.16699 20.833 -9.5 28.5
s-16.5 11.5 -30.5 11.5h-40c-14 0 -24.167 -4.33301 -30.5 -13s-9.5 -17.667 -9.5 -27v-525h-170zM345 -115c0 -44.667 -14.667 -78.333 -44 -101s-66.333 -34 -111 -34h-15v200h170v-65z" />
    <glyph glyph-name="ncommaaccent" unicode="&#x146;" 
d="M30 0v550c0 22 3.83301 42.5 11.5 61.5s18.5 35.5 32.5 49.5s30.5 24.833 49.5 32.5s39.5 11.5 61.5 11.5h150c22 0 42.5 -3.83301 61.5 -11.5s35.5 -18.5 49.5 -32.5s24.833 -30.5 32.5 -49.5s11.5 -39.5 11.5 -61.5v-550h-170v525c0 11.333 -3.16699 20.833 -9.5 28.5
s-16.5 11.5 -30.5 11.5h-40c-14 0 -24.167 -4.33301 -30.5 -13s-9.5 -17.667 -9.5 -27v-525h-170zM345 -115c0 -44.667 -14.667 -78.333 -44 -101s-66.333 -34 -111 -34h-15v200h170v-65z" />
    <glyph glyph-name="Ncaron" unicode="&#x147;" 
d="M30 0v550c0 22 3.83301 42.5 11.5 61.5s18.5 35.5 32.5 49.5s30.5 24.833 49.5 32.5s39.5 11.5 61.5 11.5h150c22 0 42.5 -3.83301 61.5 -11.5s35.5 -18.5 49.5 -32.5s24.833 -30.5 32.5 -49.5s11.5 -39.5 11.5 -61.5v-550h-170v525c0 11.333 -3.16699 20.833 -9.5 28.5
s-16.5 11.5 -30.5 11.5h-40c-14 0 -24.167 -4.33301 -30.5 -13s-9.5 -17.667 -9.5 -27v-525h-170zM188 750c-8 0 -13.833 1.66699 -17.5 5s-7.16699 7.66602 -10.5 12.999l-90 146h135l55 -73l55 73h135l-90 -146c-3.33301 -5.33301 -6.83301 -9.66602 -10.5 -12.999
s-9.5 -5 -17.5 -5h-144z" />
    <glyph glyph-name="ncaron" unicode="&#x148;" 
d="M30 0v550c0 22 3.83301 42.5 11.5 61.5s18.5 35.5 32.5 49.5s30.5 24.833 49.5 32.5s39.5 11.5 61.5 11.5h150c22 0 42.5 -3.83301 61.5 -11.5s35.5 -18.5 49.5 -32.5s24.833 -30.5 32.5 -49.5s11.5 -39.5 11.5 -61.5v-550h-170v525c0 11.333 -3.16699 20.833 -9.5 28.5
s-16.5 11.5 -30.5 11.5h-40c-14 0 -24.167 -4.33301 -30.5 -13s-9.5 -17.667 -9.5 -27v-525h-170zM188 750c-8 0 -13.833 1.66699 -17.5 5s-7.16699 7.66602 -10.5 12.999l-90 146h135l55 -73l55 73h135l-90 -146c-3.33301 -5.33301 -6.83301 -9.66602 -10.5 -12.999
s-9.5 -5 -17.5 -5h-144z" />
    <glyph glyph-name="napostrophe" unicode="&#x149;" horiz-adv-x="680" 
d="M200 0v550c0 22 3.83301 42.5 11.5 61.5s18.5 35.5 32.5 49.5s30.5 24.833 49.5 32.5s39.5 11.5 61.5 11.5h150c22 0 42.5 -3.83301 61.5 -11.5s35.5 -18.5 49.5 -32.5s24.833 -30.5 32.5 -49.5s11.5 -39.5 11.5 -61.5v-550h-170v525c0 11.333 -3.16699 20.833 -9.5 28.5
s-16.5 11.5 -30.5 11.5h-40c-14 0 -24.167 -4.33301 -30.5 -13s-9.5 -17.667 -9.5 -27v-525h-170zM180 635c0 -44.667 -14.667 -78.333 -44 -101s-66.333 -34 -111 -34h-15v200h170v-65z" />
    <glyph glyph-name="Eng" unicode="&#x14a;" 
d="M30 0v550c0 22 3.83301 42.5 11.5 61.5s18.5 35.5 32.5 49.5s30.5 24.833 49.5 32.5s39.5 11.5 61.5 11.5h150c22 0 42.5 -3.83301 61.5 -11.5s35.5 -18.5 49.5 -32.5s24.833 -30.5 32.5 -49.5s11.5 -39.5 11.5 -61.5v-550c0 -23.333 -7 -46.333 -21 -69
s-34 -43.667 -60 -63l-79 -58l-90 115l61 48c6.66699 5.33301 11.5 10.5 14.5 15.5s4.5 12.167 4.5 21.5v515c0 11.333 -3.16699 20.833 -9.5 28.5s-16.5 11.5 -30.5 11.5h-40c-14 0 -24.167 -4.33301 -30.5 -13s-9.5 -17.667 -9.5 -27v-525h-170z" />
    <glyph glyph-name="eng" unicode="&#x14b;" 
d="M30 0v550c0 22 3.83301 42.5 11.5 61.5s18.5 35.5 32.5 49.5s30.5 24.833 49.5 32.5s39.5 11.5 61.5 11.5h150c22 0 42.5 -3.83301 61.5 -11.5s35.5 -18.5 49.5 -32.5s24.833 -30.5 32.5 -49.5s11.5 -39.5 11.5 -61.5v-550c0 -23.333 -7 -46.333 -21 -69
s-34 -43.667 -60 -63l-79 -58l-90 115l61 48c6.66699 5.33301 11.5 10.5 14.5 15.5s4.5 12.167 4.5 21.5v515c0 11.333 -3.16699 20.833 -9.5 28.5s-16.5 11.5 -30.5 11.5h-40c-14 0 -24.167 -4.33301 -30.5 -13s-9.5 -17.667 -9.5 -27v-525h-170z" />
    <glyph glyph-name="Omacron" unicode="&#x14c;" 
d="M185 -5c-22 0 -42.5 3.83301 -61.5 11.5s-35.5 18.5 -49.5 32.5s-24.833 30.5 -32.5 49.5s-11.5 39.5 -11.5 61.5v400c0 22 3.83301 42.5 11.5 61.5s18.5 35.5 32.5 49.5s30.5 24.833 49.5 32.5s39.5 11.5 61.5 11.5h150c22 0 42.5 -3.83301 61.5 -11.5
s35.5 -18.5 49.5 -32.5s24.833 -30.5 32.5 -49.5s11.5 -39.5 11.5 -61.5v-400c0 -22 -3.83301 -42.5 -11.5 -61.5s-18.5 -35.5 -32.5 -49.5s-30.5 -24.833 -49.5 -32.5s-39.5 -11.5 -61.5 -11.5h-150zM280 135c14 0 24.167 4.33301 30.5 13s9.5 17.667 9.5 27v350
c0 9.33301 -3.16699 18.333 -9.5 27s-16.5 13 -30.5 13h-40c-14 0 -24.167 -4.33301 -30.5 -13s-9.5 -17.667 -9.5 -27v-350c0 -9.33301 3.16699 -18.333 9.5 -27s16.5 -13 30.5 -13h40zM95 895h330v-130h-330v130z" />
    <glyph glyph-name="omacron" unicode="&#x14d;" 
d="M185 -5c-22 0 -42.5 3.83301 -61.5 11.5s-35.5 18.5 -49.5 32.5s-24.833 30.5 -32.5 49.5s-11.5 39.5 -11.5 61.5v400c0 22 3.83301 42.5 11.5 61.5s18.5 35.5 32.5 49.5s30.5 24.833 49.5 32.5s39.5 11.5 61.5 11.5h150c22 0 42.5 -3.83301 61.5 -11.5
s35.5 -18.5 49.5 -32.5s24.833 -30.5 32.5 -49.5s11.5 -39.5 11.5 -61.5v-400c0 -22 -3.83301 -42.5 -11.5 -61.5s-18.5 -35.5 -32.5 -49.5s-30.5 -24.833 -49.5 -32.5s-39.5 -11.5 -61.5 -11.5h-150zM280 135c14 0 24.167 4.33301 30.5 13s9.5 17.667 9.5 27v350
c0 9.33301 -3.16699 18.333 -9.5 27s-16.5 13 -30.5 13h-40c-14 0 -24.167 -4.33301 -30.5 -13s-9.5 -17.667 -9.5 -27v-350c0 -9.33301 3.16699 -18.333 9.5 -27s16.5 -13 30.5 -13h40zM95 895h330v-130h-330v130z" />
    <glyph glyph-name="Obreve" unicode="&#x14e;" 
d="M185 -5c-22 0 -42.5 3.83301 -61.5 11.5s-35.5 18.5 -49.5 32.5s-24.833 30.5 -32.5 49.5s-11.5 39.5 -11.5 61.5v400c0 22 3.83301 42.5 11.5 61.5s18.5 35.5 32.5 49.5s30.5 24.833 49.5 32.5s39.5 11.5 61.5 11.5h150c22 0 42.5 -3.83301 61.5 -11.5
s35.5 -18.5 49.5 -32.5s24.833 -30.5 32.5 -49.5s11.5 -39.5 11.5 -61.5v-400c0 -22 -3.83301 -42.5 -11.5 -61.5s-18.5 -35.5 -32.5 -49.5s-30.5 -24.833 -49.5 -32.5s-39.5 -11.5 -61.5 -11.5h-150zM280 135c14 0 24.167 4.33301 30.5 13s9.5 17.667 9.5 27v350
c0 9.33301 -3.16699 18.333 -9.5 27s-16.5 13 -30.5 13h-40c-14 0 -24.167 -4.33301 -30.5 -13s-9.5 -17.667 -9.5 -27v-350c0 -9.33301 3.16699 -18.333 9.5 -27s16.5 -13 30.5 -13h40zM213 885v-21c0 -5.33301 1.83301 -11 5.5 -17s10.167 -9 19.5 -9h46
c9.33301 0 16 3 20 9s6 11.667 6 17v21h97v-36c0 -29.333 -9 -53.166 -27 -71.499s-41.667 -27.5 -71 -27.5h-97c-28.667 0 -52.167 9.16699 -70.5 27.5s-27.5 42.166 -27.5 71.499v36h99z" />
    <glyph glyph-name="obreve" unicode="&#x14f;" 
d="M185 -5c-22 0 -42.5 3.83301 -61.5 11.5s-35.5 18.5 -49.5 32.5s-24.833 30.5 -32.5 49.5s-11.5 39.5 -11.5 61.5v400c0 22 3.83301 42.5 11.5 61.5s18.5 35.5 32.5 49.5s30.5 24.833 49.5 32.5s39.5 11.5 61.5 11.5h150c22 0 42.5 -3.83301 61.5 -11.5
s35.5 -18.5 49.5 -32.5s24.833 -30.5 32.5 -49.5s11.5 -39.5 11.5 -61.5v-400c0 -22 -3.83301 -42.5 -11.5 -61.5s-18.5 -35.5 -32.5 -49.5s-30.5 -24.833 -49.5 -32.5s-39.5 -11.5 -61.5 -11.5h-150zM280 135c14 0 24.167 4.33301 30.5 13s9.5 17.667 9.5 27v350
c0 9.33301 -3.16699 18.333 -9.5 27s-16.5 13 -30.5 13h-40c-14 0 -24.167 -4.33301 -30.5 -13s-9.5 -17.667 -9.5 -27v-350c0 -9.33301 3.16699 -18.333 9.5 -27s16.5 -13 30.5 -13h40zM213 885v-21c0 -5.33301 1.83301 -11 5.5 -17s10.167 -9 19.5 -9h46
c9.33301 0 16 3 20 9s6 11.667 6 17v21h97v-36c0 -29.333 -9 -53.166 -27 -71.499s-41.667 -27.5 -71 -27.5h-97c-28.667 0 -52.167 9.16699 -70.5 27.5s-27.5 42.166 -27.5 71.499v36h99z" />
    <glyph glyph-name="Ohungarumlaut" unicode="&#x150;" 
d="M185 -5c-22 0 -42.5 3.83301 -61.5 11.5s-35.5 18.5 -49.5 32.5s-24.833 30.5 -32.5 49.5s-11.5 39.5 -11.5 61.5v400c0 22 3.83301 42.5 11.5 61.5s18.5 35.5 32.5 49.5s30.5 24.833 49.5 32.5s39.5 11.5 61.5 11.5h150c22 0 42.5 -3.83301 61.5 -11.5
s35.5 -18.5 49.5 -32.5s24.833 -30.5 32.5 -49.5s11.5 -39.5 11.5 -61.5v-400c0 -22 -3.83301 -42.5 -11.5 -61.5s-18.5 -35.5 -32.5 -49.5s-30.5 -24.833 -49.5 -32.5s-39.5 -11.5 -61.5 -11.5h-150zM280 135c14 0 24.167 4.33301 30.5 13s9.5 17.667 9.5 27v350
c0 9.33301 -3.16699 18.333 -9.5 27s-16.5 13 -30.5 13h-40c-14 0 -24.167 -4.33301 -30.5 -13s-9.5 -17.667 -9.5 -27v-350c0 -9.33301 3.16699 -18.333 9.5 -27s16.5 -13 30.5 -13h40zM204 750l-105.001 -0.000976562l79 139c2.66699 4.66699 6 7.66699 10 9
s7.66699 2 11 2h88c3.33301 0 7.33301 -2.16699 12 -6.5s3.33398 -11.166 -3.99902 -20.499zM383.999 749.999l-105.001 -0.000976562l79 139c2.66699 4.66699 6 7.66699 10 9s7.66699 2 11 2h88c3.33301 0 7.33301 -2.16699 12 -6.5s3.33398 -11.166 -3.99902 -20.499z" />
    <glyph glyph-name="ohungarumlaut" unicode="&#x151;" 
d="M185 -5c-22 0 -42.5 3.83301 -61.5 11.5s-35.5 18.5 -49.5 32.5s-24.833 30.5 -32.5 49.5s-11.5 39.5 -11.5 61.5v400c0 22 3.83301 42.5 11.5 61.5s18.5 35.5 32.5 49.5s30.5 24.833 49.5 32.5s39.5 11.5 61.5 11.5h150c22 0 42.5 -3.83301 61.5 -11.5
s35.5 -18.5 49.5 -32.5s24.833 -30.5 32.5 -49.5s11.5 -39.5 11.5 -61.5v-400c0 -22 -3.83301 -42.5 -11.5 -61.5s-18.5 -35.5 -32.5 -49.5s-30.5 -24.833 -49.5 -32.5s-39.5 -11.5 -61.5 -11.5h-150zM280 135c14 0 24.167 4.33301 30.5 13s9.5 17.667 9.5 27v350
c0 9.33301 -3.16699 18.333 -9.5 27s-16.5 13 -30.5 13h-40c-14 0 -24.167 -4.33301 -30.5 -13s-9.5 -17.667 -9.5 -27v-350c0 -9.33301 3.16699 -18.333 9.5 -27s16.5 -13 30.5 -13h40zM204 750l-105.001 -0.000976562l79 139c2.66699 4.66699 6 7.66699 10 9
s7.66699 2 11 2h88c3.33301 0 7.33301 -2.16699 12 -6.5s3.33398 -11.166 -3.99902 -20.499zM383.999 749.999l-105.001 -0.000976562l79 139c2.66699 4.66699 6 7.66699 10 9s7.66699 2 11 2h88c3.33301 0 7.33301 -2.16699 12 -6.5s3.33398 -11.166 -3.99902 -20.499z" />
    <glyph glyph-name="OE" unicode="&#x152;" horiz-adv-x="770" 
d="M750 140v-140h-225c-25.333 0 -48.166 4.66699 -68.499 14s-37.5 22.666 -51.5 39.999c-14 -17.333 -31.333 -30.666 -52 -39.999s-43.334 -14 -68.001 -14h-100c-22 -0 -42.5 3.83301 -61.5 11.5s-35.5 18.5 -49.5 32.5s-24.833 30.5 -32.5 49.5s-11.5 39.5 -11.5 61.5
v390c0 22 3.83301 42.5 11.5 61.5s18.5 35.5 32.5 49.5s30.5 24.833 49.5 32.5s39.5 11.5 61.5 11.5h100c24.667 0 47.334 -4.83301 68.001 -14.5s38 -22.834 52 -39.501c14 16.667 31.167 29.834 51.5 39.501s43.166 14.5 68.499 14.5h225v-140h-220
c-14 0 -24.167 -4.33301 -30.5 -13s-9.5 -17.667 -9.5 -27v-100h190v-140h-190v-100c0 -9.33301 3.16699 -18.333 9.5 -27s16.5 -13 30.5 -13h220zM280 140c14 0 24.167 4.33301 30.5 13s9.5 17.667 9.5 27v340c0 9.33301 -3.16699 18.333 -9.5 27s-16.5 13 -30.5 13h-40
c-14 0 -24.167 -4.33301 -30.5 -13s-9.5 -17.667 -9.5 -27v-340c0 -9.33301 3.16699 -18.333 9.5 -27s16.5 -13 30.5 -13h40z" />
    <glyph glyph-name="oe" unicode="&#x153;" horiz-adv-x="770" 
d="M750 140v-140h-225c-25.333 0 -48.166 4.66699 -68.499 14s-37.5 22.666 -51.5 39.999c-14 -17.333 -31.333 -30.666 -52 -39.999s-43.334 -14 -68.001 -14h-100c-22 -0 -42.5 3.83301 -61.5 11.5s-35.5 18.5 -49.5 32.5s-24.833 30.5 -32.5 49.5s-11.5 39.5 -11.5 61.5
v390c0 22 3.83301 42.5 11.5 61.5s18.5 35.5 32.5 49.5s30.5 24.833 49.5 32.5s39.5 11.5 61.5 11.5h100c24.667 0 47.334 -4.83301 68.001 -14.5s38 -22.834 52 -39.501c14 16.667 31.167 29.834 51.5 39.501s43.166 14.5 68.499 14.5h225v-140h-220
c-14 0 -24.167 -4.33301 -30.5 -13s-9.5 -17.667 -9.5 -27v-100h190v-140h-190v-100c0 -9.33301 3.16699 -18.333 9.5 -27s16.5 -13 30.5 -13h220zM280 140c14 0 24.167 4.33301 30.5 13s9.5 17.667 9.5 27v340c0 9.33301 -3.16699 18.333 -9.5 27s-16.5 13 -30.5 13h-40
c-14 0 -24.167 -4.33301 -30.5 -13s-9.5 -17.667 -9.5 -27v-340c0 -9.33301 3.16699 -18.333 9.5 -27s16.5 -13 30.5 -13h40z" />
    <glyph glyph-name="Racute" unicode="&#x154;" 
d="M30 700l305 -0.00195312c22 0 42.5 -3.83301 61.5 -11.5s35.5 -18.5 49.5 -32.5s24.833 -30.5 32.5 -49.5s11.5 -39.5 11.5 -61.5v-80c0 -30 -6.83301 -56.667 -20.5 -80s-32.167 -41.666 -55.5 -54.999c23.333 -13.333 41.833 -31.666 55.5 -54.999s20.5 -50 20.5 -80
v-195h-170v220c0 9.33301 -3.16699 18.333 -9.5 27s-16.5 13 -30.5 13h-50v140h50c14 0 24.167 4.33301 30.5 13s9.5 17.667 9.5 27v80c0 9.33301 -3.16699 18.333 -9.5 27s-16.5 13 -30.5 13h-80v-560h-170v700zM329 749.998l-135.001 -0.000976562l79 139
c2.66699 4.66699 6 7.66699 10 9s7.66699 2 11 2h118c3.33301 0 7.33301 -2.16699 12 -6.5s3.33398 -11.166 -3.99902 -20.499z" />
    <glyph glyph-name="racute" unicode="&#x155;" 
d="M30 700l305 -0.00195312c22 0 42.5 -3.83301 61.5 -11.5s35.5 -18.5 49.5 -32.5s24.833 -30.5 32.5 -49.5s11.5 -39.5 11.5 -61.5v-80c0 -30 -6.83301 -56.667 -20.5 -80s-32.167 -41.666 -55.5 -54.999c23.333 -13.333 41.833 -31.666 55.5 -54.999s20.5 -50 20.5 -80
v-195h-170v220c0 9.33301 -3.16699 18.333 -9.5 27s-16.5 13 -30.5 13h-50v140h50c14 0 24.167 4.33301 30.5 13s9.5 17.667 9.5 27v80c0 9.33301 -3.16699 18.333 -9.5 27s-16.5 13 -30.5 13h-80v-560h-170v700zM329 749.998l-135.001 -0.000976562l79 139
c2.66699 4.66699 6 7.66699 10 9s7.66699 2 11 2h118c3.33301 0 7.33301 -2.16699 12 -6.5s3.33398 -11.166 -3.99902 -20.499z" />
    <glyph glyph-name="Rcommaaccent" unicode="&#x156;" 
d="M30 700l305 -0.00195312c22 0 42.5 -3.83301 61.5 -11.5s35.5 -18.5 49.5 -32.5s24.833 -30.5 32.5 -49.5s11.5 -39.5 11.5 -61.5v-80c0 -30 -6.83301 -56.667 -20.5 -80s-32.167 -41.666 -55.5 -54.999c23.333 -13.333 41.833 -31.666 55.5 -54.999s20.5 -50 20.5 -80
v-195h-170v220c0 9.33301 -3.16699 18.333 -9.5 27s-16.5 13 -30.5 13h-50v140h50c14 0 24.167 4.33301 30.5 13s9.5 17.667 9.5 27v80c0 9.33301 -3.16699 18.333 -9.5 27s-16.5 13 -30.5 13h-80v-560h-170v700zM345 -110.002c0 -44.667 -14.667 -78.333 -44 -101
s-66.333 -34 -111 -34h-15v200h170v-65z" />
    <glyph glyph-name="rcommaaccent" unicode="&#x157;" 
d="M30 700l305 -0.00195312c22 0 42.5 -3.83301 61.5 -11.5s35.5 -18.5 49.5 -32.5s24.833 -30.5 32.5 -49.5s11.5 -39.5 11.5 -61.5v-80c0 -30 -6.83301 -56.667 -20.5 -80s-32.167 -41.666 -55.5 -54.999c23.333 -13.333 41.833 -31.666 55.5 -54.999s20.5 -50 20.5 -80
v-195h-170v220c0 9.33301 -3.16699 18.333 -9.5 27s-16.5 13 -30.5 13h-50v140h50c14 0 24.167 4.33301 30.5 13s9.5 17.667 9.5 27v80c0 9.33301 -3.16699 18.333 -9.5 27s-16.5 13 -30.5 13h-80v-560h-170v700zM345 -110.002c0 -44.667 -14.667 -78.333 -44 -101
s-66.333 -34 -111 -34h-15v200h170v-65z" />
    <glyph glyph-name="Rcaron" unicode="&#x158;" 
d="M30 700l305 -0.00195312c22 0 42.5 -3.83301 61.5 -11.5s35.5 -18.5 49.5 -32.5s24.833 -30.5 32.5 -49.5s11.5 -39.5 11.5 -61.5v-80c0 -30 -6.83301 -56.667 -20.5 -80s-32.167 -41.666 -55.5 -54.999c23.333 -13.333 41.833 -31.666 55.5 -54.999s20.5 -50 20.5 -80
v-195h-170v220c0 9.33301 -3.16699 18.333 -9.5 27s-16.5 13 -30.5 13h-50v140h50c14 0 24.167 4.33301 30.5 13s9.5 17.667 9.5 27v80c0 9.33301 -3.16699 18.333 -9.5 27s-16.5 13 -30.5 13h-80v-560h-170v700zM188 749.998c-8 0 -13.833 1.66699 -17.5 5
s-7.16699 7.66602 -10.5 12.999l-90 146h135l55 -73l55 73h135l-90 -146c-3.33301 -5.33301 -6.83301 -9.66602 -10.5 -12.999s-9.5 -5 -17.5 -5h-144z" />
    <glyph glyph-name="rcaron" unicode="&#x159;" 
d="M30 700l305 -0.00195312c22 0 42.5 -3.83301 61.5 -11.5s35.5 -18.5 49.5 -32.5s24.833 -30.5 32.5 -49.5s11.5 -39.5 11.5 -61.5v-80c0 -30 -6.83301 -56.667 -20.5 -80s-32.167 -41.666 -55.5 -54.999c23.333 -13.333 41.833 -31.666 55.5 -54.999s20.5 -50 20.5 -80
v-195h-170v220c0 9.33301 -3.16699 18.333 -9.5 27s-16.5 13 -30.5 13h-50v140h50c14 0 24.167 4.33301 30.5 13s9.5 17.667 9.5 27v80c0 9.33301 -3.16699 18.333 -9.5 27s-16.5 13 -30.5 13h-80v-560h-170v700zM188 749.998c-8 0 -13.833 1.66699 -17.5 5
s-7.16699 7.66602 -10.5 12.999l-90 146h135l55 -73l55 73h135l-90 -146c-3.33301 -5.33301 -6.83301 -9.66602 -10.5 -12.999s-9.5 -5 -17.5 -5h-144z" />
    <glyph glyph-name="Sacute" unicode="&#x15a;" horiz-adv-x="490" 
d="M295 240c0 17.333 -8.33301 28 -25 32l-120 28c-16.667 4 -32.5 9.66699 -47.5 17s-28.333 16 -40 26s-20.834 21.833 -27.501 35.5s-10 29.167 -10 46.5v120c0 22 3.83301 42.5 11.5 61.5s18.5 35.5 32.5 49.5s30.5 24.833 49.5 32.5s39.5 11.5 61.5 11.5h270v-140h-215
c-14 0 -24.167 -4.33301 -30.5 -13s-9.5 -17.667 -9.5 -27v-40c0 -17.333 8.33301 -28 25 -32l120 -28c16.667 -4 32.5 -9.66699 47.5 -17s28.333 -16 40 -26s20.834 -21.833 27.501 -35.5s10 -29.167 10 -46.5v-140c0 -22 -3.83301 -42.5 -11.5 -61.5
s-18.5 -35.5 -32.5 -49.5s-30.5 -24.833 -49.5 -32.5s-39.5 -11.5 -61.5 -11.5h-285v140h230c14 0 24.167 4.33301 30.5 13s9.5 17.667 9.5 27v60zM299 750l-135.001 -0.000976562l79 139c2.66699 4.66699 6 7.66699 10 9s7.66699 2 11 2h118
c3.33301 0 7.33301 -2.16699 12 -6.5s3.33398 -11.166 -3.99902 -20.499z" />
    <glyph glyph-name="sacute" unicode="&#x15b;" horiz-adv-x="490" 
d="M295 240c0 17.333 -8.33301 28 -25 32l-120 28c-16.667 4 -32.5 9.66699 -47.5 17s-28.333 16 -40 26s-20.834 21.833 -27.501 35.5s-10 29.167 -10 46.5v120c0 22 3.83301 42.5 11.5 61.5s18.5 35.5 32.5 49.5s30.5 24.833 49.5 32.5s39.5 11.5 61.5 11.5h270v-140h-215
c-14 0 -24.167 -4.33301 -30.5 -13s-9.5 -17.667 -9.5 -27v-40c0 -17.333 8.33301 -28 25 -32l120 -28c16.667 -4 32.5 -9.66699 47.5 -17s28.333 -16 40 -26s20.834 -21.833 27.501 -35.5s10 -29.167 10 -46.5v-140c0 -22 -3.83301 -42.5 -11.5 -61.5
s-18.5 -35.5 -32.5 -49.5s-30.5 -24.833 -49.5 -32.5s-39.5 -11.5 -61.5 -11.5h-285v140h230c14 0 24.167 4.33301 30.5 13s9.5 17.667 9.5 27v60zM299 750l-135.001 -0.000976562l79 139c2.66699 4.66699 6 7.66699 10 9s7.66699 2 11 2h118
c3.33301 0 7.33301 -2.16699 12 -6.5s3.33398 -11.166 -3.99902 -20.499z" />
    <glyph glyph-name="Scircumflex" unicode="&#x15c;" horiz-adv-x="490" 
d="M295 240c0 17.333 -8.33301 28 -25 32l-120 28c-16.667 4 -32.5 9.66699 -47.5 17s-28.333 16 -40 26s-20.834 21.833 -27.501 35.5s-10 29.167 -10 46.5v120c0 22 3.83301 42.5 11.5 61.5s18.5 35.5 32.5 49.5s30.5 24.833 49.5 32.5s39.5 11.5 61.5 11.5h270v-140h-215
c-14 0 -24.167 -4.33301 -30.5 -13s-9.5 -17.667 -9.5 -27v-40c0 -17.333 8.33301 -28 25 -32l120 -28c16.667 -4 32.5 -9.66699 47.5 -17s28.333 -16 40 -26s20.834 -21.833 27.501 -35.5s10 -29.167 10 -46.5v-140c0 -22 -3.83301 -42.5 -11.5 -61.5
s-18.5 -35.5 -32.5 -49.5s-30.5 -24.833 -49.5 -32.5s-39.5 -11.5 -61.5 -11.5h-285v140h230c14 0 24.167 4.33301 30.5 13s9.5 17.667 9.5 27v60zM322 914c8 0 13.833 -1.66699 17.5 -5s7.16699 -7.66602 10.5 -12.999l90 -146h-135l-55 73l-55 -73h-135l90 146
c3.33301 5.33301 6.83301 9.66602 10.5 12.999s9.5 5 17.5 5h144z" />
    <glyph glyph-name="scircumflex" unicode="&#x15d;" horiz-adv-x="490" 
d="M295 240c0 17.333 -8.33301 28 -25 32l-120 28c-16.667 4 -32.5 9.66699 -47.5 17s-28.333 16 -40 26s-20.834 21.833 -27.501 35.5s-10 29.167 -10 46.5v120c0 22 3.83301 42.5 11.5 61.5s18.5 35.5 32.5 49.5s30.5 24.833 49.5 32.5s39.5 11.5 61.5 11.5h270v-140h-215
c-14 0 -24.167 -4.33301 -30.5 -13s-9.5 -17.667 -9.5 -27v-40c0 -17.333 8.33301 -28 25 -32l120 -28c16.667 -4 32.5 -9.66699 47.5 -17s28.333 -16 40 -26s20.834 -21.833 27.501 -35.5s10 -29.167 10 -46.5v-140c0 -22 -3.83301 -42.5 -11.5 -61.5
s-18.5 -35.5 -32.5 -49.5s-30.5 -24.833 -49.5 -32.5s-39.5 -11.5 -61.5 -11.5h-285v140h230c14 0 24.167 4.33301 30.5 13s9.5 17.667 9.5 27v60zM322 914c8 0 13.833 -1.66699 17.5 -5s7.16699 -7.66602 10.5 -12.999l90 -146h-135l-55 73l-55 -73h-135l90 146
c3.33301 5.33301 6.83301 9.66602 10.5 12.999s9.5 5 17.5 5h144z" />
    <glyph glyph-name="Scedilla" unicode="&#x15e;" horiz-adv-x="490" 
d="M253 -124c0 8 -4.33301 13.332 -13 15.999l-30 9c-18 5.33301 -28.667 13.333 -32 24s-5 25 -5 43v32h-148v140h230c14 0 24.167 4.33301 30.5 13s9.5 17.667 9.5 27v60c0 17.333 -8.33301 28 -25 32l-120 28c-16.667 4 -32.5 9.66699 -47.5 17s-28.333 16 -40 26
s-20.834 21.833 -27.501 35.5s-10 29.167 -10 46.5v120c0 22 3.83301 42.5 11.5 61.5s18.5 35.5 32.5 49.5s30.5 24.833 49.5 32.5s39.5 11.5 61.5 11.5h270v-140h-215c-14 0 -24.167 -4.33301 -30.5 -13s-9.5 -17.667 -9.5 -27v-40c0 -17.333 8.33301 -28 25 -32l120 -28
c16.667 -4 32.5 -9.66699 47.5 -17s28.333 -16 40 -26s20.834 -21.833 27.501 -35.5s10 -29.167 10 -46.5v-140c0 -22 -3.83301 -42.5 -11.5 -61.5s-18.5 -35.5 -32.5 -49.5s-30.5 -24.833 -49.5 -32.5s-39.5 -11.5 -61.5 -11.5h-57v-24c0 -6.66699 4.33301 -12 13 -16
l41 -17c9.33301 -4 17.833 -9.83301 25.5 -17.5s11.5 -18.167 11.5 -31.5v-38c0 -23.333 -7.33301 -40.166 -22 -50.499s-34 -15.5 -58 -15.5h-114v64h86c7.33301 0 12 1.66699 14 5s3 7.33301 3 12v5z" />
    <glyph glyph-name="scedilla" unicode="&#x15f;" horiz-adv-x="490" 
d="M253 -124c0 8 -4.33301 13.332 -13 15.999l-30 9c-18 5.33301 -28.667 13.333 -32 24s-5 25 -5 43v32h-148v140h230c14 0 24.167 4.33301 30.5 13s9.5 17.667 9.5 27v60c0 17.333 -8.33301 28 -25 32l-120 28c-16.667 4 -32.5 9.66699 -47.5 17s-28.333 16 -40 26
s-20.834 21.833 -27.501 35.5s-10 29.167 -10 46.5v120c0 22 3.83301 42.5 11.5 61.5s18.5 35.5 32.5 49.5s30.5 24.833 49.5 32.5s39.5 11.5 61.5 11.5h270v-140h-215c-14 0 -24.167 -4.33301 -30.5 -13s-9.5 -17.667 -9.5 -27v-40c0 -17.333 8.33301 -28 25 -32l120 -28
c16.667 -4 32.5 -9.66699 47.5 -17s28.333 -16 40 -26s20.834 -21.833 27.501 -35.5s10 -29.167 10 -46.5v-140c0 -22 -3.83301 -42.5 -11.5 -61.5s-18.5 -35.5 -32.5 -49.5s-30.5 -24.833 -49.5 -32.5s-39.5 -11.5 -61.5 -11.5h-57v-24c0 -6.66699 4.33301 -12 13 -16
l41 -17c9.33301 -4 17.833 -9.83301 25.5 -17.5s11.5 -18.167 11.5 -31.5v-38c0 -23.333 -7.33301 -40.166 -22 -50.499s-34 -15.5 -58 -15.5h-114v64h86c7.33301 0 12 1.66699 14 5s3 7.33301 3 12v5z" />
    <glyph glyph-name="Scaron" unicode="&#x160;" horiz-adv-x="490" 
d="M295 240c0 17.333 -8.33301 28 -25 32l-120 28c-16.667 4 -32.5 9.66699 -47.5 17s-28.333 16 -40 26s-20.834 21.833 -27.501 35.5s-10 29.167 -10 46.5v120c0 22 3.83301 42.5 11.5 61.5s18.5 35.5 32.5 49.5s30.5 24.833 49.5 32.5s39.5 11.5 61.5 11.5h270v-140h-215
c-14 0 -24.167 -4.33301 -30.5 -13s-9.5 -17.667 -9.5 -27v-40c0 -17.333 8.33301 -28 25 -32l120 -28c16.667 -4 32.5 -9.66699 47.5 -17s28.333 -16 40 -26s20.834 -21.833 27.501 -35.5s10 -29.167 10 -46.5v-140c0 -22 -3.83301 -42.5 -11.5 -61.5
s-18.5 -35.5 -32.5 -49.5s-30.5 -24.833 -49.5 -32.5s-39.5 -11.5 -61.5 -11.5h-285v140h230c14 0 24.167 4.33301 30.5 13s9.5 17.667 9.5 27v60zM178 750c-8 0 -13.833 1.66699 -17.5 5s-7.16699 7.66602 -10.5 12.999l-90 146h135l55 -73l55 73h135l-90 -146
c-3.33301 -5.33301 -6.83301 -9.66602 -10.5 -12.999s-9.5 -5 -17.5 -5h-144z" />
    <glyph glyph-name="scaron" unicode="&#x161;" horiz-adv-x="490" 
d="M295 240c0 17.333 -8.33301 28 -25 32l-120 28c-16.667 4 -32.5 9.66699 -47.5 17s-28.333 16 -40 26s-20.834 21.833 -27.501 35.5s-10 29.167 -10 46.5v120c0 22 3.83301 42.5 11.5 61.5s18.5 35.5 32.5 49.5s30.5 24.833 49.5 32.5s39.5 11.5 61.5 11.5h270v-140h-215
c-14 0 -24.167 -4.33301 -30.5 -13s-9.5 -17.667 -9.5 -27v-40c0 -17.333 8.33301 -28 25 -32l120 -28c16.667 -4 32.5 -9.66699 47.5 -17s28.333 -16 40 -26s20.834 -21.833 27.501 -35.5s10 -29.167 10 -46.5v-140c0 -22 -3.83301 -42.5 -11.5 -61.5
s-18.5 -35.5 -32.5 -49.5s-30.5 -24.833 -49.5 -32.5s-39.5 -11.5 -61.5 -11.5h-285v140h230c14 0 24.167 4.33301 30.5 13s9.5 17.667 9.5 27v60zM178 750c-8 0 -13.833 1.66699 -17.5 5s-7.16699 7.66602 -10.5 12.999l-90 146h135l55 -73l55 73h135l-90 -146
c-3.33301 -5.33301 -6.83301 -9.66602 -10.5 -12.999s-9.5 -5 -17.5 -5h-144z" />
    <glyph glyph-name="Tcommaaccent" unicode="&#x162;" horiz-adv-x="480" 
d="M10 560v140h460v-140h-145v-560h-170v560h-145zM325 -115c0 -44.667 -14.667 -78.333 -44 -101s-66.333 -34 -111 -34h-15v200h170v-65z" />
    <glyph glyph-name="tcommaaccent" unicode="&#x163;" horiz-adv-x="480" 
d="M10 560v140h460v-140h-145v-560h-170v560h-145zM325 -115c0 -44.667 -14.667 -78.333 -44 -101s-66.333 -34 -111 -34h-15v200h170v-65z" />
    <glyph glyph-name="Tcaron" unicode="&#x164;" horiz-adv-x="480" 
d="M10 560v140h460v-140h-145v-560h-170v560h-145zM168 750c-8 0 -13.833 1.66699 -17.5 5s-7.16699 7.66602 -10.5 12.999l-90 146h135l55 -73l55 73h135l-90 -146c-3.33301 -5.33301 -6.83301 -9.66602 -10.5 -12.999s-9.5 -5 -17.5 -5h-144z" />
    <glyph glyph-name="tcaron" unicode="&#x165;" horiz-adv-x="480" 
d="M10 560v140h460v-140h-145v-560h-170v560h-145zM168 750c-8 0 -13.833 1.66699 -17.5 5s-7.16699 7.66602 -10.5 12.999l-90 146h135l55 -73l55 73h135l-90 -146c-3.33301 -5.33301 -6.83301 -9.66602 -10.5 -12.999s-9.5 -5 -17.5 -5h-144z" />
    <glyph glyph-name="Tbar" unicode="&#x166;" horiz-adv-x="480" 
d="M105 420h50v140h-145v140h460v-140h-145v-140h50v-140h-50v-280h-170v280h-50v140z" />
    <glyph glyph-name="tbar" unicode="&#x167;" horiz-adv-x="480" 
d="M105 420h50v140h-145v140h460v-140h-145v-140h50v-140h-50v-280h-170v280h-50v140z" />
    <glyph glyph-name="Utilde" unicode="&#x168;" 
d="M200 700v-525c0 -9.33301 3.16699 -18.333 9.5 -27s16.5 -13 30.5 -13h40c14 0 24.167 4.33301 30.5 13s9.5 17.667 9.5 27v525h170v-550c0 -22 -3.83301 -42.5 -11.5 -61.5s-18.5 -35.5 -32.5 -49.5s-30.5 -24.833 -49.5 -32.5s-39.5 -11.5 -61.5 -11.5h-150
c-22 0 -42.5 3.83301 -61.5 11.5s-35.5 18.5 -49.5 32.5s-24.833 30.5 -32.5 49.5s-11.5 39.5 -11.5 61.5v550h170zM83 780c8 44.667 21.9971 76.667 41.9971 96s41 29 63 29c10 0 20.333 -1.33301 31 -4s21.334 -5.5 32.001 -8.5l31.5 -8.5
c10.333 -2.66699 20.5 -4 30.5 -4c11.333 0 20.5 2.16699 27.5 6.5s13.167 10.833 18.5 19.5l79 -26c-8 -46 -21 -79.167 -39 -99.5s-36.667 -30.5 -56 -30.5c-10.667 0 -21.667 1.33301 -33 4s-22.666 5.5 -33.999 8.5l-33 8.5c-10.667 2.66699 -20.667 4 -30 4
c-15.333 0 -26.166 -2.33301 -32.499 -7s-12.5 -11 -18.5 -19z" />
    <glyph glyph-name="utilde" unicode="&#x169;" 
d="M200 700v-525c0 -9.33301 3.16699 -18.333 9.5 -27s16.5 -13 30.5 -13h40c14 0 24.167 4.33301 30.5 13s9.5 17.667 9.5 27v525h170v-550c0 -22 -3.83301 -42.5 -11.5 -61.5s-18.5 -35.5 -32.5 -49.5s-30.5 -24.833 -49.5 -32.5s-39.5 -11.5 -61.5 -11.5h-150
c-22 0 -42.5 3.83301 -61.5 11.5s-35.5 18.5 -49.5 32.5s-24.833 30.5 -32.5 49.5s-11.5 39.5 -11.5 61.5v550h170zM83 780c8 44.667 21.9971 76.667 41.9971 96s41 29 63 29c10 0 20.333 -1.33301 31 -4s21.334 -5.5 32.001 -8.5l31.5 -8.5
c10.333 -2.66699 20.5 -4 30.5 -4c11.333 0 20.5 2.16699 27.5 6.5s13.167 10.833 18.5 19.5l79 -26c-8 -46 -21 -79.167 -39 -99.5s-36.667 -30.5 -56 -30.5c-10.667 0 -21.667 1.33301 -33 4s-22.666 5.5 -33.999 8.5l-33 8.5c-10.667 2.66699 -20.667 4 -30 4
c-15.333 0 -26.166 -2.33301 -32.499 -7s-12.5 -11 -18.5 -19z" />
    <glyph glyph-name="Umacron" unicode="&#x16a;" 
d="M200 700v-525c0 -9.33301 3.16699 -18.333 9.5 -27s16.5 -13 30.5 -13h40c14 0 24.167 4.33301 30.5 13s9.5 17.667 9.5 27v525h170v-550c0 -22 -3.83301 -42.5 -11.5 -61.5s-18.5 -35.5 -32.5 -49.5s-30.5 -24.833 -49.5 -32.5s-39.5 -11.5 -61.5 -11.5h-150
c-22 0 -42.5 3.83301 -61.5 11.5s-35.5 18.5 -49.5 32.5s-24.833 30.5 -32.5 49.5s-11.5 39.5 -11.5 61.5v550h170zM95 895h330v-130h-330v130z" />
    <glyph glyph-name="umacron" unicode="&#x16b;" 
d="M200 700v-525c0 -9.33301 3.16699 -18.333 9.5 -27s16.5 -13 30.5 -13h40c14 0 24.167 4.33301 30.5 13s9.5 17.667 9.5 27v525h170v-550c0 -22 -3.83301 -42.5 -11.5 -61.5s-18.5 -35.5 -32.5 -49.5s-30.5 -24.833 -49.5 -32.5s-39.5 -11.5 -61.5 -11.5h-150
c-22 0 -42.5 3.83301 -61.5 11.5s-35.5 18.5 -49.5 32.5s-24.833 30.5 -32.5 49.5s-11.5 39.5 -11.5 61.5v550h170zM95 895h330v-130h-330v130z" />
    <glyph glyph-name="Ubreve" unicode="&#x16c;" 
d="M200 700v-525c0 -9.33301 3.16699 -18.333 9.5 -27s16.5 -13 30.5 -13h40c14 0 24.167 4.33301 30.5 13s9.5 17.667 9.5 27v525h170v-550c0 -22 -3.83301 -42.5 -11.5 -61.5s-18.5 -35.5 -32.5 -49.5s-30.5 -24.833 -49.5 -32.5s-39.5 -11.5 -61.5 -11.5h-150
c-22 0 -42.5 3.83301 -61.5 11.5s-35.5 18.5 -49.5 32.5s-24.833 30.5 -32.5 49.5s-11.5 39.5 -11.5 61.5v550h170zM213 885v-21c0 -5.33301 1.83301 -11 5.5 -17s10.167 -9 19.5 -9h46c9.33301 0 16 3 20 9s6 11.667 6 17v21h97v-36c0 -29.333 -9 -53.166 -27 -71.499
s-41.667 -27.5 -71 -27.5h-97c-28.667 0 -52.167 9.16699 -70.5 27.5s-27.5 42.166 -27.5 71.499v36h99z" />
    <glyph glyph-name="ubreve" unicode="&#x16d;" 
d="M200 700v-525c0 -9.33301 3.16699 -18.333 9.5 -27s16.5 -13 30.5 -13h40c14 0 24.167 4.33301 30.5 13s9.5 17.667 9.5 27v525h170v-550c0 -22 -3.83301 -42.5 -11.5 -61.5s-18.5 -35.5 -32.5 -49.5s-30.5 -24.833 -49.5 -32.5s-39.5 -11.5 -61.5 -11.5h-150
c-22 0 -42.5 3.83301 -61.5 11.5s-35.5 18.5 -49.5 32.5s-24.833 30.5 -32.5 49.5s-11.5 39.5 -11.5 61.5v550h170zM213 885v-21c0 -5.33301 1.83301 -11 5.5 -17s10.167 -9 19.5 -9h46c9.33301 0 16 3 20 9s6 11.667 6 17v21h97v-36c0 -29.333 -9 -53.166 -27 -71.499
s-41.667 -27.5 -71 -27.5h-97c-28.667 0 -52.167 9.16699 -70.5 27.5s-27.5 42.166 -27.5 71.499v36h99z" />
    <glyph glyph-name="Uring" unicode="&#x16e;" 
d="M200 700v-525c0 -9.33301 3.16699 -18.333 9.5 -27s16.5 -13 30.5 -13h40c14 0 24.167 4.33301 30.5 13s9.5 17.667 9.5 27v525h170v-550c0 -22 -3.83301 -42.5 -11.5 -61.5s-18.5 -35.5 -32.5 -49.5s-30.5 -24.833 -49.5 -32.5s-39.5 -11.5 -61.5 -11.5h-150
c-22 0 -42.5 3.83301 -61.5 11.5s-35.5 18.5 -49.5 32.5s-24.833 30.5 -32.5 49.5s-11.5 39.5 -11.5 61.5v550h170zM220 750c-23.333 0 -42.666 7.83301 -57.999 23.5s-23 35.5 -23 59.5v52c0 24 7.66699 43.667 23 59s34.666 23 57.999 23h81
c23.333 0 42.666 -7.66699 57.999 -23s23 -35 23 -59v-52c0 -24 -7.66699 -43.833 -23 -59.5s-34.666 -23.5 -57.999 -23.5h-81zM272 824c7.33301 0 12.666 2.33301 15.999 7s5 9.33398 5 14.001v27c0 5.33301 -1.66699 10.166 -5 14.499s-8.66602 6.5 -15.999 6.5h-22
c-7.33301 0 -12.666 -2.16699 -15.999 -6.5s-5 -9.16602 -5 -14.499v-27c0 -4.66699 1.66699 -9.33398 5 -14.001s8.66602 -7 15.999 -7h22z" />
    <glyph glyph-name="uring" unicode="&#x16f;" 
d="M200 700v-525c0 -9.33301 3.16699 -18.333 9.5 -27s16.5 -13 30.5 -13h40c14 0 24.167 4.33301 30.5 13s9.5 17.667 9.5 27v525h170v-550c0 -22 -3.83301 -42.5 -11.5 -61.5s-18.5 -35.5 -32.5 -49.5s-30.5 -24.833 -49.5 -32.5s-39.5 -11.5 -61.5 -11.5h-150
c-22 0 -42.5 3.83301 -61.5 11.5s-35.5 18.5 -49.5 32.5s-24.833 30.5 -32.5 49.5s-11.5 39.5 -11.5 61.5v550h170zM220 750c-23.333 0 -42.666 7.83301 -57.999 23.5s-23 35.5 -23 59.5v52c0 24 7.66699 43.667 23 59s34.666 23 57.999 23h81
c23.333 0 42.666 -7.66699 57.999 -23s23 -35 23 -59v-52c0 -24 -7.66699 -43.833 -23 -59.5s-34.666 -23.5 -57.999 -23.5h-81zM272 824c7.33301 0 12.666 2.33301 15.999 7s5 9.33398 5 14.001v27c0 5.33301 -1.66699 10.166 -5 14.499s-8.66602 6.5 -15.999 6.5h-22
c-7.33301 0 -12.666 -2.16699 -15.999 -6.5s-5 -9.16602 -5 -14.499v-27c0 -4.66699 1.66699 -9.33398 5 -14.001s8.66602 -7 15.999 -7h22z" />
    <glyph glyph-name="Uhungarumlaut" unicode="&#x170;" 
d="M200 700v-525c0 -9.33301 3.16699 -18.333 9.5 -27s16.5 -13 30.5 -13h40c14 0 24.167 4.33301 30.5 13s9.5 17.667 9.5 27v525h170v-550c0 -22 -3.83301 -42.5 -11.5 -61.5s-18.5 -35.5 -32.5 -49.5s-30.5 -24.833 -49.5 -32.5s-39.5 -11.5 -61.5 -11.5h-150
c-22 0 -42.5 3.83301 -61.5 11.5s-35.5 18.5 -49.5 32.5s-24.833 30.5 -32.5 49.5s-11.5 39.5 -11.5 61.5v550h170zM214 750l-105.001 -0.000976562l79 139c2.66699 4.66699 6 7.66699 10 9s7.66699 2 11 2h88c3.33301 0 7.33301 -2.16699 12 -6.5
s3.33398 -11.166 -3.99902 -20.499zM393.999 749.999l-105.001 -0.000976562l79 139c2.66699 4.66699 6 7.66699 10 9s7.66699 2 11 2h88c3.33301 0 7.33301 -2.16699 12 -6.5s3.33398 -11.166 -3.99902 -20.499z" />
    <glyph glyph-name="uhungarumlaut" unicode="&#x171;" 
d="M200 700v-525c0 -9.33301 3.16699 -18.333 9.5 -27s16.5 -13 30.5 -13h40c14 0 24.167 4.33301 30.5 13s9.5 17.667 9.5 27v525h170v-550c0 -22 -3.83301 -42.5 -11.5 -61.5s-18.5 -35.5 -32.5 -49.5s-30.5 -24.833 -49.5 -32.5s-39.5 -11.5 -61.5 -11.5h-150
c-22 0 -42.5 3.83301 -61.5 11.5s-35.5 18.5 -49.5 32.5s-24.833 30.5 -32.5 49.5s-11.5 39.5 -11.5 61.5v550h170zM214 750l-105.001 -0.000976562l79 139c2.66699 4.66699 6 7.66699 10 9s7.66699 2 11 2h88c3.33301 0 7.33301 -2.16699 12 -6.5
s3.33398 -11.166 -3.99902 -20.499zM393.999 749.999l-105.001 -0.000976562l79 139c2.66699 4.66699 6 7.66699 10 9s7.66699 2 11 2h88c3.33301 0 7.33301 -2.16699 12 -6.5s3.33398 -11.166 -3.99902 -20.499z" />
    <glyph glyph-name="Uogonek" unicode="&#x172;" 
d="M258 -109c0 -5.33301 2 -9.33105 6 -11.998s7.66699 -4.66699 11 -6l54 -15l-30 -74l-55 15l-34 10c-11.333 3.33301 -21.5 7.66602 -30.5 12.999s-16.167 11.833 -21.5 19.5s-8 17.5 -8 29.5c0 11.333 3.16699 22.666 9.5 33.999s12.5 21.666 18.5 30.999l40 59h-33
c-22 0 -42.5 3.83301 -61.5 11.5s-35.5 18.5 -49.5 32.5s-24.833 30.5 -32.5 49.5s-11.5 39.5 -11.5 61.5v550h170v-525c0 -9.33301 3.16699 -18.333 9.5 -27s16.5 -13 30.5 -13h40c14 0 24.167 4.33301 30.5 13s9.5 17.667 9.5 27v525h170v-550
c0 -22 -3.83301 -42.5 -11.5 -61.5s-18.5 -35.5 -32.5 -49.5s-30.5 -24.833 -49.5 -32.5s-39.5 -11.5 -61.5 -11.5h-27l-28 -51c-6.66699 -12 -11.667 -21.333 -15 -28s-5.33301 -11.667 -6 -15s-1 -6.66602 -1 -9.99902z" />
    <glyph glyph-name="uogonek" unicode="&#x173;" 
d="M258 -109c0 -5.33301 2 -9.33105 6 -11.998s7.66699 -4.66699 11 -6l54 -15l-30 -74l-55 15l-34 10c-11.333 3.33301 -21.5 7.66602 -30.5 12.999s-16.167 11.833 -21.5 19.5s-8 17.5 -8 29.5c0 11.333 3.16699 22.666 9.5 33.999s12.5 21.666 18.5 30.999l40 59h-33
c-22 0 -42.5 3.83301 -61.5 11.5s-35.5 18.5 -49.5 32.5s-24.833 30.5 -32.5 49.5s-11.5 39.5 -11.5 61.5v550h170v-525c0 -9.33301 3.16699 -18.333 9.5 -27s16.5 -13 30.5 -13h40c14 0 24.167 4.33301 30.5 13s9.5 17.667 9.5 27v525h170v-550
c0 -22 -3.83301 -42.5 -11.5 -61.5s-18.5 -35.5 -32.5 -49.5s-30.5 -24.833 -49.5 -32.5s-39.5 -11.5 -61.5 -11.5h-27l-28 -51c-6.66699 -12 -11.667 -21.333 -15 -28s-5.33301 -11.667 -6 -15s-1 -6.66602 -1 -9.99902z" />
    <glyph glyph-name="Wcircumflex" unicode="&#x174;" horiz-adv-x="810" 
d="M780 700v-550c0 -22 -3.83301 -42.5 -11.5 -61.5s-18.5 -35.5 -32.5 -49.5s-30.5 -24.833 -49.5 -32.5s-39.5 -11.5 -61.5 -11.5h-80c-32 0 -60.333 7.66699 -85 23s-43 36 -55 62c-12.667 -26 -31.167 -46.667 -55.5 -62s-52.5 -23 -84.5 -23h-80
c-22 0 -42.5 3.83301 -61.5 11.5s-35.5 18.5 -49.5 32.5s-24.833 30.5 -32.5 49.5s-11.5 39.5 -11.5 61.5v550h170v-525c0 -9.33301 3.16699 -18.333 9.5 -27s16.5 -13 30.5 -13h40c14 0 24.167 3.83301 30.5 11.5s9.5 17.167 9.5 28.5v525h170v-525
c0 -11.333 3.16699 -20.833 9.5 -28.5s16.5 -11.5 30.5 -11.5h40c14 0 24.167 4.33301 30.5 13s9.5 17.667 9.5 27v525h170zM477 914c8 0 13.833 -1.66699 17.5 -5s7.16699 -7.66602 10.5 -12.999l90 -146h-135l-55 73l-55 -73h-135l90 146
c3.33301 5.33301 6.83301 9.66602 10.5 12.999s9.5 5 17.5 5h144z" />
    <glyph glyph-name="wcircumflex" unicode="&#x175;" horiz-adv-x="810" 
d="M780 700v-550c0 -22 -3.83301 -42.5 -11.5 -61.5s-18.5 -35.5 -32.5 -49.5s-30.5 -24.833 -49.5 -32.5s-39.5 -11.5 -61.5 -11.5h-80c-32 0 -60.333 7.66699 -85 23s-43 36 -55 62c-12.667 -26 -31.167 -46.667 -55.5 -62s-52.5 -23 -84.5 -23h-80
c-22 0 -42.5 3.83301 -61.5 11.5s-35.5 18.5 -49.5 32.5s-24.833 30.5 -32.5 49.5s-11.5 39.5 -11.5 61.5v550h170v-525c0 -9.33301 3.16699 -18.333 9.5 -27s16.5 -13 30.5 -13h40c14 0 24.167 3.83301 30.5 11.5s9.5 17.167 9.5 28.5v525h170v-525
c0 -11.333 3.16699 -20.833 9.5 -28.5s16.5 -11.5 30.5 -11.5h40c14 0 24.167 4.33301 30.5 13s9.5 17.667 9.5 27v525h170zM477 914c8 0 13.833 -1.66699 17.5 -5s7.16699 -7.66602 10.5 -12.999l90 -146h-135l-55 73l-55 -73h-135l90 146
c3.33301 5.33301 6.83301 9.66602 10.5 12.999s9.5 5 17.5 5h144z" />
    <glyph glyph-name="Ycircumflex" unicode="&#x176;" 
d="M175 0l0.000976562 240c-20.667 1.33301 -40 6.16602 -58 14.499s-33.333 19.333 -46 33s-22.667 29.667 -30 48s-11 38.166 -11 59.499v305h170v-280c0 -9.33301 3.16699 -18.333 9.5 -27s16.5 -13 30.5 -13h40c14 0 24.167 4.33301 30.5 13s9.5 17.667 9.5 27v280h170
v-305c0 -21.333 -3.66699 -41.166 -11 -59.499s-17.333 -34.333 -30 -48s-27.834 -24.667 -45.501 -33s-37.167 -13.166 -58.5 -14.499v-240h-170zM332.001 914c8 0 13.833 -1.66699 17.5 -5s7.16699 -7.66602 10.5 -12.999l90 -146h-135l-55 73l-55 -73h-135l90 146
c3.33301 5.33301 6.83301 9.66602 10.5 12.999s9.5 5 17.5 5h144z" />
    <glyph glyph-name="ycircumflex" unicode="&#x177;" 
d="M175 0l0.000976562 240c-20.667 1.33301 -40 6.16602 -58 14.499s-33.333 19.333 -46 33s-22.667 29.667 -30 48s-11 38.166 -11 59.499v305h170v-280c0 -9.33301 3.16699 -18.333 9.5 -27s16.5 -13 30.5 -13h40c14 0 24.167 4.33301 30.5 13s9.5 17.667 9.5 27v280h170
v-305c0 -21.333 -3.66699 -41.166 -11 -59.499s-17.333 -34.333 -30 -48s-27.834 -24.667 -45.501 -33s-37.167 -13.166 -58.5 -14.499v-240h-170zM332.001 914c8 0 13.833 -1.66699 17.5 -5s7.16699 -7.66602 10.5 -12.999l90 -146h-135l-55 73l-55 -73h-135l90 146
c3.33301 5.33301 6.83301 9.66602 10.5 12.999s9.5 5 17.5 5h144z" />
    <glyph glyph-name="Ydieresis" unicode="&#x178;" 
d="M175 0l0.000976562 240c-20.667 1.33301 -40 6.16602 -58 14.499s-33.333 19.333 -46 33s-22.667 29.667 -30 48s-11 38.166 -11 59.499v305h170v-280c0 -9.33301 3.16699 -18.333 9.5 -27s16.5 -13 30.5 -13h40c14 0 24.167 4.33301 30.5 13s9.5 17.667 9.5 27v280h170
v-305c0 -21.333 -3.66699 -41.166 -11 -59.499s-17.333 -34.333 -30 -48s-27.834 -24.667 -45.501 -33s-37.167 -13.166 -58.5 -14.499v-240h-170zM230.001 900v-150h-160v150h160zM450.001 900v-150h-160v150h160z" />
    <glyph glyph-name="Zacute" unicode="&#x179;" horiz-adv-x="480" 
d="M283 522c8 10 11.999 18.667 11.999 26c0 8 -5 12 -15 12h-235v140h295c17.333 0 33.5 -3.33301 48.5 -10s28.167 -15.667 39.5 -27s20.333 -24.5 27 -39.5s10 -31.167 10 -48.5v-15c0 -4.66699 -0.333008 -11.5 -1 -20.5s-2.33398 -19.167 -5.00098 -30.5
s-7 -23.333 -13 -36s-14.667 -25.334 -26 -38.001l-223 -257c-8 -10 -12 -18.667 -12 -26c0 -8 5 -12 15 -12h270v-140h-330c-17.333 0 -33.5 3.33301 -48.5 10s-28.167 15.667 -39.5 27s-20.333 24.5 -27 39.5s-10 31.167 -10 48.5v15c0 5.33301 0.5 12.333 1.5 21
s3.33301 18.667 7 30s8.83398 23.333 15.501 36s15.334 25.334 26.001 38.001zM327.999 750l-135.001 -0.000976562l79 139c2.66699 4.66699 6 7.66699 10 9s7.66699 2 11 2h118c3.33301 0 7.33301 -2.16699 12 -6.5s3.33398 -11.166 -3.99902 -20.499z" />
    <glyph glyph-name="zacute" unicode="&#x17a;" horiz-adv-x="480" 
d="M283 522c8 10 11.999 18.667 11.999 26c0 8 -5 12 -15 12h-235v140h295c17.333 0 33.5 -3.33301 48.5 -10s28.167 -15.667 39.5 -27s20.333 -24.5 27 -39.5s10 -31.167 10 -48.5v-15c0 -4.66699 -0.333008 -11.5 -1 -20.5s-2.33398 -19.167 -5.00098 -30.5
s-7 -23.333 -13 -36s-14.667 -25.334 -26 -38.001l-223 -257c-8 -10 -12 -18.667 -12 -26c0 -8 5 -12 15 -12h270v-140h-330c-17.333 0 -33.5 3.33301 -48.5 10s-28.167 15.667 -39.5 27s-20.333 24.5 -27 39.5s-10 31.167 -10 48.5v15c0 5.33301 0.5 12.333 1.5 21
s3.33301 18.667 7 30s8.83398 23.333 15.501 36s15.334 25.334 26.001 38.001zM327.999 750l-135.001 -0.000976562l79 139c2.66699 4.66699 6 7.66699 10 9s7.66699 2 11 2h118c3.33301 0 7.33301 -2.16699 12 -6.5s3.33398 -11.166 -3.99902 -20.499z" />
    <glyph glyph-name="Zdotaccent" unicode="&#x17b;" horiz-adv-x="480" 
d="M283 522c8 10 11.999 18.667 11.999 26c0 8 -5 12 -15 12h-235v140h295c17.333 0 33.5 -3.33301 48.5 -10s28.167 -15.667 39.5 -27s20.333 -24.5 27 -39.5s10 -31.167 10 -48.5v-15c0 -4.66699 -0.333008 -11.5 -1 -20.5s-2.33398 -19.167 -5.00098 -30.5
s-7 -23.333 -13 -36s-14.667 -25.334 -26 -38.001l-223 -257c-8 -10 -12 -18.667 -12 -26c0 -8 5 -12 15 -12h270v-140h-330c-17.333 0 -33.5 3.33301 -48.5 10s-28.167 15.667 -39.5 27s-20.333 24.5 -27 39.5s-10 31.167 -10 48.5v15c0 5.33301 0.5 12.333 1.5 21
s3.33301 18.667 7 30s8.83398 23.333 15.501 36s15.334 25.334 26.001 38.001zM353.999 900v-150h-170v150h170z" />
    <glyph glyph-name="zdotaccent" unicode="&#x17c;" horiz-adv-x="480" 
d="M283 522c8 10 11.999 18.667 11.999 26c0 8 -5 12 -15 12h-235v140h295c17.333 0 33.5 -3.33301 48.5 -10s28.167 -15.667 39.5 -27s20.333 -24.5 27 -39.5s10 -31.167 10 -48.5v-15c0 -4.66699 -0.333008 -11.5 -1 -20.5s-2.33398 -19.167 -5.00098 -30.5
s-7 -23.333 -13 -36s-14.667 -25.334 -26 -38.001l-223 -257c-8 -10 -12 -18.667 -12 -26c0 -8 5 -12 15 -12h270v-140h-330c-17.333 0 -33.5 3.33301 -48.5 10s-28.167 15.667 -39.5 27s-20.333 24.5 -27 39.5s-10 31.167 -10 48.5v15c0 5.33301 0.5 12.333 1.5 21
s3.33301 18.667 7 30s8.83398 23.333 15.501 36s15.334 25.334 26.001 38.001zM353.999 900v-150h-170v150h170z" />
    <glyph glyph-name="Zcaron" unicode="&#x17d;" horiz-adv-x="480" 
d="M283 522c8 10 11.999 18.667 11.999 26c0 8 -5 12 -15 12h-235v140h295c17.333 0 33.5 -3.33301 48.5 -10s28.167 -15.667 39.5 -27s20.333 -24.5 27 -39.5s10 -31.167 10 -48.5v-15c0 -4.66699 -0.333008 -11.5 -1 -20.5s-2.33398 -19.167 -5.00098 -30.5
s-7 -23.333 -13 -36s-14.667 -25.334 -26 -38.001l-223 -257c-8 -10 -12 -18.667 -12 -26c0 -8 5 -12 15 -12h270v-140h-330c-17.333 0 -33.5 3.33301 -48.5 10s-28.167 15.667 -39.5 27s-20.333 24.5 -27 39.5s-10 31.167 -10 48.5v15c0 5.33301 0.5 12.333 1.5 21
s3.33301 18.667 7 30s8.83398 23.333 15.501 36s15.334 25.334 26.001 38.001zM177.999 750c-8 0 -13.833 1.66699 -17.5 5s-7.16699 7.66602 -10.5 12.999l-90 146h135l55 -73l55 73h135l-90 -146c-3.33301 -5.33301 -6.83301 -9.66602 -10.5 -12.999s-9.5 -5 -17.5 -5
h-144z" />
    <glyph glyph-name="zcaron" unicode="&#x17e;" horiz-adv-x="480" 
d="M283 522c8 10 11.999 18.667 11.999 26c0 8 -5 12 -15 12h-235v140h295c17.333 0 33.5 -3.33301 48.5 -10s28.167 -15.667 39.5 -27s20.333 -24.5 27 -39.5s10 -31.167 10 -48.5v-15c0 -4.66699 -0.333008 -11.5 -1 -20.5s-2.33398 -19.167 -5.00098 -30.5
s-7 -23.333 -13 -36s-14.667 -25.334 -26 -38.001l-223 -257c-8 -10 -12 -18.667 -12 -26c0 -8 5 -12 15 -12h270v-140h-330c-17.333 0 -33.5 3.33301 -48.5 10s-28.167 15.667 -39.5 27s-20.333 24.5 -27 39.5s-10 31.167 -10 48.5v15c0 5.33301 0.5 12.333 1.5 21
s3.33301 18.667 7 30s8.83398 23.333 15.501 36s15.334 25.334 26.001 38.001zM177.999 750c-8 0 -13.833 1.66699 -17.5 5s-7.16699 7.66602 -10.5 12.999l-90 146h135l55 -73l55 73h135l-90 -146c-3.33301 -5.33301 -6.83301 -9.66602 -10.5 -12.999s-9.5 -5 -17.5 -5
h-144z" />
    <glyph glyph-name="florin" unicode="&#x192;" horiz-adv-x="468" 
d="M79 420h70l17 125c3.33301 22 10.166 42.5 20.499 61.5s23.5 35.5 39.5 49.5s34 24.833 54 32.5s41 11.5 63 11.5h105l-20 -140h-50c-14 0 -24.667 -4.33301 -32 -13s-11.666 -17.667 -12.999 -27l-14 -100h90l-20 -140h-90l-37 -260
c-3.33301 -26.667 -13 -53.167 -29 -79.5s-40.333 -50.5 -73 -72.5l-87 -58l-73 115l67 48c7.33301 5.33301 12.833 10.5 16.5 15.5s6.16699 12.167 7.5 21.5l38 270h-69z" />
    <glyph glyph-name="AEacute" unicode="&#x1fc;" horiz-adv-x="770" 
d="M750 140v-140h-275c-22 -0 -42.5 3.83301 -61.5 11.5s-35.5 18.5 -49.5 32.5s-24.833 30.5 -32.5 49.5s-11.5 39.5 -11.5 61.5v115h-90v140h90v110c0 11.333 -3.16699 20.833 -9.5 28.5s-16.5 11.5 -30.5 11.5h-40c-14 0 -24.167 -4.33301 -30.5 -13
s-9.5 -17.667 -9.5 -27v-520h-170v545c0 22 3.83301 42.5 11.5 61.5s18.5 35.5 32.5 49.5s30.5 24.833 49.5 32.5s39.5 11.5 61.5 11.5h100c24.667 0 47.334 -4.83301 68.001 -14.5s38 -22.834 52 -39.501c14 16.667 31.167 29.834 51.5 39.501s43.166 14.5 68.499 14.5h225
v-140h-220c-14 0 -24.167 -4.33301 -30.5 -13s-9.5 -17.667 -9.5 -27v-110h190v-140h-190v-90c0 -9.33301 3.16699 -18.333 9.5 -27s16.5 -13 30.5 -13h220zM454 750l-135.001 -0.000976562l79 139c2.66699 4.66699 6 7.66699 10 9s7.66699 2 11 2h118
c3.33301 0 7.33301 -2.16699 12 -6.5s3.33398 -11.166 -3.99902 -20.499z" />
    <glyph glyph-name="aeacute" unicode="&#x1fd;" horiz-adv-x="770" 
d="M750 140v-140h-275c-22 -0 -42.5 3.83301 -61.5 11.5s-35.5 18.5 -49.5 32.5s-24.833 30.5 -32.5 49.5s-11.5 39.5 -11.5 61.5v115h-90v140h90v110c0 11.333 -3.16699 20.833 -9.5 28.5s-16.5 11.5 -30.5 11.5h-40c-14 0 -24.167 -4.33301 -30.5 -13
s-9.5 -17.667 -9.5 -27v-520h-170v545c0 22 3.83301 42.5 11.5 61.5s18.5 35.5 32.5 49.5s30.5 24.833 49.5 32.5s39.5 11.5 61.5 11.5h100c24.667 0 47.334 -4.83301 68.001 -14.5s38 -22.834 52 -39.501c14 16.667 31.167 29.834 51.5 39.501s43.166 14.5 68.499 14.5h225
v-140h-220c-14 0 -24.167 -4.33301 -30.5 -13s-9.5 -17.667 -9.5 -27v-110h190v-140h-190v-90c0 -9.33301 3.16699 -18.333 9.5 -27s16.5 -13 30.5 -13h220zM454 750l-135.001 -0.000976562l79 139c2.66699 4.66699 6 7.66699 10 9s7.66699 2 11 2h118
c3.33301 0 7.33301 -2.16699 12 -6.5s3.33398 -11.166 -3.99902 -20.499z" />
    <glyph glyph-name="Oslashacute" unicode="&#x1fe;" 
d="M329 750l-135.001 -0.000976562l79 139c2.66699 4.66699 6 7.66699 10 9s7.66699 2 11 2h118c3.33301 0 7.33301 -2.16699 12 -6.5s3.33398 -11.166 -3.99902 -20.499zM169.999 -50.001h-70l18 58c-26.667 12 -48 30.5 -64 55.5s-24 53.833 -24 86.5v400
c0 22 3.83301 42.5 11.5 61.5s18.5 35.5 32.5 49.5s30.5 24.833 49.5 32.5s39.5 11.5 61.5 11.5h150h1l14 45h70l-19 -59c27.333 -11.333 49 -29.5 65 -54.5s24 -53.833 24 -86.5v-400c0 -22 -3.83301 -42.5 -11.5 -61.5s-18.5 -35.5 -32.5 -49.5s-30.5 -24.833 -49.5 -32.5
s-39.5 -11.5 -61.5 -11.5h-150h-1zM239.999 564.999c-14 0 -24.167 -4.33301 -30.5 -13s-9.5 -17.667 -9.5 -27v-256l92 294c-5.33301 1.33301 -9.33301 2 -12 2h-40zM279.999 134.999c14 0 24.167 4.33301 30.5 13s9.5 17.667 9.5 27v255l-92 -294c2 -0.666992 6 -1 12 -1
h40z" />
    <glyph glyph-name="oslashacute" unicode="&#x1ff;" 
d="M329 750l-135.001 -0.000976562l79 139c2.66699 4.66699 6 7.66699 10 9s7.66699 2 11 2h118c3.33301 0 7.33301 -2.16699 12 -6.5s3.33398 -11.166 -3.99902 -20.499zM169.999 -50.001h-70l18 58c-26.667 12 -48 30.5 -64 55.5s-24 53.833 -24 86.5v400
c0 22 3.83301 42.5 11.5 61.5s18.5 35.5 32.5 49.5s30.5 24.833 49.5 32.5s39.5 11.5 61.5 11.5h150h1l14 45h70l-19 -59c27.333 -11.333 49 -29.5 65 -54.5s24 -53.833 24 -86.5v-400c0 -22 -3.83301 -42.5 -11.5 -61.5s-18.5 -35.5 -32.5 -49.5s-30.5 -24.833 -49.5 -32.5
s-39.5 -11.5 -61.5 -11.5h-150h-1zM239.999 564.999c-14 0 -24.167 -4.33301 -30.5 -13s-9.5 -17.667 -9.5 -27v-256l92 294c-5.33301 1.33301 -9.33301 2 -12 2h-40zM279.999 134.999c14 0 24.167 4.33301 30.5 13s9.5 17.667 9.5 27v255l-92 -294c2 -0.666992 6 -1 12 -1
h40z" />
    <glyph glyph-name="Scommaaccent" unicode="&#x218;" horiz-adv-x="490" 
d="M295 240c0 17.333 -8.33301 28 -25 32l-120 28c-16.667 4 -32.5 9.66699 -47.5 17s-28.333 16 -40 26s-20.834 21.833 -27.501 35.5s-10 29.167 -10 46.5v120c0 22 3.83301 42.5 11.5 61.5s18.5 35.5 32.5 49.5s30.5 24.833 49.5 32.5s39.5 11.5 61.5 11.5h270v-140h-215
c-14 0 -24.167 -4.33301 -30.5 -13s-9.5 -17.667 -9.5 -27v-40c0 -17.333 8.33301 -28 25 -32l120 -28c16.667 -4 32.5 -9.66699 47.5 -17s28.333 -16 40 -26s20.834 -21.833 27.501 -35.5s10 -29.167 10 -46.5v-140c0 -22 -3.83301 -42.5 -11.5 -61.5
s-18.5 -35.5 -32.5 -49.5s-30.5 -24.833 -49.5 -32.5s-39.5 -11.5 -61.5 -11.5h-285v140h230c14 0 24.167 4.33301 30.5 13s9.5 17.667 9.5 27v60zM325 -115c0 -44.667 -14.667 -78.333 -44 -101s-66.333 -34 -111 -34h-15v200h170v-65z" />
    <glyph glyph-name="scommaaccent" unicode="&#x219;" horiz-adv-x="490" 
d="M295 240c0 17.333 -8.33301 28 -25 32l-120 28c-16.667 4 -32.5 9.66699 -47.5 17s-28.333 16 -40 26s-20.834 21.833 -27.501 35.5s-10 29.167 -10 46.5v120c0 22 3.83301 42.5 11.5 61.5s18.5 35.5 32.5 49.5s30.5 24.833 49.5 32.5s39.5 11.5 61.5 11.5h270v-140h-215
c-14 0 -24.167 -4.33301 -30.5 -13s-9.5 -17.667 -9.5 -27v-40c0 -17.333 8.33301 -28 25 -32l120 -28c16.667 -4 32.5 -9.66699 47.5 -17s28.333 -16 40 -26s20.834 -21.833 27.501 -35.5s10 -29.167 10 -46.5v-140c0 -22 -3.83301 -42.5 -11.5 -61.5
s-18.5 -35.5 -32.5 -49.5s-30.5 -24.833 -49.5 -32.5s-39.5 -11.5 -61.5 -11.5h-285v140h230c14 0 24.167 4.33301 30.5 13s9.5 17.667 9.5 27v60zM325 -115c0 -44.667 -14.667 -78.333 -44 -101s-66.333 -34 -111 -34h-15v200h170v-65z" />
    <glyph glyph-name="uni021A" unicode="&#x21a;" horiz-adv-x="480" 
d="M10 560v140h460v-140h-145v-560h-170v560h-145zM325 -113c0 -44.667 -14.667 -78.333 -44 -101s-66.333 -34 -111 -34h-15v200h170v-65z" />
    <glyph glyph-name="uni021B" unicode="&#x21b;" horiz-adv-x="480" 
d="M10 560v140h460v-140h-145v-560h-170v560h-145zM325 -113c0 -44.667 -14.667 -78.333 -44 -101s-66.333 -34 -111 -34h-15v200h170v-65z" />
    <glyph glyph-name="dotlessj" unicode="&#x237;" horiz-adv-x="230" 
d="M30 700h170v-680c0 -26.667 -6 -53.167 -18 -79.5s-33 -50.5 -63 -72.5l-79 -58l-90 115l61 48c6.66699 5.33301 11.5 10.5 14.5 15.5s4.5 12.167 4.5 21.5v690z" />
    <glyph glyph-name="jsuperior" unicode="&#x2b2;" horiz-adv-x="185" 
d="M70 700h85v-340c0 -13.333 -3 -26.5 -9 -39.5s-16.667 -25.167 -32 -36.5l-39 -29l-45 57l30 24c6.66699 4.66699 10 11 10 19v345z" />
    <glyph glyph-name="wsuperior" unicode="&#x2b7;" horiz-adv-x="435" 
d="M405 700l0.000976562 -275c0 -22.667 -7.33301 -41.334 -22 -56.001s-33.334 -22 -56.001 -22h-40c-16 0 -30.167 3.83301 -42.5 11.5s-21.5 18.167 -27.5 31.5c-6 -13.333 -15.167 -23.833 -27.5 -31.5s-26.5 -11.5 -42.5 -11.5h-40c-22 0 -40.333 7.33301 -55 22
s-22 33.334 -22 56.001v275h85v-263c0 -4.66699 1.5 -9.16699 4.5 -13.5s8.16699 -6.5 15.5 -6.5h20c7.33301 0 12.5 2 15.5 6s4.5 8.66699 4.5 14v263h85v-263c0 -5.33301 1.5 -10 4.5 -14s8.16699 -6 15.5 -6h20c7.33301 0 12.5 2.16699 15.5 6.5s4.5 8.83301 4.5 13.5
v263h85z" />
    <glyph glyph-name="ysuperior" unicode="&#x2b8;" horiz-adv-x="290" 
d="M102 350l-0.000976562 120c-21.333 1.33301 -38.666 9.16602 -51.999 23.499s-20 32.166 -20 53.499v153h85v-140c0 -4.66699 1.5 -9.16699 4.5 -13.5s8.16699 -6.5 15.5 -6.5h20c7.33301 0 12.5 2.16699 15.5 6.5s4.5 8.83301 4.5 13.5v140h85v-153
c0 -21.333 -6.83301 -39.166 -20.5 -53.499s-31.167 -22.166 -52.5 -23.499v-120h-85z" />
    <glyph glyph-name="circumflex" unicode="&#x2c6;" horiz-adv-x="480" 
d="M312 914c8 0 13.833 -1.66699 17.5 -5s7.16699 -7.66602 10.5 -12.999l90 -146h-135l-55 73l-55 -73h-135l90 146c3.33301 5.33301 6.83301 9.66602 10.5 12.999s9.5 5 17.5 5h144z" />
    <glyph glyph-name="caron" unicode="&#x2c7;" horiz-adv-x="480" 
d="M168 750c-8 0 -13.833 1.66699 -17.5 5s-7.16699 7.66602 -10.5 12.999l-90 146h135l55 -73l55 73h135l-90 -146c-3.33301 -5.33301 -6.83301 -9.66602 -10.5 -12.999s-9.5 -5 -17.5 -5h-144z" />
    <glyph glyph-name="uni02C9" unicode="&#x2c9;" horiz-adv-x="430" 
d="M50 895h330v-130h-330v130z" />
    <glyph glyph-name="breve" unicode="&#x2d8;" horiz-adv-x="343" 
d="M124 885v-21c0 -5.33301 1.83301 -11 5.5 -17s10.167 -9 19.5 -9h46c9.33301 0 16 3 20 9s6 11.667 6 17v21h97v-36c0 -29.333 -9 -53.166 -27 -71.499s-41.667 -27.5 -71 -27.5h-97c-28.667 0 -52.167 9.16699 -70.5 27.5s-27.5 42.166 -27.5 71.499v36h99z" />
    <glyph glyph-name="dotaccent" unicode="&#x2d9;" horiz-adv-x="270" 
d="M220 900v-150h-170v150h170z" />
    <glyph glyph-name="ring" unicode="&#x2da;" horiz-adv-x="343" 
d="M131 750c-23.333 0 -42.666 7.83301 -57.999 23.5s-23 35.5 -23 59.5v52c0 24 7.66699 43.667 23 59s34.666 23 57.999 23h81c23.333 0 42.666 -7.66699 57.999 -23s23 -35 23 -59v-52c0 -24 -7.66699 -43.833 -23 -59.5s-34.666 -23.5 -57.999 -23.5h-81zM183 824
c7.33301 0 12.666 2.33301 15.999 7s5 9.33398 5 14.001v27c0 5.33301 -1.66699 10.166 -5 14.499s-8.66602 6.5 -15.999 6.5h-22c-7.33301 0 -12.666 -2.16699 -15.999 -6.5s-5 -9.16602 -5 -14.499v-27c0 -4.66699 1.66699 -9.33398 5 -14.001s8.66602 -7 15.999 -7h22z
" />
    <glyph glyph-name="ogonek" unicode="&#x2db;" horiz-adv-x="269" 
d="M148 -109c0 -5.33301 2 -9.33105 6 -11.998s7.66699 -4.66699 11 -6l54 -15l-30 -74l-55 15l-34 10c-11.333 3.33301 -21.5 7.66602 -30.5 12.999s-16.167 11.833 -21.5 19.5s-8 17.5 -8 29.5c0 11.333 3.16699 22.666 9.5 33.999s12.5 21.666 18.5 30.999l44 64h89
l-29.5 -54c-7 -12.667 -12.167 -22.5 -15.5 -29.5s-5.5 -12.167 -6.5 -15.5s-1.5 -6.66602 -1.5 -9.99902z" />
    <glyph glyph-name="tilde" unicode="&#x2dc;" horiz-adv-x="455" 
d="M50 780c8 44.667 21.9971 76.667 41.9971 96s41 29 63 29c10 0 20.333 -1.33301 31 -4s21.334 -5.5 32.001 -8.5l31.5 -8.5c10.333 -2.66699 20.5 -4 30.5 -4c11.333 0 20.5 2.16699 27.5 6.5s13.167 10.833 18.5 19.5l79 -26c-8 -46 -21 -79.167 -39 -99.5
s-36.667 -30.5 -56 -30.5c-10.667 0 -21.667 1.33301 -33 4s-22.666 5.5 -33.999 8.5l-33 8.5c-10.667 2.66699 -20.667 4 -30 4c-15.333 0 -26.166 -2.33301 -32.499 -7s-12.5 -11 -18.5 -19z" />
    <glyph glyph-name="hungarumlaut" unicode="&#x2dd;" horiz-adv-x="482" 
d="M155 750l-105.001 -0.000976562l79 139c2.66699 4.66699 6 7.66699 10 9s7.66699 2 11 2h88c3.33301 0 7.33301 -2.16699 12 -6.5s3.33398 -11.166 -3.99902 -20.499zM334.999 749.999l-105.001 -0.000976562l79 139c2.66699 4.66699 6 7.66699 10 9s7.66699 2 11 2h88
c3.33301 0 7.33301 -2.16699 12 -6.5s3.33398 -11.166 -3.99902 -20.499z" />
    <glyph glyph-name="xsuperior" unicode="&#x2e3;" horiz-adv-x="290" 
d="M30 350v107c0 17.333 4.33301 32.5 13 45.5s20.334 22.167 35.001 27.5c-14.667 5.33301 -26.334 14.333 -35.001 27s-13 27.667 -13 45v98h85v-120c0 -4.66699 1.5 -9.16699 4.5 -13.5s8.16699 -6.5 15.5 -6.5h20c7.33301 0 12.5 2.16699 15.5 6.5s4.5 8.83301 4.5 13.5
v120h85v-98c0 -17.333 -4.5 -32.333 -13.5 -45s-20.833 -21.667 -35.5 -27c14.667 -5.33301 26.5 -14.5 35.5 -27.5s13.5 -28.167 13.5 -45.5v-107h-85v120c0 4.66699 -1.5 9.16699 -4.5 13.5s-8.16699 6.5 -15.5 6.5h-20c-7.33301 0 -12.5 -2.16699 -15.5 -6.5
s-4.5 -8.83301 -4.5 -13.5v-120h-85z" />
    <glyph glyph-name="uni037E" unicode="&#x37e;" horiz-adv-x="250" 
d="M200 340v-140h-150v140h150z" />
    <glyph glyph-name="tonos" unicode="&#x384;" horiz-adv-x="332" 
d="M185 750l-135.001 -0.000976562l79 139c2.66699 4.66699 6 7.66699 10 9s7.66699 2 11 2h118c3.33301 0 7.33301 -2.16699 12 -6.5s3.33398 -11.166 -3.99902 -20.499z" />
    <glyph glyph-name="dieresistonos" unicode="&#x385;" horiz-adv-x="680" 
d="M210 900v-150h-160v150h160zM630 900v-150h-160v150h160zM370 750l-135 0.000976562l79 209c2 5.33301 5.16699 8.5 9.5 9.5s8.16602 1.5 11.499 1.5h118c3.33301 0 6.83301 -1.83301 10.5 -5.5s2.83398 -10.834 -2.49902 -21.501z" />
    <glyph glyph-name="anoteleia" unicode="&#x387;" horiz-adv-x="480" 
d="M210 900v-150h-160v150h160zM430 900v-150h-160v150h160z" />
    <glyph glyph-name="uni03BC" unicode="&#x3bc;" 
d="M200 700l0.000976562 -528.997c0.666992 -8.66699 4.16699 -16.834 10.5 -24.501s16.166 -11.5 29.499 -11.5h40c14 0 24.167 4.33301 30.5 13s9.5 17.667 9.5 27v525h170v-550c0 -22 -3.83301 -42.5 -11.5 -61.5s-18.5 -35.5 -32.5 -49.5s-30.5 -24.833 -49.5 -32.5
s-39.5 -11.5 -61.5 -11.5h-137c-3.33301 -22.667 -11 -44.834 -23 -66.501s-30.667 -41.834 -56 -60.501l-79 -58l-90 115l61 48c6.66699 5.33301 11.5 10.5 14.5 15.5s4.5 12.167 4.5 21.5v690h170z" />
    <glyph glyph-name="pi" unicode="&#x3c0;" 
d="M30 0v700h460v-700h-170v560h-120v-560h-170z" />
    <glyph glyph-name="uni03C2" unicode="&#x3c2;" horiz-adv-x="418" 
d="M82 249c0 22.667 3.33203 43.6699 9.99902 63.0029s16 36.333 28 51l-63 90l6 8l65 -90c11.333 11.333 23.833 20.166 37.5 26.499s28.5 9.5 44.5 9.5c15.333 0 29.666 -3.16699 42.999 -9.5s25.666 -15.166 36.999 -26.499l64 90l7 -8l-63 -89
c12.667 -14.667 22.5 -31.834 29.5 -51.501s10.5 -40.834 10.5 -63.501s-3.5 -43.834 -10.5 -63.501s-16.5 -36.5 -28.5 -50.5l62 -86l-8 -9l-63 87c-11.333 -11.333 -23.666 -20 -36.999 -26s-27.666 -9 -42.999 -9c-31.333 0 -58.666 11.667 -81.999 35l-62 -87l-7 9
l61 86c-12 14.667 -21.333 31.667 -28 51s-10 40.333 -10 63zM91.999 249.003c0 -20 3.16699 -38.667 9.5 -56s14.833 -32.666 25.5 -45.999s23.167 -23.833 37.5 -31.5s29.5 -11.5 45.5 -11.5s31.167 3.83301 45.5 11.5s26.833 18.167 37.5 31.5s19.167 28.666 25.5 45.999
s9.5 36 9.5 56s-3.16699 38.833 -9.5 56.5s-14.833 33.167 -25.5 46.5s-23.167 23.833 -37.5 31.5s-29.5 11.5 -45.5 11.5s-31.167 -3.83301 -45.5 -11.5s-26.833 -18.167 -37.5 -31.5s-19.167 -28.833 -25.5 -46.5s-9.5 -36.5 -9.5 -56.5z" />
    <glyph glyph-name="sigma" unicode="&#x3c3;" horiz-adv-x="418" 
d="M82 249c0 22.667 3.33203 43.6699 9.99902 63.0029s16 36.333 28 51l-63 90l6 8l65 -90c11.333 11.333 23.833 20.166 37.5 26.499s28.5 9.5 44.5 9.5c15.333 0 29.666 -3.16699 42.999 -9.5s25.666 -15.166 36.999 -26.499l64 90l7 -8l-63 -89
c12.667 -14.667 22.5 -31.834 29.5 -51.501s10.5 -40.834 10.5 -63.501s-3.5 -43.834 -10.5 -63.501s-16.5 -36.5 -28.5 -50.5l62 -86l-8 -9l-63 87c-11.333 -11.333 -23.666 -20 -36.999 -26s-27.666 -9 -42.999 -9c-31.333 0 -58.666 11.667 -81.999 35l-62 -87l-7 9
l61 86c-12 14.667 -21.333 31.667 -28 51s-10 40.333 -10 63zM91.999 249.003c0 -20 3.16699 -38.667 9.5 -56s14.833 -32.666 25.5 -45.999s23.167 -23.833 37.5 -31.5s29.5 -11.5 45.5 -11.5s31.167 3.83301 45.5 11.5s26.833 18.167 37.5 31.5s19.167 28.666 25.5 45.999
s9.5 36 9.5 56s-3.16699 38.833 -9.5 56.5s-14.833 33.167 -25.5 46.5s-23.167 23.833 -37.5 31.5s-29.5 11.5 -45.5 11.5s-31.167 -3.83301 -45.5 -11.5s-26.833 -18.167 -37.5 -31.5s-19.167 -28.833 -25.5 -46.5s-9.5 -36.5 -9.5 -56.5z" />
    <glyph glyph-name="Wgrave" unicode="&#x1e80;" horiz-adv-x="810" 
d="M780 700v-550c0 -22 -3.83301 -42.5 -11.5 -61.5s-18.5 -35.5 -32.5 -49.5s-30.5 -24.833 -49.5 -32.5s-39.5 -11.5 -61.5 -11.5h-80c-32 0 -60.333 7.66699 -85 23s-43 36 -55 62c-12.667 -26 -31.167 -46.667 -55.5 -62s-52.5 -23 -84.5 -23h-80
c-22 0 -42.5 3.83301 -61.5 11.5s-35.5 18.5 -49.5 32.5s-24.833 30.5 -32.5 49.5s-11.5 39.5 -11.5 61.5v550h170v-525c0 -9.33301 3.16699 -18.333 9.5 -27s16.5 -13 30.5 -13h40c14 0 24.167 3.83301 30.5 11.5s9.5 17.167 9.5 28.5v525h170v-525
c0 -11.333 3.16699 -20.833 9.5 -28.5s16.5 -11.5 30.5 -11.5h40c14 0 24.167 4.33301 30.5 13s9.5 17.667 9.5 27v525h170zM244 873c-7.33301 9.33301 -8.66699 16.167 -4 20.5s8.66699 6.5 12 6.5h118c3.33301 0 7 -0.666992 11 -2s7.33301 -4.33301 10 -9l79 -139h-135z
" />
    <glyph glyph-name="wgrave" unicode="&#x1e81;" horiz-adv-x="810" 
d="M780 700v-550c0 -22 -3.83301 -42.5 -11.5 -61.5s-18.5 -35.5 -32.5 -49.5s-30.5 -24.833 -49.5 -32.5s-39.5 -11.5 -61.5 -11.5h-80c-32 0 -60.333 7.66699 -85 23s-43 36 -55 62c-12.667 -26 -31.167 -46.667 -55.5 -62s-52.5 -23 -84.5 -23h-80
c-22 0 -42.5 3.83301 -61.5 11.5s-35.5 18.5 -49.5 32.5s-24.833 30.5 -32.5 49.5s-11.5 39.5 -11.5 61.5v550h170v-525c0 -9.33301 3.16699 -18.333 9.5 -27s16.5 -13 30.5 -13h40c14 0 24.167 3.83301 30.5 11.5s9.5 17.167 9.5 28.5v525h170v-525
c0 -11.333 3.16699 -20.833 9.5 -28.5s16.5 -11.5 30.5 -11.5h40c14 0 24.167 4.33301 30.5 13s9.5 17.667 9.5 27v525h170zM244 873c-7.33301 9.33301 -8.66699 16.167 -4 20.5s8.66699 6.5 12 6.5h118c3.33301 0 7 -0.666992 11 -2s7.33301 -4.33301 10 -9l79 -139h-135z
" />
    <glyph glyph-name="Wacute" unicode="&#x1e82;" horiz-adv-x="810" 
d="M780 700v-550c0 -22 -3.83301 -42.5 -11.5 -61.5s-18.5 -35.5 -32.5 -49.5s-30.5 -24.833 -49.5 -32.5s-39.5 -11.5 -61.5 -11.5h-80c-32 0 -60.333 7.66699 -85 23s-43 36 -55 62c-12.667 -26 -31.167 -46.667 -55.5 -62s-52.5 -23 -84.5 -23h-80
c-22 0 -42.5 3.83301 -61.5 11.5s-35.5 18.5 -49.5 32.5s-24.833 30.5 -32.5 49.5s-11.5 39.5 -11.5 61.5v550h170v-525c0 -9.33301 3.16699 -18.333 9.5 -27s16.5 -13 30.5 -13h40c14 0 24.167 3.83301 30.5 11.5s9.5 17.167 9.5 28.5v525h170v-525
c0 -11.333 3.16699 -20.833 9.5 -28.5s16.5 -11.5 30.5 -11.5h40c14 0 24.167 4.33301 30.5 13s9.5 17.667 9.5 27v525h170zM474 750l-135.001 -0.000976562l79 139c2.66699 4.66699 6 7.66699 10 9s7.66699 2 11 2h118c3.33301 0 7.33301 -2.16699 12 -6.5
s3.33398 -11.166 -3.99902 -20.499z" />
    <glyph glyph-name="wacute" unicode="&#x1e83;" horiz-adv-x="810" 
d="M780 700v-550c0 -22 -3.83301 -42.5 -11.5 -61.5s-18.5 -35.5 -32.5 -49.5s-30.5 -24.833 -49.5 -32.5s-39.5 -11.5 -61.5 -11.5h-80c-32 0 -60.333 7.66699 -85 23s-43 36 -55 62c-12.667 -26 -31.167 -46.667 -55.5 -62s-52.5 -23 -84.5 -23h-80
c-22 0 -42.5 3.83301 -61.5 11.5s-35.5 18.5 -49.5 32.5s-24.833 30.5 -32.5 49.5s-11.5 39.5 -11.5 61.5v550h170v-525c0 -9.33301 3.16699 -18.333 9.5 -27s16.5 -13 30.5 -13h40c14 0 24.167 3.83301 30.5 11.5s9.5 17.167 9.5 28.5v525h170v-525
c0 -11.333 3.16699 -20.833 9.5 -28.5s16.5 -11.5 30.5 -11.5h40c14 0 24.167 4.33301 30.5 13s9.5 17.667 9.5 27v525h170zM474 750l-135.001 -0.000976562l79 139c2.66699 4.66699 6 7.66699 10 9s7.66699 2 11 2h118c3.33301 0 7.33301 -2.16699 12 -6.5
s3.33398 -11.166 -3.99902 -20.499z" />
    <glyph glyph-name="Wdieresis" unicode="&#x1e84;" horiz-adv-x="810" 
d="M780 700v-550c0 -22 -3.83301 -42.5 -11.5 -61.5s-18.5 -35.5 -32.5 -49.5s-30.5 -24.833 -49.5 -32.5s-39.5 -11.5 -61.5 -11.5h-80c-32 0 -60.333 7.66699 -85 23s-43 36 -55 62c-12.667 -26 -31.167 -46.667 -55.5 -62s-52.5 -23 -84.5 -23h-80
c-22 0 -42.5 3.83301 -61.5 11.5s-35.5 18.5 -49.5 32.5s-24.833 30.5 -32.5 49.5s-11.5 39.5 -11.5 61.5v550h170v-525c0 -9.33301 3.16699 -18.333 9.5 -27s16.5 -13 30.5 -13h40c14 0 24.167 3.83301 30.5 11.5s9.5 17.167 9.5 28.5v525h170v-525
c0 -11.333 3.16699 -20.833 9.5 -28.5s16.5 -11.5 30.5 -11.5h40c14 0 24.167 4.33301 30.5 13s9.5 17.667 9.5 27v525h170zM375 900v-150h-160v150h160zM595 900v-150h-160v150h160z" />
    <glyph glyph-name="wdieresis" unicode="&#x1e85;" horiz-adv-x="810" 
d="M780 700v-550c0 -22 -3.83301 -42.5 -11.5 -61.5s-18.5 -35.5 -32.5 -49.5s-30.5 -24.833 -49.5 -32.5s-39.5 -11.5 -61.5 -11.5h-80c-32 0 -60.333 7.66699 -85 23s-43 36 -55 62c-12.667 -26 -31.167 -46.667 -55.5 -62s-52.5 -23 -84.5 -23h-80
c-22 0 -42.5 3.83301 -61.5 11.5s-35.5 18.5 -49.5 32.5s-24.833 30.5 -32.5 49.5s-11.5 39.5 -11.5 61.5v550h170v-525c0 -9.33301 3.16699 -18.333 9.5 -27s16.5 -13 30.5 -13h40c14 0 24.167 3.83301 30.5 11.5s9.5 17.167 9.5 28.5v525h170v-525
c0 -11.333 3.16699 -20.833 9.5 -28.5s16.5 -11.5 30.5 -11.5h40c14 0 24.167 4.33301 30.5 13s9.5 17.667 9.5 27v525h170zM375 900v-150h-160v150h160zM595 900v-150h-160v150h160z" />
    <glyph glyph-name="Ygrave" unicode="&#x1ef2;" 
d="M175 0l0.000976562 240c-20.667 1.33301 -40 6.16602 -58 14.499s-33.333 19.333 -46 33s-22.667 29.667 -30 48s-11 38.166 -11 59.499v305h170v-280c0 -9.33301 3.16699 -18.333 9.5 -27s16.5 -13 30.5 -13h40c14 0 24.167 4.33301 30.5 13s9.5 17.667 9.5 27v280h170
v-305c0 -21.333 -3.66699 -41.166 -11 -59.499s-17.333 -34.333 -30 -48s-27.834 -24.667 -45.501 -33s-37.167 -13.166 -58.5 -14.499v-240h-170zM105.001 873c-7.33301 9.33301 -8.66699 16.167 -4 20.5s8.66699 6.5 12 6.5h118c3.33301 0 7 -0.666992 11 -2
s7.33301 -4.33301 10 -9l79 -139h-135z" />
    <glyph glyph-name="ygrave" unicode="&#x1ef3;" 
d="M175 0l0.000976562 240c-20.667 1.33301 -40 6.16602 -58 14.499s-33.333 19.333 -46 33s-22.667 29.667 -30 48s-11 38.166 -11 59.499v305h170v-280c0 -9.33301 3.16699 -18.333 9.5 -27s16.5 -13 30.5 -13h40c14 0 24.167 4.33301 30.5 13s9.5 17.667 9.5 27v280h170
v-305c0 -21.333 -3.66699 -41.166 -11 -59.499s-17.333 -34.333 -30 -48s-27.834 -24.667 -45.501 -33s-37.167 -13.166 -58.5 -14.499v-240h-170zM105.001 873c-7.33301 9.33301 -8.66699 16.167 -4 20.5s8.66699 6.5 12 6.5h118c3.33301 0 7 -0.666992 11 -2
s7.33301 -4.33301 10 -9l79 -139h-135z" />
    <glyph glyph-name="figuredash" unicode="&#x2012;" horiz-adv-x="540" 
d="M30 415h480v-130h-480v130z" />
    <glyph glyph-name="endash" unicode="&#x2013;" horiz-adv-x="540" 
d="M30 415h480v-130h-480v130z" />
    <glyph glyph-name="emdash" unicode="&#x2014;" horiz-adv-x="690" 
d="M30 415h630v-130h-630v130z" />
    <glyph glyph-name="quoteleft" unicode="&#x2018;" horiz-adv-x="230" 
d="M30 545c0 22 3.83301 42.5 11.5 61.5s18.5 35.5 32.5 49.5s30.5 24.833 49.5 32.5s39.5 11.5 61.5 11.5h15v-280h-170v125z" />
    <glyph glyph-name="quoteright" unicode="&#x2019;" horiz-adv-x="230" 
d="M200 575c0 -22 -3.83301 -42.5 -11.5 -61.5s-18.5 -35.5 -32.5 -49.5s-30.5 -24.833 -49.5 -32.5s-39.5 -11.5 -61.5 -11.5h-15v280h170v-125z" />
    <glyph glyph-name="quotesinglbase" unicode="&#x201a;" horiz-adv-x="230" 
d="M200 15c0 -22 -3.83301 -42.5 -11.5 -61.5s-18.5 -35.5 -32.5 -49.5s-30.5 -24.833 -49.5 -32.5s-39.5 -11.5 -61.5 -11.5h-15v280h170v-125z" />
    <glyph glyph-name="quotedblleft" unicode="&#x201c;" horiz-adv-x="430" 
d="M30 545c0 22 3.83301 42.5 11.5 61.5s18.5 35.5 32.5 49.5s30.5 24.833 49.5 32.5s39.5 11.5 61.5 11.5h15v-280h-170v125zM230 545c0 22 3.83301 42.5 11.5 61.5s18.5 35.5 32.5 49.5s30.5 24.833 49.5 32.5s39.5 11.5 61.5 11.5h15v-280h-170v125z" />
    <glyph glyph-name="quotedblright" unicode="&#x201d;" horiz-adv-x="430" 
d="M200 575c0 -22 -3.83301 -42.5 -11.5 -61.5s-18.5 -35.5 -32.5 -49.5s-30.5 -24.833 -49.5 -32.5s-39.5 -11.5 -61.5 -11.5h-15v280h170v-125zM400 575c0 -22 -3.83301 -42.5 -11.5 -61.5s-18.5 -35.5 -32.5 -49.5s-30.5 -24.833 -49.5 -32.5s-39.5 -11.5 -61.5 -11.5
h-15v280h170v-125z" />
    <glyph glyph-name="quotedblbase" unicode="&#x201e;" horiz-adv-x="230" 
d="M200 15c0 -22 -3.83301 -42.5 -11.5 -61.5s-18.5 -35.5 -32.5 -49.5s-30.5 -24.833 -49.5 -32.5s-39.5 -11.5 -61.5 -11.5h-15v280h170v-125zM400 15c0 -22 -3.83301 -42.5 -11.5 -61.5s-18.5 -35.5 -32.5 -49.5s-30.5 -24.833 -49.5 -32.5s-39.5 -11.5 -61.5 -11.5h-15
v280h170v-125z" />
    <glyph glyph-name="dagger" unicode="&#x2020;" horiz-adv-x="510" 
 />
    <glyph glyph-name="daggerdbl" unicode="&#x2021;" horiz-adv-x="510" 
 />
    <glyph glyph-name="bullet" unicode="&#x2022;" horiz-adv-x="250" 
d="M200 340v-140h-150v140h150z" />
    <glyph glyph-name="onedotenleader" unicode="&#x2024;" horiz-adv-x="230" 
d="M200 150v-150h-170v150h170z" />
    <glyph glyph-name="twodotenleader" unicode="&#x2025;" horiz-adv-x="430" 
d="M200 140v-140h-170v140h170zM400 140v-140h-170v140h170z" />
    <glyph glyph-name="ellipsis" unicode="&#x2026;" horiz-adv-x="630" 
d="M200 140v-140h-170v140h170zM400 140v-140h-170v140h170zM600 140v-140h-170v140h170z" />
    <glyph glyph-name="perthousand" unicode="&#x2030;" horiz-adv-x="1000" 
d="M180 0v140c0 10 1.66699 24.833 5 44.5s15 43.167 35 70.5l198 257c4 5.33301 7 11.666 9 18.999s3 13 3 17v152h90v-140c0 -10 -2.5 -24.833 -7.5 -44.5s-17.5 -43.167 -37.5 -70.5l-193 -257c-4 -5.33301 -7 -11.666 -9 -18.999s-3 -13 -3 -17v-152h-90zM107 347
c-22 0 -40.333 7.33301 -55 22s-22 33.334 -22 56.001v200c0 22 7.33301 40.333 22 55s33 22 55 22h75c22.667 0 41.334 -7.33301 56.001 -22s22 -33 22 -55v-200c0 -22.667 -7.33301 -41.334 -22 -56.001s-33.334 -22 -56.001 -22h-75zM155 417
c7.33301 0 12.5 2.16699 15.5 6.5s4.5 8.83301 4.5 13.5v175c0 4.66699 -1.5 9.16699 -4.5 13.5s-8.16699 6.5 -15.5 6.5h-20c-7.33301 0 -12.5 -2.16699 -15.5 -6.5s-4.5 -8.83301 -4.5 -13.5v-175c0 -4.66699 1.5 -9.16699 4.5 -13.5s8.16699 -6.5 15.5 -6.5h20zM517 -3
c-22 0 -40.333 7.33301 -55 22s-22 33.334 -22 56.001v200c0 22 7.33301 40.333 22 55s33 22 55 22h75c22.667 0 41.334 -7.33301 56.001 -22s22 -33 22 -55v-200c0 -22.667 -7.33301 -41.334 -22 -56.001s-33.334 -22 -56.001 -22h-75zM565 67
c7.33301 0 12.5 2.16699 15.5 6.5s4.5 8.83301 4.5 13.5v175c0 4.66699 -1.5 9.16699 -4.5 13.5s-8.16699 6.5 -15.5 6.5h-20c-7.33301 0 -12.5 -2.16699 -15.5 -6.5s-4.5 -8.83301 -4.5 -13.5v-175c0 -4.66699 1.5 -9.16699 4.5 -13.5s8.16699 -6.5 15.5 -6.5h20zM817 -3
c-22 0 -40.333 7.33301 -55 22s-22 33.334 -22 56.001v200c0 22 7.33301 40.333 22 55s33 22 55 22h75c22.667 0 41.334 -7.33301 56.001 -22s22 -33 22 -55v-200c0 -22.667 -7.33301 -41.334 -22 -56.001s-33.334 -22 -56.001 -22h-75zM865 67
c7.33301 0 12.5 2.16699 15.5 6.5s4.5 8.83301 4.5 13.5v175c0 4.66699 -1.5 9.16699 -4.5 13.5s-8.16699 6.5 -15.5 6.5h-20c-7.33301 0 -12.5 -2.16699 -15.5 -6.5s-4.5 -8.83301 -4.5 -13.5v-175c0 -4.66699 1.5 -9.16699 4.5 -13.5s8.16699 -6.5 15.5 -6.5h20z" />
    <glyph glyph-name="guilsinglleft" unicode="&#x2039;" horiz-adv-x="265" 
d="M30 424c0 8 1.66699 14 5 18s7.66602 7.33301 12.999 10l187 90v-135l-114 -55l114 -55v-135l-187 90c-5.33301 2.66699 -9.66602 6 -12.999 10s-5 10 -5 18v144z" />
    <glyph glyph-name="guilsinglright" unicode="&#x203a;" horiz-adv-x="265" 
d="M235 280c0 -8 -1.66699 -14 -5 -18s-7.66602 -7.33301 -12.999 -10l-187 -90v135l114 55l-114 55v135l187 -90c5.33301 -2.66699 9.66602 -6 12.999 -10s5 -10 5 -18v-144z" />
    <glyph glyph-name="exclamdbl" unicode="&#x203c;" horiz-adv-x="460" 
d="M200 700v-530h-170v530h170zM200 140v-140h-170v140h170zM430 700v-530h-170v530h170zM430 140v-140h-170v140h170z" />
    <glyph glyph-name="fraction" unicode="&#x2044;" horiz-adv-x="480" 
d="M30 0v140.001c0 5.33301 0.166992 12.166 0.5 20.499s1.83301 18 4.5 29s6.66699 23 12 36s13 26.167 23 39.5l188 257c8 10 12 18.667 12 26v152h180v-140c0 -10 -2.5 -26.5 -7.5 -49.5s-17.5 -48.167 -37.5 -75.5l-193 -257c-8 -10 -12 -18.667 -12 -26v-152h-170z" />
    <glyph glyph-name="nsuperior" unicode="&#x207f;" horiz-adv-x="290" 
d="M30 350l-0.000976562 275c0 22 7.33301 40.333 22 55s33 22 55 22h75c22.667 0 41.334 -7.33301 56.001 -22s22 -33 22 -55v-275h-85v262c0 13.333 -6.66699 20 -20 20h-20c-7.33301 0 -12.5 -2.16699 -15.5 -6.5s-4.5 -8.83301 -4.5 -13.5v-262h-85z" />
    <glyph glyph-name="colonmonetary" unicode="&#x20a1;" horiz-adv-x="580" 
 />
    <glyph glyph-name="franc" unicode="&#x20a3;" horiz-adv-x="560" 
d="M30 315h70v70h-70v70h70v90c0 22 3.83301 42.5 11.5 61.5s18.5 35.5 32.5 49.5s30.5 24.833 49.5 32.5s39.5 11.5 61.5 11.5h275v-140h-220c-14 0 -24.167 -4.33301 -30.5 -13s-9.5 -17.667 -9.5 -27v-65h90v-70h-90v-70h90v-70h-90v-65
c0 -9.33301 3.16699 -18.333 9.5 -27s16.5 -13 30.5 -13h220v-140h-275c-22 -0 -42.5 3.83301 -61.5 11.5s-35.5 18.5 -49.5 32.5s-24.833 30.5 -32.5 49.5s-11.5 39.5 -11.5 61.5v90h-70v70z" />
    <glyph glyph-name="lira" unicode="&#x20a4;" horiz-adv-x="560" 
d="M30 315h70v70h-70v70h70v90c0 22 3.83301 42.5 11.5 61.5s18.5 35.5 32.5 49.5s30.5 24.833 49.5 32.5s39.5 11.5 61.5 11.5h275v-140h-220c-14 0 -24.167 -4.33301 -30.5 -13s-9.5 -17.667 -9.5 -27v-65h90v-70h-90v-70h90v-70h-90v-65
c0 -9.33301 3.16699 -18.333 9.5 -27s16.5 -13 30.5 -13h220v-140h-275c-22 -0 -42.5 3.83301 -61.5 11.5s-35.5 18.5 -49.5 32.5s-24.833 30.5 -32.5 49.5s-11.5 39.5 -11.5 61.5v90h-70v70z" />
    <glyph glyph-name="peseta" unicode="&#x20a7;" horiz-adv-x="560" 
d="M30 315h70v70h-70v70h70v90c0 22 3.83301 42.5 11.5 61.5s18.5 35.5 32.5 49.5s30.5 24.833 49.5 32.5s39.5 11.5 61.5 11.5h275v-140h-220c-14 0 -24.167 -4.33301 -30.5 -13s-9.5 -17.667 -9.5 -27v-65h90v-70h-90v-70h90v-70h-90v-65
c0 -9.33301 3.16699 -18.333 9.5 -27s16.5 -13 30.5 -13h220v-140h-275c-22 -0 -42.5 3.83301 -61.5 11.5s-35.5 18.5 -49.5 32.5s-24.833 30.5 -32.5 49.5s-11.5 39.5 -11.5 61.5v90h-70v70z" />
    <glyph glyph-name="Euro" unicode="&#x20ac;" horiz-adv-x="560" 
d="M30 315h70v70h-70v70h70v90c0 22 3.83301 42.5 11.5 61.5s18.5 35.5 32.5 49.5s30.5 24.833 49.5 32.5s39.5 11.5 61.5 11.5h275v-140h-220c-14 0 -24.167 -4.33301 -30.5 -13s-9.5 -17.667 -9.5 -27v-65h90v-70h-90v-70h90v-70h-90v-65
c0 -9.33301 3.16699 -18.333 9.5 -27s16.5 -13 30.5 -13h220v-140h-275c-22 -0 -42.5 3.83301 -61.5 11.5s-35.5 18.5 -49.5 32.5s-24.833 30.5 -32.5 49.5s-11.5 39.5 -11.5 61.5v90h-70v70z" />
    <glyph glyph-name="litre" unicode="&#x2113;" horiz-adv-x="449" 
d="M30 167l94.001 99.001v243c0 21.333 2.16699 43.666 6.5 66.999s12 45 23 65s25.5 36.5 43.5 49.5s40.333 19.5 67 19.5c30 0 53.5 -9 70.5 -27s25.5 -42 25.5 -72c0 -27.333 -5 -53.833 -15 -79.5s-22.833 -50.5 -38.5 -74.5s-32.834 -47.167 -51.501 -69.5l-55 -64.5
v-168c0 -14 0.833008 -28.833 2.5 -44.5s5.5 -30.167 11.5 -43.5s14.5 -24.5 25.5 -33.5s25.5 -13.5 43.5 -13.5c16.667 0 31.334 4.16699 44.001 12.5s23.834 19 33.501 32s17.667 27.333 24 43s11.833 30.5 16.5 44.5h18c-4.66699 -18.667 -11.334 -37.5 -20.001 -56.5
s-19.334 -36.333 -32.001 -52s-27.667 -28.5 -45 -38.5s-37.333 -15 -60 -15c-28 0 -51 5.66699 -69 17s-32 26.166 -42 44.499s-17 39.333 -21 63s-6 47.834 -6 72.501v52l-82 -83zM200.001 350.001c89.333 103.333 134 184 134 242c0 28.667 -6.5 50.667 -19.5 66
s-28.833 23 -47.5 23c-16 0 -28.5 -4.66699 -37.5 -14s-15.667 -21 -20 -35s-7 -29 -8 -45s-1.5 -30.667 -1.5 -44v-193z" />
    <glyph glyph-name="afii61352" unicode="&#x2116;" horiz-adv-x="810" 
d="M30 0v550c0 22 3.83301 42.5 11.5 61.5s18.5 35.5 32.5 49.5s30.5 24.833 49.5 32.5s39.5 11.5 61.5 11.5h150c22 0 42.5 -3.83301 61.5 -11.5s35.5 -18.5 49.5 -32.5s24.833 -30.5 32.5 -49.5s11.5 -39.5 11.5 -61.5v-550h-170v525c0 11.333 -3.16699 20.833 -9.5 28.5
s-16.5 11.5 -30.5 11.5h-40c-14 0 -24.167 -4.33301 -30.5 -13s-9.5 -17.667 -9.5 -27v-525h-170zM627 347c-22 0 -40.333 7.33301 -55 22s-22 33.334 -22 56.001v200c0 22 7.33301 40.333 22 55s33 22 55 22h75c22.667 0 41.334 -7.33301 56.001 -22s22 -33 22 -55v-200
c0 -22.667 -7.33301 -41.334 -22 -56.001s-33.334 -22 -56.001 -22h-75zM675 417c7.33301 0 12.5 2.16699 15.5 6.5s4.5 8.83301 4.5 13.5v175c0 4.66699 -1.5 9.16699 -4.5 13.5s-8.16699 6.5 -15.5 6.5h-20c-7.33301 0 -12.5 -2.16699 -15.5 -6.5
s-4.5 -8.83301 -4.5 -13.5v-175c0 -4.66699 1.5 -9.16699 4.5 -13.5s8.16699 -6.5 15.5 -6.5h20zM550 325h230v-40h-230v40z" />
    <glyph glyph-name="trademark" unicode="&#x2122;" horiz-adv-x="695" 
d="M580 350l-0.000976562 262c0 4.66699 -1.5 9.16699 -4.5 13.5s-8.16699 6.5 -15.5 6.5h-20c-13.333 0 -20 -6.66699 -20 -20v-262h-85v262c0 13.333 -6.66699 20 -20 20h-20c-7.33301 0 -12.5 -2.16699 -15.5 -6.5s-4.5 -8.83301 -4.5 -13.5v-262h-85v275
c0 22 7.33301 40.333 22 55s33 22 55 22h40c16 0 30.167 -3.83301 42.5 -11.5s21.5 -18.167 27.5 -31.5c6 13.333 15.167 23.833 27.5 31.5s26.5 11.5 42.5 11.5h40c22.667 0 41.334 -7.33301 56.001 -22s22 -33 22 -55v-275h-85zM29.999 630v70h230v-70h-73v-280h-85v280
h-72z" />
    <glyph glyph-name="Omega" unicode="&#x2126;" horiz-adv-x="630" 
 />
    <glyph glyph-name="estimated" unicode="&#x212e;" horiz-adv-x="736" 
d="M178 349l0.000976562 -234.998c54 -52 117.333 -78 190 -78c108.667 0 192.667 52.333 252 157l46 -26c-42.667 -60.667 -86 -105.334 -130 -134.001c-44.667 -28.667 -100.667 -43 -168 -43c-102 0 -183.333 34.333 -244 103c-62.667 66.667 -94 152 -94 256
c0 105.333 31.333 191.666 94 258.999c63.333 68 144.666 102 243.999 102c90 0 168 -30.333 234 -91c32 -30.667 56.833 -68.167 74.5 -112.5s27.5 -96.833 29.5 -157.5h-528zM558.001 397.002l0.000976562 189c-54.667 51.333 -118.334 77 -191.001 77
c-73.333 0 -136.333 -25.667 -189 -77v-189h380z" />
    </font>
</defs>
</svg>
